G04 #@! TF.GenerationSoftware,KiCad,Pcbnew,(5.1.2)-2*
G04 #@! TF.CreationDate,2019-08-08T10:37:34+12:00*
G04 #@! TF.ProjectId,Shutter_Driver,53687574-7465-4725-9f44-72697665722e,rev?*
G04 #@! TF.SameCoordinates,Original*
G04 #@! TF.FileFunction,Legend,Top*
G04 #@! TF.FilePolarity,Positive*
%FSLAX46Y46*%
G04 Gerber Fmt 4.6, Leading zero omitted, Abs format (unit mm)*
G04 Created by KiCad (PCBNEW (5.1.2)-2) date 2019-08-08 10:37:34*
%MOMM*%
%LPD*%
G04 APERTURE LIST*
%ADD10C,0.150000*%
%ADD11C,0.120000*%
G04 APERTURE END LIST*
D10*
X82796095Y-76398380D02*
X82796095Y-75398380D01*
X83367523Y-76398380D02*
X82938952Y-75826952D01*
X83367523Y-75398380D02*
X82796095Y-75969809D01*
X106068761Y-96105023D02*
X106116380Y-95962166D01*
X106116380Y-95724071D01*
X106068761Y-95628833D01*
X106021142Y-95581214D01*
X105925904Y-95533595D01*
X105830666Y-95533595D01*
X105735428Y-95581214D01*
X105687809Y-95628833D01*
X105640190Y-95724071D01*
X105592571Y-95914547D01*
X105544952Y-96009785D01*
X105497333Y-96057404D01*
X105402095Y-96105023D01*
X105306857Y-96105023D01*
X105211619Y-96057404D01*
X105164000Y-96009785D01*
X105116380Y-95914547D01*
X105116380Y-95676452D01*
X105164000Y-95533595D01*
X106116380Y-95105023D02*
X105116380Y-95105023D01*
X106116380Y-94676452D02*
X105592571Y-94676452D01*
X105497333Y-94724071D01*
X105449714Y-94819309D01*
X105449714Y-94962166D01*
X105497333Y-95057404D01*
X105544952Y-95105023D01*
X105449714Y-93771690D02*
X106116380Y-93771690D01*
X105449714Y-94200261D02*
X105973523Y-94200261D01*
X106068761Y-94152642D01*
X106116380Y-94057404D01*
X106116380Y-93914547D01*
X106068761Y-93819309D01*
X106021142Y-93771690D01*
X105449714Y-93438357D02*
X105449714Y-93057404D01*
X105116380Y-93295500D02*
X105973523Y-93295500D01*
X106068761Y-93247880D01*
X106116380Y-93152642D01*
X106116380Y-93057404D01*
X105449714Y-92866928D02*
X105449714Y-92485976D01*
X105116380Y-92724071D02*
X105973523Y-92724071D01*
X106068761Y-92676452D01*
X106116380Y-92581214D01*
X106116380Y-92485976D01*
X106068761Y-91771690D02*
X106116380Y-91866928D01*
X106116380Y-92057404D01*
X106068761Y-92152642D01*
X105973523Y-92200261D01*
X105592571Y-92200261D01*
X105497333Y-92152642D01*
X105449714Y-92057404D01*
X105449714Y-91866928D01*
X105497333Y-91771690D01*
X105592571Y-91724071D01*
X105687809Y-91724071D01*
X105783047Y-92200261D01*
X106116380Y-91295500D02*
X105449714Y-91295500D01*
X105640190Y-91295500D02*
X105544952Y-91247880D01*
X105497333Y-91200261D01*
X105449714Y-91105023D01*
X105449714Y-91009785D01*
X106116380Y-89914547D02*
X105116380Y-89914547D01*
X105116380Y-89676452D01*
X105164000Y-89533595D01*
X105259238Y-89438357D01*
X105354476Y-89390738D01*
X105544952Y-89343119D01*
X105687809Y-89343119D01*
X105878285Y-89390738D01*
X105973523Y-89438357D01*
X106068761Y-89533595D01*
X106116380Y-89676452D01*
X106116380Y-89914547D01*
X106116380Y-88914547D02*
X105449714Y-88914547D01*
X105640190Y-88914547D02*
X105544952Y-88866928D01*
X105497333Y-88819309D01*
X105449714Y-88724071D01*
X105449714Y-88628833D01*
X106116380Y-88295500D02*
X105449714Y-88295500D01*
X105116380Y-88295500D02*
X105164000Y-88343119D01*
X105211619Y-88295500D01*
X105164000Y-88247880D01*
X105116380Y-88295500D01*
X105211619Y-88295500D01*
X105449714Y-87914547D02*
X106116380Y-87676452D01*
X105449714Y-87438357D01*
X106068761Y-86676452D02*
X106116380Y-86771690D01*
X106116380Y-86962166D01*
X106068761Y-87057404D01*
X105973523Y-87105023D01*
X105592571Y-87105023D01*
X105497333Y-87057404D01*
X105449714Y-86962166D01*
X105449714Y-86771690D01*
X105497333Y-86676452D01*
X105592571Y-86628833D01*
X105687809Y-86628833D01*
X105783047Y-87105023D01*
X106116380Y-86200261D02*
X105449714Y-86200261D01*
X105640190Y-86200261D02*
X105544952Y-86152642D01*
X105497333Y-86105023D01*
X105449714Y-86009785D01*
X105449714Y-85914547D01*
X105449714Y-84914547D02*
X106116380Y-84676452D01*
X105449714Y-84438357D01*
X105116380Y-84152642D02*
X105116380Y-83533595D01*
X105497333Y-83866928D01*
X105497333Y-83724071D01*
X105544952Y-83628833D01*
X105592571Y-83581214D01*
X105687809Y-83533595D01*
X105925904Y-83533595D01*
X106021142Y-83581214D01*
X106068761Y-83628833D01*
X106116380Y-83724071D01*
X106116380Y-84009785D01*
X106068761Y-84105023D01*
X106021142Y-84152642D01*
X105735428Y-82343119D02*
X105735428Y-81581214D01*
X105592571Y-80009785D02*
X105592571Y-80343119D01*
X106116380Y-80343119D02*
X105116380Y-80343119D01*
X105116380Y-79866928D01*
X106116380Y-79343119D02*
X106068761Y-79438357D01*
X106021142Y-79485976D01*
X105925904Y-79533595D01*
X105640190Y-79533595D01*
X105544952Y-79485976D01*
X105497333Y-79438357D01*
X105449714Y-79343119D01*
X105449714Y-79200261D01*
X105497333Y-79105023D01*
X105544952Y-79057404D01*
X105640190Y-79009785D01*
X105925904Y-79009785D01*
X106021142Y-79057404D01*
X106068761Y-79105023D01*
X106116380Y-79200261D01*
X106116380Y-79343119D01*
X106116380Y-78581214D02*
X105449714Y-78581214D01*
X105640190Y-78581214D02*
X105544952Y-78533595D01*
X105497333Y-78485976D01*
X105449714Y-78390738D01*
X105449714Y-78295500D01*
X105116380Y-77200261D02*
X105925904Y-77200261D01*
X106021142Y-77152642D01*
X106068761Y-77105023D01*
X106116380Y-77009785D01*
X106116380Y-76819309D01*
X106068761Y-76724071D01*
X106021142Y-76676452D01*
X105925904Y-76628833D01*
X105116380Y-76628833D01*
X105449714Y-76152642D02*
X106116380Y-76152642D01*
X105544952Y-76152642D02*
X105497333Y-76105023D01*
X105449714Y-76009785D01*
X105449714Y-75866928D01*
X105497333Y-75771690D01*
X105592571Y-75724071D01*
X106116380Y-75724071D01*
X106116380Y-75247880D02*
X105449714Y-75247880D01*
X105116380Y-75247880D02*
X105164000Y-75295500D01*
X105211619Y-75247880D01*
X105164000Y-75200261D01*
X105116380Y-75247880D01*
X105211619Y-75247880D01*
X106116380Y-74771690D02*
X105116380Y-74771690D01*
X105497333Y-74771690D02*
X105449714Y-74676452D01*
X105449714Y-74485976D01*
X105497333Y-74390738D01*
X105544952Y-74343119D01*
X105640190Y-74295500D01*
X105925904Y-74295500D01*
X106021142Y-74343119D01*
X106068761Y-74390738D01*
X106116380Y-74485976D01*
X106116380Y-74676452D01*
X106068761Y-74771690D01*
X106116380Y-73724071D02*
X106068761Y-73819309D01*
X105973523Y-73866928D01*
X105116380Y-73866928D01*
X106116380Y-73343119D02*
X105449714Y-73343119D01*
X105116380Y-73343119D02*
X105164000Y-73390738D01*
X105211619Y-73343119D01*
X105164000Y-73295500D01*
X105116380Y-73343119D01*
X105211619Y-73343119D01*
X105449714Y-73009785D02*
X105449714Y-72628833D01*
X105116380Y-72866928D02*
X105973523Y-72866928D01*
X106068761Y-72819309D01*
X106116380Y-72724071D01*
X106116380Y-72628833D01*
X105449714Y-72390738D02*
X105449714Y-71866928D01*
X106116380Y-72390738D01*
X106116380Y-71866928D01*
X106068761Y-70771690D02*
X106116380Y-70628833D01*
X106116380Y-70390738D01*
X106068761Y-70295500D01*
X106021142Y-70247880D01*
X105925904Y-70200261D01*
X105830666Y-70200261D01*
X105735428Y-70247880D01*
X105687809Y-70295500D01*
X105640190Y-70390738D01*
X105592571Y-70581214D01*
X105544952Y-70676452D01*
X105497333Y-70724071D01*
X105402095Y-70771690D01*
X105306857Y-70771690D01*
X105211619Y-70724071D01*
X105164000Y-70676452D01*
X105116380Y-70581214D01*
X105116380Y-70343119D01*
X105164000Y-70200261D01*
X106116380Y-69771690D02*
X105116380Y-69771690D01*
X106116380Y-69343119D02*
X105592571Y-69343119D01*
X105497333Y-69390738D01*
X105449714Y-69485976D01*
X105449714Y-69628833D01*
X105497333Y-69724071D01*
X105544952Y-69771690D01*
X105449714Y-68438357D02*
X106116380Y-68438357D01*
X105449714Y-68866928D02*
X105973523Y-68866928D01*
X106068761Y-68819309D01*
X106116380Y-68724071D01*
X106116380Y-68581214D01*
X106068761Y-68485976D01*
X106021142Y-68438357D01*
X105449714Y-68105023D02*
X105449714Y-67724071D01*
X105116380Y-67962166D02*
X105973523Y-67962166D01*
X106068761Y-67914547D01*
X106116380Y-67819309D01*
X106116380Y-67724071D01*
X105449714Y-67533595D02*
X105449714Y-67152642D01*
X105116380Y-67390738D02*
X105973523Y-67390738D01*
X106068761Y-67343119D01*
X106116380Y-67247880D01*
X106116380Y-67152642D01*
X106068761Y-66438357D02*
X106116380Y-66533595D01*
X106116380Y-66724071D01*
X106068761Y-66819309D01*
X105973523Y-66866928D01*
X105592571Y-66866928D01*
X105497333Y-66819309D01*
X105449714Y-66724071D01*
X105449714Y-66533595D01*
X105497333Y-66438357D01*
X105592571Y-66390738D01*
X105687809Y-66390738D01*
X105783047Y-66866928D01*
X106116380Y-65962166D02*
X105449714Y-65962166D01*
X105640190Y-65962166D02*
X105544952Y-65914547D01*
X105497333Y-65866928D01*
X105449714Y-65771690D01*
X105449714Y-65676452D01*
X106068761Y-65390738D02*
X106116380Y-65295500D01*
X106116380Y-65105023D01*
X106068761Y-65009785D01*
X105973523Y-64962166D01*
X105925904Y-64962166D01*
X105830666Y-65009785D01*
X105783047Y-65105023D01*
X105783047Y-65247880D01*
X105735428Y-65343119D01*
X105640190Y-65390738D01*
X105592571Y-65390738D01*
X105497333Y-65343119D01*
X105449714Y-65247880D01*
X105449714Y-65105023D01*
X105497333Y-65009785D01*
X84486904Y-67635380D02*
X84486904Y-66635380D01*
X85058333Y-67635380D01*
X85058333Y-66635380D01*
X85534523Y-67111571D02*
X85867857Y-67111571D01*
X86010714Y-67635380D02*
X85534523Y-67635380D01*
X85534523Y-66635380D01*
X86010714Y-66635380D01*
X86963095Y-66683000D02*
X86867857Y-66635380D01*
X86725000Y-66635380D01*
X86582142Y-66683000D01*
X86486904Y-66778238D01*
X86439285Y-66873476D01*
X86391666Y-67063952D01*
X86391666Y-67206809D01*
X86439285Y-67397285D01*
X86486904Y-67492523D01*
X86582142Y-67587761D01*
X86725000Y-67635380D01*
X86820238Y-67635380D01*
X86963095Y-67587761D01*
X87010714Y-67540142D01*
X87010714Y-67206809D01*
X86820238Y-67206809D01*
X89670095Y-67635380D02*
X89670095Y-66635380D01*
X90051047Y-66635380D01*
X90146285Y-66683000D01*
X90193904Y-66730619D01*
X90241523Y-66825857D01*
X90241523Y-66968714D01*
X90193904Y-67063952D01*
X90146285Y-67111571D01*
X90051047Y-67159190D01*
X89670095Y-67159190D01*
X90860571Y-66635380D02*
X91051047Y-66635380D01*
X91146285Y-66683000D01*
X91241523Y-66778238D01*
X91289142Y-66968714D01*
X91289142Y-67302047D01*
X91241523Y-67492523D01*
X91146285Y-67587761D01*
X91051047Y-67635380D01*
X90860571Y-67635380D01*
X90765333Y-67587761D01*
X90670095Y-67492523D01*
X90622476Y-67302047D01*
X90622476Y-66968714D01*
X90670095Y-66778238D01*
X90765333Y-66683000D01*
X90860571Y-66635380D01*
X91670095Y-67587761D02*
X91812952Y-67635380D01*
X92051047Y-67635380D01*
X92146285Y-67587761D01*
X92193904Y-67540142D01*
X92241523Y-67444904D01*
X92241523Y-67349666D01*
X92193904Y-67254428D01*
X92146285Y-67206809D01*
X92051047Y-67159190D01*
X91860571Y-67111571D01*
X91765333Y-67063952D01*
X91717714Y-67016333D01*
X91670095Y-66921095D01*
X91670095Y-66825857D01*
X91717714Y-66730619D01*
X91765333Y-66683000D01*
X91860571Y-66635380D01*
X92098666Y-66635380D01*
X92241523Y-66683000D01*
X88789095Y-103957428D02*
X89551000Y-103957428D01*
X89170047Y-104338380D02*
X89170047Y-103576476D01*
X90551000Y-104338380D02*
X89979571Y-104338380D01*
X90265285Y-104338380D02*
X90265285Y-103338380D01*
X90170047Y-103481238D01*
X90074809Y-103576476D01*
X89979571Y-103624095D01*
X90931952Y-103433619D02*
X90979571Y-103386000D01*
X91074809Y-103338380D01*
X91312904Y-103338380D01*
X91408142Y-103386000D01*
X91455761Y-103433619D01*
X91503380Y-103528857D01*
X91503380Y-103624095D01*
X91455761Y-103766952D01*
X90884333Y-104338380D01*
X91503380Y-104338380D01*
X91789095Y-103338380D02*
X92122428Y-104338380D01*
X92455761Y-103338380D01*
X95504095Y-103259000D02*
X95408857Y-103211380D01*
X95266000Y-103211380D01*
X95123142Y-103259000D01*
X95027904Y-103354238D01*
X94980285Y-103449476D01*
X94932666Y-103639952D01*
X94932666Y-103782809D01*
X94980285Y-103973285D01*
X95027904Y-104068523D01*
X95123142Y-104163761D01*
X95266000Y-104211380D01*
X95361238Y-104211380D01*
X95504095Y-104163761D01*
X95551714Y-104116142D01*
X95551714Y-103782809D01*
X95361238Y-103782809D01*
X95980285Y-104211380D02*
X95980285Y-103211380D01*
X96551714Y-104211380D01*
X96551714Y-103211380D01*
X97027904Y-104211380D02*
X97027904Y-103211380D01*
X97266000Y-103211380D01*
X97408857Y-103259000D01*
X97504095Y-103354238D01*
X97551714Y-103449476D01*
X97599333Y-103639952D01*
X97599333Y-103782809D01*
X97551714Y-103973285D01*
X97504095Y-104068523D01*
X97408857Y-104163761D01*
X97266000Y-104211380D01*
X97027904Y-104211380D01*
X85137714Y-104338380D02*
X85137714Y-103338380D01*
X85137714Y-103814571D02*
X85709142Y-103814571D01*
X85709142Y-104338380D02*
X85709142Y-103338380D01*
X86042476Y-103338380D02*
X86375809Y-104338380D01*
X86709142Y-103338380D01*
X98639380Y-46052952D02*
X98639380Y-45433904D01*
X99020333Y-45767238D01*
X99020333Y-45624380D01*
X99067952Y-45529142D01*
X99115571Y-45481523D01*
X99210809Y-45433904D01*
X99448904Y-45433904D01*
X99544142Y-45481523D01*
X99591761Y-45529142D01*
X99639380Y-45624380D01*
X99639380Y-45910095D01*
X99591761Y-46005333D01*
X99544142Y-46052952D01*
X99258428Y-45005333D02*
X99258428Y-44243428D01*
X98639380Y-43291047D02*
X98639380Y-43767238D01*
X99115571Y-43814857D01*
X99067952Y-43767238D01*
X99020333Y-43672000D01*
X99020333Y-43433904D01*
X99067952Y-43338666D01*
X99115571Y-43291047D01*
X99210809Y-43243428D01*
X99448904Y-43243428D01*
X99544142Y-43291047D01*
X99591761Y-43338666D01*
X99639380Y-43433904D01*
X99639380Y-43672000D01*
X99591761Y-43767238D01*
X99544142Y-43814857D01*
X98639380Y-42195809D02*
X99639380Y-41862476D01*
X98639380Y-41529142D01*
X99639380Y-40433904D02*
X98639380Y-40433904D01*
X99639380Y-39957714D02*
X98639380Y-39957714D01*
X99639380Y-39386285D01*
X98639380Y-39386285D01*
X57300761Y-48164142D02*
X57348380Y-48021285D01*
X57348380Y-47783190D01*
X57300761Y-47687952D01*
X57253142Y-47640333D01*
X57157904Y-47592714D01*
X57062666Y-47592714D01*
X56967428Y-47640333D01*
X56919809Y-47687952D01*
X56872190Y-47783190D01*
X56824571Y-47973666D01*
X56776952Y-48068904D01*
X56729333Y-48116523D01*
X56634095Y-48164142D01*
X56538857Y-48164142D01*
X56443619Y-48116523D01*
X56396000Y-48068904D01*
X56348380Y-47973666D01*
X56348380Y-47735571D01*
X56396000Y-47592714D01*
X57348380Y-47164142D02*
X56348380Y-47164142D01*
X56824571Y-47164142D02*
X56824571Y-46592714D01*
X57348380Y-46592714D02*
X56348380Y-46592714D01*
X56348380Y-46116523D02*
X57157904Y-46116523D01*
X57253142Y-46068904D01*
X57300761Y-46021285D01*
X57348380Y-45926047D01*
X57348380Y-45735571D01*
X57300761Y-45640333D01*
X57253142Y-45592714D01*
X57157904Y-45545095D01*
X56348380Y-45545095D01*
X56348380Y-45211761D02*
X56348380Y-44640333D01*
X57348380Y-44926047D02*
X56348380Y-44926047D01*
X56348380Y-44449857D02*
X56348380Y-43878428D01*
X57348380Y-44164142D02*
X56348380Y-44164142D01*
X56824571Y-43545095D02*
X56824571Y-43211761D01*
X57348380Y-43068904D02*
X57348380Y-43545095D01*
X56348380Y-43545095D01*
X56348380Y-43068904D01*
X57348380Y-42068904D02*
X56872190Y-42402238D01*
X57348380Y-42640333D02*
X56348380Y-42640333D01*
X56348380Y-42259380D01*
X56396000Y-42164142D01*
X56443619Y-42116523D01*
X56538857Y-42068904D01*
X56681714Y-42068904D01*
X56776952Y-42116523D01*
X56824571Y-42164142D01*
X56872190Y-42259380D01*
X56872190Y-42640333D01*
X56348380Y-40687952D02*
X56348380Y-40497476D01*
X56396000Y-40402238D01*
X56491238Y-40307000D01*
X56681714Y-40259380D01*
X57015047Y-40259380D01*
X57205523Y-40307000D01*
X57300761Y-40402238D01*
X57348380Y-40497476D01*
X57348380Y-40687952D01*
X57300761Y-40783190D01*
X57205523Y-40878428D01*
X57015047Y-40926047D01*
X56681714Y-40926047D01*
X56491238Y-40878428D01*
X56396000Y-40783190D01*
X56348380Y-40687952D01*
X56348380Y-39830809D02*
X57157904Y-39830809D01*
X57253142Y-39783190D01*
X57300761Y-39735571D01*
X57348380Y-39640333D01*
X57348380Y-39449857D01*
X57300761Y-39354619D01*
X57253142Y-39307000D01*
X57157904Y-39259380D01*
X56348380Y-39259380D01*
X56348380Y-38926047D02*
X56348380Y-38354619D01*
X57348380Y-38640333D02*
X56348380Y-38640333D01*
D11*
X77082000Y-35378000D02*
X77082000Y-36137000D01*
X78297000Y-36897000D02*
X75867000Y-36897000D01*
X78297000Y-35378000D02*
X75867000Y-35378000D01*
X75867000Y-35378000D02*
X75867000Y-36897000D01*
X78297000Y-35378000D02*
X78297000Y-36897000D01*
X80762000Y-46668000D02*
X75692000Y-46668000D01*
X80762000Y-36898000D02*
X75692000Y-36898000D01*
X75692000Y-36898000D02*
X75692000Y-46668000D01*
X80762000Y-36898000D02*
X80762000Y-46668000D01*
X50110000Y-67437000D02*
X59110000Y-67437000D01*
X59690000Y-80137000D02*
X49530000Y-80137000D01*
X59690000Y-54737000D02*
X59690000Y-80137000D01*
X49530000Y-54737000D02*
X59690000Y-54737000D01*
X49530000Y-80137000D02*
X49530000Y-54737000D01*
X73152000Y-95039000D02*
X73152000Y-95149000D01*
X73152000Y-107399000D02*
X73152000Y-107289000D01*
X70782000Y-95149000D02*
X70782000Y-107289000D01*
X75522000Y-95149000D02*
X70782000Y-95149000D01*
X75522000Y-107289000D02*
X75522000Y-95149000D01*
X70782000Y-107289000D02*
X75522000Y-107289000D01*
X60198000Y-95039000D02*
X60198000Y-95149000D01*
X60198000Y-107399000D02*
X60198000Y-107289000D01*
X57828000Y-95149000D02*
X57828000Y-107289000D01*
X62568000Y-95149000D02*
X57828000Y-95149000D01*
X62568000Y-107289000D02*
X62568000Y-95149000D01*
X57828000Y-107289000D02*
X62568000Y-107289000D01*
X66675000Y-95039000D02*
X66675000Y-95149000D01*
X66675000Y-107399000D02*
X66675000Y-107289000D01*
X64305000Y-95149000D02*
X64305000Y-107289000D01*
X69045000Y-95149000D02*
X64305000Y-95149000D01*
X69045000Y-107289000D02*
X69045000Y-95149000D01*
X64305000Y-107289000D02*
X69045000Y-107289000D01*
X79629000Y-95039000D02*
X79629000Y-95149000D01*
X79629000Y-107399000D02*
X79629000Y-107289000D01*
X77259000Y-95149000D02*
X77259000Y-107289000D01*
X81999000Y-95149000D02*
X77259000Y-95149000D01*
X81999000Y-107289000D02*
X81999000Y-95149000D01*
X77259000Y-107289000D02*
X81999000Y-107289000D01*
X94802000Y-57344000D02*
X92567000Y-57344000D01*
X94802000Y-65084000D02*
X94802000Y-57344000D01*
X88332000Y-65084000D02*
X94802000Y-65084000D01*
X88332000Y-57344000D02*
X88332000Y-65084000D01*
X90567000Y-57344000D02*
X88332000Y-57344000D01*
X92567000Y-57344000D02*
G75*
G02X90567000Y-57344000I-1000000J0D01*
G01*
X78961064Y-82021000D02*
X77756936Y-82021000D01*
X78961064Y-83841000D02*
X77756936Y-83841000D01*
X90064000Y-75749564D02*
X90064000Y-74545436D01*
X88244000Y-75749564D02*
X88244000Y-74545436D01*
X90230354Y-91494000D02*
X90230354Y-92494000D01*
X89730354Y-91994000D02*
X90730354Y-91994000D01*
X100291000Y-94270000D02*
X100291000Y-95468000D01*
X100251000Y-94007000D02*
X100251000Y-95731000D01*
X100211000Y-93807000D02*
X100211000Y-95931000D01*
X100171000Y-93639000D02*
X100171000Y-96099000D01*
X100131000Y-93491000D02*
X100131000Y-96247000D01*
X100091000Y-93359000D02*
X100091000Y-96379000D01*
X100051000Y-93239000D02*
X100051000Y-96499000D01*
X100011000Y-93127000D02*
X100011000Y-96611000D01*
X99971000Y-93023000D02*
X99971000Y-96715000D01*
X99931000Y-92925000D02*
X99931000Y-96813000D01*
X99891000Y-92832000D02*
X99891000Y-96906000D01*
X99851000Y-92744000D02*
X99851000Y-96994000D01*
X99811000Y-92660000D02*
X99811000Y-97078000D01*
X99771000Y-92580000D02*
X99771000Y-97158000D01*
X99731000Y-92504000D02*
X99731000Y-97234000D01*
X99691000Y-92430000D02*
X99691000Y-97308000D01*
X99651000Y-92359000D02*
X99651000Y-97379000D01*
X99611000Y-92290000D02*
X99611000Y-97448000D01*
X99571000Y-92224000D02*
X99571000Y-97514000D01*
X99531000Y-92160000D02*
X99531000Y-97578000D01*
X99491000Y-92099000D02*
X99491000Y-97639000D01*
X99451000Y-92039000D02*
X99451000Y-97699000D01*
X99411000Y-91980000D02*
X99411000Y-97758000D01*
X99371000Y-91924000D02*
X99371000Y-97814000D01*
X99331000Y-91869000D02*
X99331000Y-97869000D01*
X99291000Y-91815000D02*
X99291000Y-97923000D01*
X99251000Y-91763000D02*
X99251000Y-97975000D01*
X99211000Y-91713000D02*
X99211000Y-98025000D01*
X99171000Y-91663000D02*
X99171000Y-98075000D01*
X99131000Y-91615000D02*
X99131000Y-98123000D01*
X99091000Y-91568000D02*
X99091000Y-98170000D01*
X99051000Y-91522000D02*
X99051000Y-98216000D01*
X99011000Y-91477000D02*
X99011000Y-98261000D01*
X98971000Y-91433000D02*
X98971000Y-98305000D01*
X98931000Y-96110000D02*
X98931000Y-98347000D01*
X98931000Y-91391000D02*
X98931000Y-93628000D01*
X98891000Y-96110000D02*
X98891000Y-98389000D01*
X98891000Y-91349000D02*
X98891000Y-93628000D01*
X98851000Y-96110000D02*
X98851000Y-98430000D01*
X98851000Y-91308000D02*
X98851000Y-93628000D01*
X98811000Y-96110000D02*
X98811000Y-98470000D01*
X98811000Y-91268000D02*
X98811000Y-93628000D01*
X98771000Y-96110000D02*
X98771000Y-98509000D01*
X98771000Y-91229000D02*
X98771000Y-93628000D01*
X98731000Y-96110000D02*
X98731000Y-98548000D01*
X98731000Y-91190000D02*
X98731000Y-93628000D01*
X98691000Y-96110000D02*
X98691000Y-98585000D01*
X98691000Y-91153000D02*
X98691000Y-93628000D01*
X98651000Y-96110000D02*
X98651000Y-98622000D01*
X98651000Y-91116000D02*
X98651000Y-93628000D01*
X98611000Y-96110000D02*
X98611000Y-98658000D01*
X98611000Y-91080000D02*
X98611000Y-93628000D01*
X98571000Y-96110000D02*
X98571000Y-98693000D01*
X98571000Y-91045000D02*
X98571000Y-93628000D01*
X98531000Y-96110000D02*
X98531000Y-98727000D01*
X98531000Y-91011000D02*
X98531000Y-93628000D01*
X98491000Y-96110000D02*
X98491000Y-98761000D01*
X98491000Y-90977000D02*
X98491000Y-93628000D01*
X98451000Y-96110000D02*
X98451000Y-98794000D01*
X98451000Y-90944000D02*
X98451000Y-93628000D01*
X98411000Y-96110000D02*
X98411000Y-98826000D01*
X98411000Y-90912000D02*
X98411000Y-93628000D01*
X98371000Y-96110000D02*
X98371000Y-98858000D01*
X98371000Y-90880000D02*
X98371000Y-93628000D01*
X98331000Y-96110000D02*
X98331000Y-98889000D01*
X98331000Y-90849000D02*
X98331000Y-93628000D01*
X98291000Y-96110000D02*
X98291000Y-98919000D01*
X98291000Y-90819000D02*
X98291000Y-93628000D01*
X98251000Y-96110000D02*
X98251000Y-98949000D01*
X98251000Y-90789000D02*
X98251000Y-93628000D01*
X98211000Y-96110000D02*
X98211000Y-98979000D01*
X98211000Y-90759000D02*
X98211000Y-93628000D01*
X98171000Y-96110000D02*
X98171000Y-99007000D01*
X98171000Y-90731000D02*
X98171000Y-93628000D01*
X98131000Y-96110000D02*
X98131000Y-99035000D01*
X98131000Y-90703000D02*
X98131000Y-93628000D01*
X98091000Y-96110000D02*
X98091000Y-99063000D01*
X98091000Y-90675000D02*
X98091000Y-93628000D01*
X98051000Y-96110000D02*
X98051000Y-99090000D01*
X98051000Y-90648000D02*
X98051000Y-93628000D01*
X98011000Y-96110000D02*
X98011000Y-99116000D01*
X98011000Y-90622000D02*
X98011000Y-93628000D01*
X97971000Y-96110000D02*
X97971000Y-99142000D01*
X97971000Y-90596000D02*
X97971000Y-93628000D01*
X97931000Y-96110000D02*
X97931000Y-99167000D01*
X97931000Y-90571000D02*
X97931000Y-93628000D01*
X97891000Y-96110000D02*
X97891000Y-99192000D01*
X97891000Y-90546000D02*
X97891000Y-93628000D01*
X97851000Y-96110000D02*
X97851000Y-99216000D01*
X97851000Y-90522000D02*
X97851000Y-93628000D01*
X97811000Y-96110000D02*
X97811000Y-99240000D01*
X97811000Y-90498000D02*
X97811000Y-93628000D01*
X97771000Y-96110000D02*
X97771000Y-99264000D01*
X97771000Y-90474000D02*
X97771000Y-93628000D01*
X97731000Y-96110000D02*
X97731000Y-99286000D01*
X97731000Y-90452000D02*
X97731000Y-93628000D01*
X97691000Y-96110000D02*
X97691000Y-99309000D01*
X97691000Y-90429000D02*
X97691000Y-93628000D01*
X97651000Y-96110000D02*
X97651000Y-99331000D01*
X97651000Y-90407000D02*
X97651000Y-93628000D01*
X97611000Y-96110000D02*
X97611000Y-99352000D01*
X97611000Y-90386000D02*
X97611000Y-93628000D01*
X97571000Y-96110000D02*
X97571000Y-99373000D01*
X97571000Y-90365000D02*
X97571000Y-93628000D01*
X97531000Y-96110000D02*
X97531000Y-99394000D01*
X97531000Y-90344000D02*
X97531000Y-93628000D01*
X97491000Y-96110000D02*
X97491000Y-99414000D01*
X97491000Y-90324000D02*
X97491000Y-93628000D01*
X97451000Y-96110000D02*
X97451000Y-99433000D01*
X97451000Y-90305000D02*
X97451000Y-93628000D01*
X97411000Y-96110000D02*
X97411000Y-99453000D01*
X97411000Y-90285000D02*
X97411000Y-93628000D01*
X97371000Y-96110000D02*
X97371000Y-99472000D01*
X97371000Y-90266000D02*
X97371000Y-93628000D01*
X97331000Y-96110000D02*
X97331000Y-99490000D01*
X97331000Y-90248000D02*
X97331000Y-93628000D01*
X97291000Y-96110000D02*
X97291000Y-99508000D01*
X97291000Y-90230000D02*
X97291000Y-93628000D01*
X97251000Y-96110000D02*
X97251000Y-99526000D01*
X97251000Y-90212000D02*
X97251000Y-93628000D01*
X97211000Y-96110000D02*
X97211000Y-99543000D01*
X97211000Y-90195000D02*
X97211000Y-93628000D01*
X97171000Y-96110000D02*
X97171000Y-99559000D01*
X97171000Y-90179000D02*
X97171000Y-93628000D01*
X97131000Y-96110000D02*
X97131000Y-99576000D01*
X97131000Y-90162000D02*
X97131000Y-93628000D01*
X97091000Y-96110000D02*
X97091000Y-99592000D01*
X97091000Y-90146000D02*
X97091000Y-93628000D01*
X97051000Y-96110000D02*
X97051000Y-99607000D01*
X97051000Y-90131000D02*
X97051000Y-93628000D01*
X97011000Y-96110000D02*
X97011000Y-99623000D01*
X97011000Y-90115000D02*
X97011000Y-93628000D01*
X96971000Y-96110000D02*
X96971000Y-99637000D01*
X96971000Y-90101000D02*
X96971000Y-93628000D01*
X96931000Y-96110000D02*
X96931000Y-99652000D01*
X96931000Y-90086000D02*
X96931000Y-93628000D01*
X96891000Y-96110000D02*
X96891000Y-99666000D01*
X96891000Y-90072000D02*
X96891000Y-93628000D01*
X96851000Y-96110000D02*
X96851000Y-99680000D01*
X96851000Y-90058000D02*
X96851000Y-93628000D01*
X96811000Y-96110000D02*
X96811000Y-99693000D01*
X96811000Y-90045000D02*
X96811000Y-93628000D01*
X96771000Y-96110000D02*
X96771000Y-99706000D01*
X96771000Y-90032000D02*
X96771000Y-93628000D01*
X96731000Y-96110000D02*
X96731000Y-99719000D01*
X96731000Y-90019000D02*
X96731000Y-93628000D01*
X96691000Y-96110000D02*
X96691000Y-99731000D01*
X96691000Y-90007000D02*
X96691000Y-93628000D01*
X96651000Y-96110000D02*
X96651000Y-99743000D01*
X96651000Y-89995000D02*
X96651000Y-93628000D01*
X96611000Y-96110000D02*
X96611000Y-99754000D01*
X96611000Y-89984000D02*
X96611000Y-93628000D01*
X96571000Y-96110000D02*
X96571000Y-99766000D01*
X96571000Y-89972000D02*
X96571000Y-93628000D01*
X96531000Y-96110000D02*
X96531000Y-99776000D01*
X96531000Y-89962000D02*
X96531000Y-93628000D01*
X96491000Y-96110000D02*
X96491000Y-99787000D01*
X96491000Y-89951000D02*
X96491000Y-93628000D01*
X96451000Y-89941000D02*
X96451000Y-99797000D01*
X96411000Y-89931000D02*
X96411000Y-99807000D01*
X96371000Y-89922000D02*
X96371000Y-99816000D01*
X96331000Y-89913000D02*
X96331000Y-99825000D01*
X96291000Y-89904000D02*
X96291000Y-99834000D01*
X96251000Y-89895000D02*
X96251000Y-99843000D01*
X96211000Y-89887000D02*
X96211000Y-99851000D01*
X96171000Y-89879000D02*
X96171000Y-99859000D01*
X96131000Y-89872000D02*
X96131000Y-99866000D01*
X96091000Y-89865000D02*
X96091000Y-99873000D01*
X96051000Y-89858000D02*
X96051000Y-99880000D01*
X96011000Y-89851000D02*
X96011000Y-99887000D01*
X95971000Y-89845000D02*
X95971000Y-99893000D01*
X95931000Y-89839000D02*
X95931000Y-99899000D01*
X95890000Y-89834000D02*
X95890000Y-99904000D01*
X95850000Y-89829000D02*
X95850000Y-99909000D01*
X95810000Y-89824000D02*
X95810000Y-99914000D01*
X95770000Y-89819000D02*
X95770000Y-99919000D01*
X95730000Y-89815000D02*
X95730000Y-99923000D01*
X95690000Y-89811000D02*
X95690000Y-99927000D01*
X95650000Y-89807000D02*
X95650000Y-99931000D01*
X95610000Y-89804000D02*
X95610000Y-99934000D01*
X95570000Y-89801000D02*
X95570000Y-99937000D01*
X95530000Y-89799000D02*
X95530000Y-99939000D01*
X95490000Y-89796000D02*
X95490000Y-99942000D01*
X95450000Y-89794000D02*
X95450000Y-99944000D01*
X95410000Y-89792000D02*
X95410000Y-99946000D01*
X95370000Y-89791000D02*
X95370000Y-99947000D01*
X95330000Y-89790000D02*
X95330000Y-99948000D01*
X95290000Y-89789000D02*
X95290000Y-99949000D01*
X95250000Y-89789000D02*
X95250000Y-99949000D01*
X95210000Y-89789000D02*
X95210000Y-99949000D01*
X100330000Y-94869000D02*
G75*
G03X100330000Y-94869000I-5120000J0D01*
G01*
X75038000Y-82006000D02*
X75038000Y-88016000D01*
X68218000Y-84256000D02*
X68218000Y-88016000D01*
X75038000Y-88016000D02*
X73778000Y-88016000D01*
X68218000Y-88016000D02*
X69478000Y-88016000D01*
X65386000Y-82006000D02*
X65386000Y-88016000D01*
X58566000Y-84256000D02*
X58566000Y-88016000D01*
X65386000Y-88016000D02*
X64126000Y-88016000D01*
X58566000Y-88016000D02*
X59826000Y-88016000D01*
X73679000Y-70394000D02*
X73679000Y-64384000D01*
X80499000Y-68144000D02*
X80499000Y-64384000D01*
X73679000Y-64384000D02*
X74939000Y-64384000D01*
X80499000Y-64384000D02*
X79239000Y-64384000D01*
X83312000Y-112649000D02*
X98552000Y-112649000D01*
X83312000Y-105029000D02*
X98552000Y-105029000D01*
X83312000Y-111379000D02*
X98552000Y-111379000D01*
X98552000Y-112649000D02*
X98552000Y-105029000D01*
X83312000Y-112649000D02*
X83312000Y-105029000D01*
X92135000Y-68139000D02*
X92135000Y-69469000D01*
X90805000Y-68139000D02*
X92135000Y-68139000D01*
X89535000Y-68139000D02*
X89535000Y-70799000D01*
X89535000Y-70799000D02*
X84395000Y-70799000D01*
X89535000Y-68139000D02*
X84395000Y-68139000D01*
X84395000Y-68139000D02*
X84395000Y-70799000D01*
X54864000Y-99798000D02*
X54864000Y-99028000D01*
X54864000Y-91718000D02*
X54864000Y-92488000D01*
X56234000Y-99028000D02*
X56234000Y-92488000D01*
X53494000Y-99028000D02*
X56234000Y-99028000D01*
X53494000Y-92488000D02*
X53494000Y-99028000D01*
X56234000Y-92488000D02*
X53494000Y-92488000D01*
X101621000Y-60800064D02*
X101621000Y-59595936D01*
X99801000Y-60800064D02*
X99801000Y-59595936D01*
X84834000Y-80447000D02*
X83374000Y-80447000D01*
X84834000Y-77287000D02*
X81674000Y-77287000D01*
X84834000Y-77287000D02*
X84834000Y-78217000D01*
X84834000Y-80447000D02*
X84834000Y-79517000D01*
X66610000Y-68259000D02*
X70550000Y-68259000D01*
X66610000Y-68019000D02*
X70550000Y-68019000D01*
X66610000Y-68139000D02*
X70550000Y-68139000D01*
X70550000Y-60454000D02*
X70220000Y-60454000D01*
X70550000Y-69594000D02*
X70550000Y-60454000D01*
X70220000Y-69594000D02*
X70550000Y-69594000D01*
X66610000Y-60454000D02*
X66940000Y-60454000D01*
X66610000Y-69594000D02*
X66610000Y-60454000D01*
X66940000Y-69594000D02*
X66610000Y-69594000D01*
X86928000Y-72330000D02*
X86928000Y-73660000D01*
X85598000Y-72330000D02*
X86928000Y-72330000D01*
X84328000Y-72330000D02*
X84328000Y-74990000D01*
X84328000Y-74990000D02*
X81728000Y-74990000D01*
X84328000Y-72330000D02*
X81728000Y-72330000D01*
X81728000Y-72330000D02*
X81728000Y-74990000D01*
X63905000Y-55880000D02*
X64675000Y-55880000D01*
X71985000Y-55880000D02*
X71215000Y-55880000D01*
X64675000Y-57250000D02*
X71215000Y-57250000D01*
X64675000Y-54510000D02*
X64675000Y-57250000D01*
X71215000Y-54510000D02*
X64675000Y-54510000D01*
X71215000Y-57250000D02*
X71215000Y-54510000D01*
X93797000Y-69721000D02*
X93797000Y-68261000D01*
X96957000Y-69721000D02*
X96957000Y-66561000D01*
X96957000Y-69721000D02*
X96027000Y-69721000D01*
X93797000Y-69721000D02*
X94727000Y-69721000D01*
X65984000Y-76960000D02*
X65984000Y-75500000D01*
X69144000Y-76960000D02*
X69144000Y-73800000D01*
X69144000Y-76960000D02*
X68214000Y-76960000D01*
X65984000Y-76960000D02*
X66914000Y-76960000D01*
X53151000Y-85919000D02*
X49211000Y-85919000D01*
X53151000Y-86159000D02*
X49211000Y-86159000D01*
X53151000Y-86039000D02*
X49211000Y-86039000D01*
X49211000Y-93724000D02*
X49541000Y-93724000D01*
X49211000Y-84584000D02*
X49211000Y-93724000D01*
X49541000Y-84584000D02*
X49211000Y-84584000D01*
X53151000Y-93724000D02*
X52821000Y-93724000D01*
X53151000Y-84584000D02*
X53151000Y-93724000D01*
X52821000Y-84584000D02*
X53151000Y-84584000D01*
X75597936Y-78888000D02*
X76802064Y-78888000D01*
X75597936Y-77068000D02*
X76802064Y-77068000D01*
X90230354Y-79556000D02*
X90230354Y-80556000D01*
X89730354Y-80056000D02*
X90730354Y-80056000D01*
X100291000Y-82332000D02*
X100291000Y-83530000D01*
X100251000Y-82069000D02*
X100251000Y-83793000D01*
X100211000Y-81869000D02*
X100211000Y-83993000D01*
X100171000Y-81701000D02*
X100171000Y-84161000D01*
X100131000Y-81553000D02*
X100131000Y-84309000D01*
X100091000Y-81421000D02*
X100091000Y-84441000D01*
X100051000Y-81301000D02*
X100051000Y-84561000D01*
X100011000Y-81189000D02*
X100011000Y-84673000D01*
X99971000Y-81085000D02*
X99971000Y-84777000D01*
X99931000Y-80987000D02*
X99931000Y-84875000D01*
X99891000Y-80894000D02*
X99891000Y-84968000D01*
X99851000Y-80806000D02*
X99851000Y-85056000D01*
X99811000Y-80722000D02*
X99811000Y-85140000D01*
X99771000Y-80642000D02*
X99771000Y-85220000D01*
X99731000Y-80566000D02*
X99731000Y-85296000D01*
X99691000Y-80492000D02*
X99691000Y-85370000D01*
X99651000Y-80421000D02*
X99651000Y-85441000D01*
X99611000Y-80352000D02*
X99611000Y-85510000D01*
X99571000Y-80286000D02*
X99571000Y-85576000D01*
X99531000Y-80222000D02*
X99531000Y-85640000D01*
X99491000Y-80161000D02*
X99491000Y-85701000D01*
X99451000Y-80101000D02*
X99451000Y-85761000D01*
X99411000Y-80042000D02*
X99411000Y-85820000D01*
X99371000Y-79986000D02*
X99371000Y-85876000D01*
X99331000Y-79931000D02*
X99331000Y-85931000D01*
X99291000Y-79877000D02*
X99291000Y-85985000D01*
X99251000Y-79825000D02*
X99251000Y-86037000D01*
X99211000Y-79775000D02*
X99211000Y-86087000D01*
X99171000Y-79725000D02*
X99171000Y-86137000D01*
X99131000Y-79677000D02*
X99131000Y-86185000D01*
X99091000Y-79630000D02*
X99091000Y-86232000D01*
X99051000Y-79584000D02*
X99051000Y-86278000D01*
X99011000Y-79539000D02*
X99011000Y-86323000D01*
X98971000Y-79495000D02*
X98971000Y-86367000D01*
X98931000Y-84172000D02*
X98931000Y-86409000D01*
X98931000Y-79453000D02*
X98931000Y-81690000D01*
X98891000Y-84172000D02*
X98891000Y-86451000D01*
X98891000Y-79411000D02*
X98891000Y-81690000D01*
X98851000Y-84172000D02*
X98851000Y-86492000D01*
X98851000Y-79370000D02*
X98851000Y-81690000D01*
X98811000Y-84172000D02*
X98811000Y-86532000D01*
X98811000Y-79330000D02*
X98811000Y-81690000D01*
X98771000Y-84172000D02*
X98771000Y-86571000D01*
X98771000Y-79291000D02*
X98771000Y-81690000D01*
X98731000Y-84172000D02*
X98731000Y-86610000D01*
X98731000Y-79252000D02*
X98731000Y-81690000D01*
X98691000Y-84172000D02*
X98691000Y-86647000D01*
X98691000Y-79215000D02*
X98691000Y-81690000D01*
X98651000Y-84172000D02*
X98651000Y-86684000D01*
X98651000Y-79178000D02*
X98651000Y-81690000D01*
X98611000Y-84172000D02*
X98611000Y-86720000D01*
X98611000Y-79142000D02*
X98611000Y-81690000D01*
X98571000Y-84172000D02*
X98571000Y-86755000D01*
X98571000Y-79107000D02*
X98571000Y-81690000D01*
X98531000Y-84172000D02*
X98531000Y-86789000D01*
X98531000Y-79073000D02*
X98531000Y-81690000D01*
X98491000Y-84172000D02*
X98491000Y-86823000D01*
X98491000Y-79039000D02*
X98491000Y-81690000D01*
X98451000Y-84172000D02*
X98451000Y-86856000D01*
X98451000Y-79006000D02*
X98451000Y-81690000D01*
X98411000Y-84172000D02*
X98411000Y-86888000D01*
X98411000Y-78974000D02*
X98411000Y-81690000D01*
X98371000Y-84172000D02*
X98371000Y-86920000D01*
X98371000Y-78942000D02*
X98371000Y-81690000D01*
X98331000Y-84172000D02*
X98331000Y-86951000D01*
X98331000Y-78911000D02*
X98331000Y-81690000D01*
X98291000Y-84172000D02*
X98291000Y-86981000D01*
X98291000Y-78881000D02*
X98291000Y-81690000D01*
X98251000Y-84172000D02*
X98251000Y-87011000D01*
X98251000Y-78851000D02*
X98251000Y-81690000D01*
X98211000Y-84172000D02*
X98211000Y-87041000D01*
X98211000Y-78821000D02*
X98211000Y-81690000D01*
X98171000Y-84172000D02*
X98171000Y-87069000D01*
X98171000Y-78793000D02*
X98171000Y-81690000D01*
X98131000Y-84172000D02*
X98131000Y-87097000D01*
X98131000Y-78765000D02*
X98131000Y-81690000D01*
X98091000Y-84172000D02*
X98091000Y-87125000D01*
X98091000Y-78737000D02*
X98091000Y-81690000D01*
X98051000Y-84172000D02*
X98051000Y-87152000D01*
X98051000Y-78710000D02*
X98051000Y-81690000D01*
X98011000Y-84172000D02*
X98011000Y-87178000D01*
X98011000Y-78684000D02*
X98011000Y-81690000D01*
X97971000Y-84172000D02*
X97971000Y-87204000D01*
X97971000Y-78658000D02*
X97971000Y-81690000D01*
X97931000Y-84172000D02*
X97931000Y-87229000D01*
X97931000Y-78633000D02*
X97931000Y-81690000D01*
X97891000Y-84172000D02*
X97891000Y-87254000D01*
X97891000Y-78608000D02*
X97891000Y-81690000D01*
X97851000Y-84172000D02*
X97851000Y-87278000D01*
X97851000Y-78584000D02*
X97851000Y-81690000D01*
X97811000Y-84172000D02*
X97811000Y-87302000D01*
X97811000Y-78560000D02*
X97811000Y-81690000D01*
X97771000Y-84172000D02*
X97771000Y-87326000D01*
X97771000Y-78536000D02*
X97771000Y-81690000D01*
X97731000Y-84172000D02*
X97731000Y-87348000D01*
X97731000Y-78514000D02*
X97731000Y-81690000D01*
X97691000Y-84172000D02*
X97691000Y-87371000D01*
X97691000Y-78491000D02*
X97691000Y-81690000D01*
X97651000Y-84172000D02*
X97651000Y-87393000D01*
X97651000Y-78469000D02*
X97651000Y-81690000D01*
X97611000Y-84172000D02*
X97611000Y-87414000D01*
X97611000Y-78448000D02*
X97611000Y-81690000D01*
X97571000Y-84172000D02*
X97571000Y-87435000D01*
X97571000Y-78427000D02*
X97571000Y-81690000D01*
X97531000Y-84172000D02*
X97531000Y-87456000D01*
X97531000Y-78406000D02*
X97531000Y-81690000D01*
X97491000Y-84172000D02*
X97491000Y-87476000D01*
X97491000Y-78386000D02*
X97491000Y-81690000D01*
X97451000Y-84172000D02*
X97451000Y-87495000D01*
X97451000Y-78367000D02*
X97451000Y-81690000D01*
X97411000Y-84172000D02*
X97411000Y-87515000D01*
X97411000Y-78347000D02*
X97411000Y-81690000D01*
X97371000Y-84172000D02*
X97371000Y-87534000D01*
X97371000Y-78328000D02*
X97371000Y-81690000D01*
X97331000Y-84172000D02*
X97331000Y-87552000D01*
X97331000Y-78310000D02*
X97331000Y-81690000D01*
X97291000Y-84172000D02*
X97291000Y-87570000D01*
X97291000Y-78292000D02*
X97291000Y-81690000D01*
X97251000Y-84172000D02*
X97251000Y-87588000D01*
X97251000Y-78274000D02*
X97251000Y-81690000D01*
X97211000Y-84172000D02*
X97211000Y-87605000D01*
X97211000Y-78257000D02*
X97211000Y-81690000D01*
X97171000Y-84172000D02*
X97171000Y-87621000D01*
X97171000Y-78241000D02*
X97171000Y-81690000D01*
X97131000Y-84172000D02*
X97131000Y-87638000D01*
X97131000Y-78224000D02*
X97131000Y-81690000D01*
X97091000Y-84172000D02*
X97091000Y-87654000D01*
X97091000Y-78208000D02*
X97091000Y-81690000D01*
X97051000Y-84172000D02*
X97051000Y-87669000D01*
X97051000Y-78193000D02*
X97051000Y-81690000D01*
X97011000Y-84172000D02*
X97011000Y-87685000D01*
X97011000Y-78177000D02*
X97011000Y-81690000D01*
X96971000Y-84172000D02*
X96971000Y-87699000D01*
X96971000Y-78163000D02*
X96971000Y-81690000D01*
X96931000Y-84172000D02*
X96931000Y-87714000D01*
X96931000Y-78148000D02*
X96931000Y-81690000D01*
X96891000Y-84172000D02*
X96891000Y-87728000D01*
X96891000Y-78134000D02*
X96891000Y-81690000D01*
X96851000Y-84172000D02*
X96851000Y-87742000D01*
X96851000Y-78120000D02*
X96851000Y-81690000D01*
X96811000Y-84172000D02*
X96811000Y-87755000D01*
X96811000Y-78107000D02*
X96811000Y-81690000D01*
X96771000Y-84172000D02*
X96771000Y-87768000D01*
X96771000Y-78094000D02*
X96771000Y-81690000D01*
X96731000Y-84172000D02*
X96731000Y-87781000D01*
X96731000Y-78081000D02*
X96731000Y-81690000D01*
X96691000Y-84172000D02*
X96691000Y-87793000D01*
X96691000Y-78069000D02*
X96691000Y-81690000D01*
X96651000Y-84172000D02*
X96651000Y-87805000D01*
X96651000Y-78057000D02*
X96651000Y-81690000D01*
X96611000Y-84172000D02*
X96611000Y-87816000D01*
X96611000Y-78046000D02*
X96611000Y-81690000D01*
X96571000Y-84172000D02*
X96571000Y-87828000D01*
X96571000Y-78034000D02*
X96571000Y-81690000D01*
X96531000Y-84172000D02*
X96531000Y-87838000D01*
X96531000Y-78024000D02*
X96531000Y-81690000D01*
X96491000Y-84172000D02*
X96491000Y-87849000D01*
X96491000Y-78013000D02*
X96491000Y-81690000D01*
X96451000Y-78003000D02*
X96451000Y-87859000D01*
X96411000Y-77993000D02*
X96411000Y-87869000D01*
X96371000Y-77984000D02*
X96371000Y-87878000D01*
X96331000Y-77975000D02*
X96331000Y-87887000D01*
X96291000Y-77966000D02*
X96291000Y-87896000D01*
X96251000Y-77957000D02*
X96251000Y-87905000D01*
X96211000Y-77949000D02*
X96211000Y-87913000D01*
X96171000Y-77941000D02*
X96171000Y-87921000D01*
X96131000Y-77934000D02*
X96131000Y-87928000D01*
X96091000Y-77927000D02*
X96091000Y-87935000D01*
X96051000Y-77920000D02*
X96051000Y-87942000D01*
X96011000Y-77913000D02*
X96011000Y-87949000D01*
X95971000Y-77907000D02*
X95971000Y-87955000D01*
X95931000Y-77901000D02*
X95931000Y-87961000D01*
X95890000Y-77896000D02*
X95890000Y-87966000D01*
X95850000Y-77891000D02*
X95850000Y-87971000D01*
X95810000Y-77886000D02*
X95810000Y-87976000D01*
X95770000Y-77881000D02*
X95770000Y-87981000D01*
X95730000Y-77877000D02*
X95730000Y-87985000D01*
X95690000Y-77873000D02*
X95690000Y-87989000D01*
X95650000Y-77869000D02*
X95650000Y-87993000D01*
X95610000Y-77866000D02*
X95610000Y-87996000D01*
X95570000Y-77863000D02*
X95570000Y-87999000D01*
X95530000Y-77861000D02*
X95530000Y-88001000D01*
X95490000Y-77858000D02*
X95490000Y-88004000D01*
X95450000Y-77856000D02*
X95450000Y-88006000D01*
X95410000Y-77854000D02*
X95410000Y-88008000D01*
X95370000Y-77853000D02*
X95370000Y-88009000D01*
X95330000Y-77852000D02*
X95330000Y-88010000D01*
X95290000Y-77851000D02*
X95290000Y-88011000D01*
X95250000Y-77851000D02*
X95250000Y-88011000D01*
X95210000Y-77851000D02*
X95210000Y-88011000D01*
X100330000Y-82931000D02*
G75*
G03X100330000Y-82931000I-5120000J0D01*
G01*
X78010936Y-60600000D02*
X79215064Y-60600000D01*
X78010936Y-58780000D02*
X79215064Y-58780000D01*
X60895000Y-68132000D02*
X64835000Y-68132000D01*
X60895000Y-67892000D02*
X64835000Y-67892000D01*
X60895000Y-68012000D02*
X64835000Y-68012000D01*
X64835000Y-60327000D02*
X64505000Y-60327000D01*
X64835000Y-69467000D02*
X64835000Y-60327000D01*
X64505000Y-69467000D02*
X64835000Y-69467000D01*
X60895000Y-60327000D02*
X61225000Y-60327000D01*
X60895000Y-69467000D02*
X60895000Y-60327000D01*
X61225000Y-69467000D02*
X60895000Y-69467000D01*
X58286000Y-36830000D02*
X73286000Y-36830000D01*
X73286000Y-36830000D02*
X73286000Y-51830000D01*
X73286000Y-51830000D02*
X58286000Y-51830000D01*
X58286000Y-51830000D02*
X58286000Y-36830000D01*
X65786000Y-37030000D02*
X64786000Y-38030000D01*
X65786000Y-37030000D02*
X66786000Y-38030000D01*
X83178000Y-36830000D02*
X98178000Y-36830000D01*
X98178000Y-36830000D02*
X98178000Y-51830000D01*
X98178000Y-51830000D02*
X83178000Y-51830000D01*
X83178000Y-51830000D02*
X83178000Y-36830000D01*
X90678000Y-37030000D02*
X89678000Y-38030000D01*
X90678000Y-37030000D02*
X91678000Y-38030000D01*
X75597936Y-74316000D02*
X76802064Y-74316000D01*
X75597936Y-72496000D02*
X76802064Y-72496000D01*
X79215064Y-54970000D02*
X78010936Y-54970000D01*
X79215064Y-56790000D02*
X78010936Y-56790000D01*
X85069000Y-95725064D02*
X85069000Y-94520936D01*
X86889000Y-95725064D02*
X86889000Y-94520936D01*
X80793000Y-89121064D02*
X80793000Y-87916936D01*
X78973000Y-89121064D02*
X78973000Y-87916936D01*
X77322000Y-51402064D02*
X77322000Y-50197936D01*
X79142000Y-51402064D02*
X79142000Y-50197936D01*
X94266936Y-54758000D02*
X95471064Y-54758000D01*
X94266936Y-52938000D02*
X95471064Y-52938000D01*
X89121064Y-52938000D02*
X87916936Y-52938000D01*
X89121064Y-54758000D02*
X87916936Y-54758000D01*
X100859000Y-68485936D02*
X100859000Y-69690064D01*
X99039000Y-68485936D02*
X99039000Y-69690064D01*
D10*
X82344380Y-41618238D02*
X81868190Y-41951571D01*
X82344380Y-42189666D02*
X81344380Y-42189666D01*
X81344380Y-41808714D01*
X81392000Y-41713476D01*
X81439619Y-41665857D01*
X81534857Y-41618238D01*
X81677714Y-41618238D01*
X81772952Y-41665857D01*
X81820571Y-41713476D01*
X81868190Y-41808714D01*
X81868190Y-42189666D01*
X81344380Y-41332523D02*
X82344380Y-40999190D01*
X81344380Y-40665857D01*
X82344380Y-39808714D02*
X82344380Y-40380142D01*
X82344380Y-40094428D02*
X81344380Y-40094428D01*
X81487238Y-40189666D01*
X81582476Y-40284904D01*
X81630095Y-40380142D01*
X56943666Y-81208571D02*
X56610333Y-81208571D01*
X56610333Y-81732380D02*
X56610333Y-80732380D01*
X57086523Y-80732380D01*
X57991285Y-81732380D02*
X57419857Y-81732380D01*
X57705571Y-81732380D02*
X57705571Y-80732380D01*
X57610333Y-80875238D01*
X57515095Y-80970476D01*
X57419857Y-81018095D01*
X70234380Y-101861857D02*
X69758190Y-102195190D01*
X70234380Y-102433285D02*
X69234380Y-102433285D01*
X69234380Y-102052333D01*
X69282000Y-101957095D01*
X69329619Y-101909476D01*
X69424857Y-101861857D01*
X69567714Y-101861857D01*
X69662952Y-101909476D01*
X69710571Y-101957095D01*
X69758190Y-102052333D01*
X69758190Y-102433285D01*
X70234380Y-100909476D02*
X70234380Y-101480904D01*
X70234380Y-101195190D02*
X69234380Y-101195190D01*
X69377238Y-101290428D01*
X69472476Y-101385666D01*
X69520095Y-101480904D01*
X69234380Y-100052333D02*
X69234380Y-100242809D01*
X69282000Y-100338047D01*
X69329619Y-100385666D01*
X69472476Y-100480904D01*
X69662952Y-100528523D01*
X70043904Y-100528523D01*
X70139142Y-100480904D01*
X70186761Y-100433285D01*
X70234380Y-100338047D01*
X70234380Y-100147571D01*
X70186761Y-100052333D01*
X70139142Y-100004714D01*
X70043904Y-99957095D01*
X69805809Y-99957095D01*
X69710571Y-100004714D01*
X69662952Y-100052333D01*
X69615333Y-100147571D01*
X69615333Y-100338047D01*
X69662952Y-100433285D01*
X69710571Y-100480904D01*
X69805809Y-100528523D01*
X57475380Y-101988857D02*
X56999190Y-102322190D01*
X57475380Y-102560285D02*
X56475380Y-102560285D01*
X56475380Y-102179333D01*
X56523000Y-102084095D01*
X56570619Y-102036476D01*
X56665857Y-101988857D01*
X56808714Y-101988857D01*
X56903952Y-102036476D01*
X56951571Y-102084095D01*
X56999190Y-102179333D01*
X56999190Y-102560285D01*
X57475380Y-101036476D02*
X57475380Y-101607904D01*
X57475380Y-101322190D02*
X56475380Y-101322190D01*
X56618238Y-101417428D01*
X56713476Y-101512666D01*
X56761095Y-101607904D01*
X56475380Y-100131714D02*
X56475380Y-100607904D01*
X56951571Y-100655523D01*
X56903952Y-100607904D01*
X56856333Y-100512666D01*
X56856333Y-100274571D01*
X56903952Y-100179333D01*
X56951571Y-100131714D01*
X57046809Y-100084095D01*
X57284904Y-100084095D01*
X57380142Y-100131714D01*
X57427761Y-100179333D01*
X57475380Y-100274571D01*
X57475380Y-100512666D01*
X57427761Y-100607904D01*
X57380142Y-100655523D01*
X63757380Y-101861857D02*
X63281190Y-102195190D01*
X63757380Y-102433285D02*
X62757380Y-102433285D01*
X62757380Y-102052333D01*
X62805000Y-101957095D01*
X62852619Y-101909476D01*
X62947857Y-101861857D01*
X63090714Y-101861857D01*
X63185952Y-101909476D01*
X63233571Y-101957095D01*
X63281190Y-102052333D01*
X63281190Y-102433285D01*
X63757380Y-100909476D02*
X63757380Y-101480904D01*
X63757380Y-101195190D02*
X62757380Y-101195190D01*
X62900238Y-101290428D01*
X62995476Y-101385666D01*
X63043095Y-101480904D01*
X63090714Y-100052333D02*
X63757380Y-100052333D01*
X62709761Y-100290428D02*
X63424047Y-100528523D01*
X63424047Y-99909476D01*
X76711380Y-101385666D02*
X76235190Y-101719000D01*
X76711380Y-101957095D02*
X75711380Y-101957095D01*
X75711380Y-101576142D01*
X75759000Y-101480904D01*
X75806619Y-101433285D01*
X75901857Y-101385666D01*
X76044714Y-101385666D01*
X76139952Y-101433285D01*
X76187571Y-101480904D01*
X76235190Y-101576142D01*
X76235190Y-101957095D01*
X75711380Y-100480904D02*
X75711380Y-100957095D01*
X76187571Y-101004714D01*
X76139952Y-100957095D01*
X76092333Y-100861857D01*
X76092333Y-100623761D01*
X76139952Y-100528523D01*
X76187571Y-100480904D01*
X76282809Y-100433285D01*
X76520904Y-100433285D01*
X76616142Y-100480904D01*
X76663761Y-100528523D01*
X76711380Y-100623761D01*
X76711380Y-100861857D01*
X76663761Y-100957095D01*
X76616142Y-101004714D01*
X90551095Y-55840380D02*
X90551095Y-56649904D01*
X90598714Y-56745142D01*
X90646333Y-56792761D01*
X90741571Y-56840380D01*
X90932047Y-56840380D01*
X91027285Y-56792761D01*
X91074904Y-56745142D01*
X91122523Y-56649904D01*
X91122523Y-55840380D01*
X92122523Y-56840380D02*
X91551095Y-56840380D01*
X91836809Y-56840380D02*
X91836809Y-55840380D01*
X91741571Y-55983238D01*
X91646333Y-56078476D01*
X91551095Y-56126095D01*
X77716142Y-85203380D02*
X77382809Y-84727190D01*
X77144714Y-85203380D02*
X77144714Y-84203380D01*
X77525666Y-84203380D01*
X77620904Y-84251000D01*
X77668523Y-84298619D01*
X77716142Y-84393857D01*
X77716142Y-84536714D01*
X77668523Y-84631952D01*
X77620904Y-84679571D01*
X77525666Y-84727190D01*
X77144714Y-84727190D01*
X78668523Y-85203380D02*
X78097095Y-85203380D01*
X78382809Y-85203380D02*
X78382809Y-84203380D01*
X78287571Y-84346238D01*
X78192333Y-84441476D01*
X78097095Y-84489095D01*
X79001857Y-84203380D02*
X79668523Y-84203380D01*
X79239952Y-85203380D01*
X91559142Y-75636380D02*
X91225809Y-75160190D01*
X90987714Y-75636380D02*
X90987714Y-74636380D01*
X91368666Y-74636380D01*
X91463904Y-74684000D01*
X91511523Y-74731619D01*
X91559142Y-74826857D01*
X91559142Y-74969714D01*
X91511523Y-75064952D01*
X91463904Y-75112571D01*
X91368666Y-75160190D01*
X90987714Y-75160190D01*
X92511523Y-75636380D02*
X91940095Y-75636380D01*
X92225809Y-75636380D02*
X92225809Y-74636380D01*
X92130571Y-74779238D01*
X92035333Y-74874476D01*
X91940095Y-74922095D01*
X92844857Y-74636380D02*
X93463904Y-74636380D01*
X93130571Y-75017333D01*
X93273428Y-75017333D01*
X93368666Y-75064952D01*
X93416285Y-75112571D01*
X93463904Y-75207809D01*
X93463904Y-75445904D01*
X93416285Y-75541142D01*
X93368666Y-75588761D01*
X93273428Y-75636380D01*
X92987714Y-75636380D01*
X92892476Y-75588761D01*
X92844857Y-75541142D01*
X100417333Y-91670142D02*
X100369714Y-91717761D01*
X100226857Y-91765380D01*
X100131619Y-91765380D01*
X99988761Y-91717761D01*
X99893523Y-91622523D01*
X99845904Y-91527285D01*
X99798285Y-91336809D01*
X99798285Y-91193952D01*
X99845904Y-91003476D01*
X99893523Y-90908238D01*
X99988761Y-90813000D01*
X100131619Y-90765380D01*
X100226857Y-90765380D01*
X100369714Y-90813000D01*
X100417333Y-90860619D01*
X101274476Y-91098714D02*
X101274476Y-91765380D01*
X101036380Y-90717761D02*
X100798285Y-91432047D01*
X101417333Y-91432047D01*
X69119761Y-81065619D02*
X69024523Y-81018000D01*
X68929285Y-80922761D01*
X68786428Y-80779904D01*
X68691190Y-80732285D01*
X68595952Y-80732285D01*
X68643571Y-80970380D02*
X68548333Y-80922761D01*
X68453095Y-80827523D01*
X68405476Y-80637047D01*
X68405476Y-80303714D01*
X68453095Y-80113238D01*
X68548333Y-80018000D01*
X68643571Y-79970380D01*
X68834047Y-79970380D01*
X68929285Y-80018000D01*
X69024523Y-80113238D01*
X69072142Y-80303714D01*
X69072142Y-80637047D01*
X69024523Y-80827523D01*
X68929285Y-80922761D01*
X68834047Y-80970380D01*
X68643571Y-80970380D01*
X69929285Y-80303714D02*
X69929285Y-80970380D01*
X69691190Y-79922761D02*
X69453095Y-80637047D01*
X70072142Y-80637047D01*
X64166761Y-81065619D02*
X64071523Y-81018000D01*
X63976285Y-80922761D01*
X63833428Y-80779904D01*
X63738190Y-80732285D01*
X63642952Y-80732285D01*
X63690571Y-80970380D02*
X63595333Y-80922761D01*
X63500095Y-80827523D01*
X63452476Y-80637047D01*
X63452476Y-80303714D01*
X63500095Y-80113238D01*
X63595333Y-80018000D01*
X63690571Y-79970380D01*
X63881047Y-79970380D01*
X63976285Y-80018000D01*
X64071523Y-80113238D01*
X64119142Y-80303714D01*
X64119142Y-80637047D01*
X64071523Y-80827523D01*
X63976285Y-80922761D01*
X63881047Y-80970380D01*
X63690571Y-80970380D01*
X64452476Y-79970380D02*
X65071523Y-79970380D01*
X64738190Y-80351333D01*
X64881047Y-80351333D01*
X64976285Y-80398952D01*
X65023904Y-80446571D01*
X65071523Y-80541809D01*
X65071523Y-80779904D01*
X65023904Y-80875142D01*
X64976285Y-80922761D01*
X64881047Y-80970380D01*
X64595333Y-80970380D01*
X64500095Y-80922761D01*
X64452476Y-80875142D01*
X81057761Y-64047619D02*
X80962523Y-64000000D01*
X80867285Y-63904761D01*
X80724428Y-63761904D01*
X80629190Y-63714285D01*
X80533952Y-63714285D01*
X80581571Y-63952380D02*
X80486333Y-63904761D01*
X80391095Y-63809523D01*
X80343476Y-63619047D01*
X80343476Y-63285714D01*
X80391095Y-63095238D01*
X80486333Y-63000000D01*
X80581571Y-62952380D01*
X80772047Y-62952380D01*
X80867285Y-63000000D01*
X80962523Y-63095238D01*
X81010142Y-63285714D01*
X81010142Y-63619047D01*
X80962523Y-63809523D01*
X80867285Y-63904761D01*
X80772047Y-63952380D01*
X80581571Y-63952380D01*
X81391095Y-63047619D02*
X81438714Y-63000000D01*
X81533952Y-62952380D01*
X81772047Y-62952380D01*
X81867285Y-63000000D01*
X81914904Y-63047619D01*
X81962523Y-63142857D01*
X81962523Y-63238095D01*
X81914904Y-63380952D01*
X81343476Y-63952380D01*
X81962523Y-63952380D01*
X81708666Y-110831380D02*
X81708666Y-111545666D01*
X81661047Y-111688523D01*
X81565809Y-111783761D01*
X81422952Y-111831380D01*
X81327714Y-111831380D01*
X82613428Y-111164714D02*
X82613428Y-111831380D01*
X82375333Y-110783761D02*
X82137238Y-111498047D01*
X82756285Y-111498047D01*
X90344666Y-71080380D02*
X90344666Y-71794666D01*
X90297047Y-71937523D01*
X90201809Y-72032761D01*
X90058952Y-72080380D01*
X89963714Y-72080380D01*
X90725619Y-71080380D02*
X91344666Y-71080380D01*
X91011333Y-71461333D01*
X91154190Y-71461333D01*
X91249428Y-71508952D01*
X91297047Y-71556571D01*
X91344666Y-71651809D01*
X91344666Y-71889904D01*
X91297047Y-71985142D01*
X91249428Y-72032761D01*
X91154190Y-72080380D01*
X90868476Y-72080380D01*
X90773238Y-72032761D01*
X90725619Y-71985142D01*
X52284333Y-100401380D02*
X51951000Y-99925190D01*
X51712904Y-100401380D02*
X51712904Y-99401380D01*
X52093857Y-99401380D01*
X52189095Y-99449000D01*
X52236714Y-99496619D01*
X52284333Y-99591857D01*
X52284333Y-99734714D01*
X52236714Y-99829952D01*
X52189095Y-99877571D01*
X52093857Y-99925190D01*
X51712904Y-99925190D01*
X53141476Y-99734714D02*
X53141476Y-100401380D01*
X52903380Y-99353761D02*
X52665285Y-100068047D01*
X53284333Y-100068047D01*
X99560142Y-64333380D02*
X99226809Y-63857190D01*
X98988714Y-64333380D02*
X98988714Y-63333380D01*
X99369666Y-63333380D01*
X99464904Y-63381000D01*
X99512523Y-63428619D01*
X99560142Y-63523857D01*
X99560142Y-63666714D01*
X99512523Y-63761952D01*
X99464904Y-63809571D01*
X99369666Y-63857190D01*
X98988714Y-63857190D01*
X100512523Y-64333380D02*
X99941095Y-64333380D01*
X100226809Y-64333380D02*
X100226809Y-63333380D01*
X100131571Y-63476238D01*
X100036333Y-63571476D01*
X99941095Y-63619095D01*
X101464904Y-64333380D02*
X100893476Y-64333380D01*
X101179190Y-64333380D02*
X101179190Y-63333380D01*
X101083952Y-63476238D01*
X100988714Y-63571476D01*
X100893476Y-63619095D01*
X84994761Y-81700619D02*
X84899523Y-81653000D01*
X84804285Y-81557761D01*
X84661428Y-81414904D01*
X84566190Y-81367285D01*
X84470952Y-81367285D01*
X84518571Y-81605380D02*
X84423333Y-81557761D01*
X84328095Y-81462523D01*
X84280476Y-81272047D01*
X84280476Y-80938714D01*
X84328095Y-80748238D01*
X84423333Y-80653000D01*
X84518571Y-80605380D01*
X84709047Y-80605380D01*
X84804285Y-80653000D01*
X84899523Y-80748238D01*
X84947142Y-80938714D01*
X84947142Y-81272047D01*
X84899523Y-81462523D01*
X84804285Y-81557761D01*
X84709047Y-81605380D01*
X84518571Y-81605380D01*
X85899523Y-81605380D02*
X85328095Y-81605380D01*
X85613809Y-81605380D02*
X85613809Y-80605380D01*
X85518571Y-80748238D01*
X85423333Y-80843476D01*
X85328095Y-80891095D01*
X70000904Y-73350380D02*
X70000904Y-72350380D01*
X70239000Y-72350380D01*
X70381857Y-72398000D01*
X70477095Y-72493238D01*
X70524714Y-72588476D01*
X70572333Y-72778952D01*
X70572333Y-72921809D01*
X70524714Y-73112285D01*
X70477095Y-73207523D01*
X70381857Y-73302761D01*
X70239000Y-73350380D01*
X70000904Y-73350380D01*
X71429476Y-72683714D02*
X71429476Y-73350380D01*
X71191380Y-72302761D02*
X70953285Y-73017047D01*
X71572333Y-73017047D01*
X66492380Y-70365904D02*
X65492380Y-70365904D01*
X66492380Y-69794476D02*
X65920952Y-70223047D01*
X65492380Y-69794476D02*
X66063809Y-70365904D01*
X84986904Y-76398380D02*
X84986904Y-75398380D01*
X85225000Y-75398380D01*
X85367857Y-75446000D01*
X85463095Y-75541238D01*
X85510714Y-75636476D01*
X85558333Y-75826952D01*
X85558333Y-75969809D01*
X85510714Y-76160285D01*
X85463095Y-76255523D01*
X85367857Y-76350761D01*
X85225000Y-76398380D01*
X84986904Y-76398380D01*
X86510714Y-76398380D02*
X85939285Y-76398380D01*
X86225000Y-76398380D02*
X86225000Y-75398380D01*
X86129761Y-75541238D01*
X86034523Y-75636476D01*
X85939285Y-75684095D01*
X68159333Y-54046380D02*
X67826000Y-53570190D01*
X67587904Y-54046380D02*
X67587904Y-53046380D01*
X67968857Y-53046380D01*
X68064095Y-53094000D01*
X68111714Y-53141619D01*
X68159333Y-53236857D01*
X68159333Y-53379714D01*
X68111714Y-53474952D01*
X68064095Y-53522571D01*
X67968857Y-53570190D01*
X67587904Y-53570190D01*
X68540285Y-53141619D02*
X68587904Y-53094000D01*
X68683142Y-53046380D01*
X68921238Y-53046380D01*
X69016476Y-53094000D01*
X69064095Y-53141619D01*
X69111714Y-53236857D01*
X69111714Y-53332095D01*
X69064095Y-53474952D01*
X68492666Y-54046380D01*
X69111714Y-54046380D01*
X95281761Y-73318619D02*
X95186523Y-73271000D01*
X95091285Y-73175761D01*
X94948428Y-73032904D01*
X94853190Y-72985285D01*
X94757952Y-72985285D01*
X94805571Y-73223380D02*
X94710333Y-73175761D01*
X94615095Y-73080523D01*
X94567476Y-72890047D01*
X94567476Y-72556714D01*
X94615095Y-72366238D01*
X94710333Y-72271000D01*
X94805571Y-72223380D01*
X94996047Y-72223380D01*
X95091285Y-72271000D01*
X95186523Y-72366238D01*
X95234142Y-72556714D01*
X95234142Y-72890047D01*
X95186523Y-73080523D01*
X95091285Y-73175761D01*
X94996047Y-73223380D01*
X94805571Y-73223380D01*
X96091285Y-72223380D02*
X95900809Y-72223380D01*
X95805571Y-72271000D01*
X95757952Y-72318619D01*
X95662714Y-72461476D01*
X95615095Y-72651952D01*
X95615095Y-73032904D01*
X95662714Y-73128142D01*
X95710333Y-73175761D01*
X95805571Y-73223380D01*
X95996047Y-73223380D01*
X96091285Y-73175761D01*
X96138904Y-73128142D01*
X96186523Y-73032904D01*
X96186523Y-72794809D01*
X96138904Y-72699571D01*
X96091285Y-72651952D01*
X95996047Y-72604333D01*
X95805571Y-72604333D01*
X95710333Y-72651952D01*
X95662714Y-72699571D01*
X95615095Y-72794809D01*
X70262761Y-77255619D02*
X70167523Y-77208000D01*
X70072285Y-77112761D01*
X69929428Y-76969904D01*
X69834190Y-76922285D01*
X69738952Y-76922285D01*
X69786571Y-77160380D02*
X69691333Y-77112761D01*
X69596095Y-77017523D01*
X69548476Y-76827047D01*
X69548476Y-76493714D01*
X69596095Y-76303238D01*
X69691333Y-76208000D01*
X69786571Y-76160380D01*
X69977047Y-76160380D01*
X70072285Y-76208000D01*
X70167523Y-76303238D01*
X70215142Y-76493714D01*
X70215142Y-76827047D01*
X70167523Y-77017523D01*
X70072285Y-77112761D01*
X69977047Y-77160380D01*
X69786571Y-77160380D01*
X71119904Y-76160380D02*
X70643714Y-76160380D01*
X70596095Y-76636571D01*
X70643714Y-76588952D01*
X70738952Y-76541333D01*
X70977047Y-76541333D01*
X71072285Y-76588952D01*
X71119904Y-76636571D01*
X71167523Y-76731809D01*
X71167523Y-76969904D01*
X71119904Y-77065142D01*
X71072285Y-77112761D01*
X70977047Y-77160380D01*
X70738952Y-77160380D01*
X70643714Y-77112761D01*
X70596095Y-77065142D01*
X50442904Y-97734380D02*
X50442904Y-96734380D01*
X50681000Y-96734380D01*
X50823857Y-96782000D01*
X50919095Y-96877238D01*
X50966714Y-96972476D01*
X51014333Y-97162952D01*
X51014333Y-97305809D01*
X50966714Y-97496285D01*
X50919095Y-97591523D01*
X50823857Y-97686761D01*
X50681000Y-97734380D01*
X50442904Y-97734380D01*
X51347666Y-96734380D02*
X51966714Y-96734380D01*
X51633380Y-97115333D01*
X51776238Y-97115333D01*
X51871476Y-97162952D01*
X51919095Y-97210571D01*
X51966714Y-97305809D01*
X51966714Y-97543904D01*
X51919095Y-97639142D01*
X51871476Y-97686761D01*
X51776238Y-97734380D01*
X51490523Y-97734380D01*
X51395285Y-97686761D01*
X51347666Y-97639142D01*
X53840095Y-84145380D02*
X53840095Y-83145380D01*
X54411523Y-84145380D02*
X53982952Y-83573952D01*
X54411523Y-83145380D02*
X53840095Y-83716809D01*
X76033333Y-80367142D02*
X75985714Y-80414761D01*
X75842857Y-80462380D01*
X75747619Y-80462380D01*
X75604761Y-80414761D01*
X75509523Y-80319523D01*
X75461904Y-80224285D01*
X75414285Y-80033809D01*
X75414285Y-79890952D01*
X75461904Y-79700476D01*
X75509523Y-79605238D01*
X75604761Y-79510000D01*
X75747619Y-79462380D01*
X75842857Y-79462380D01*
X75985714Y-79510000D01*
X76033333Y-79557619D01*
X76366666Y-79462380D02*
X76985714Y-79462380D01*
X76652380Y-79843333D01*
X76795238Y-79843333D01*
X76890476Y-79890952D01*
X76938095Y-79938571D01*
X76985714Y-80033809D01*
X76985714Y-80271904D01*
X76938095Y-80367142D01*
X76890476Y-80414761D01*
X76795238Y-80462380D01*
X76509523Y-80462380D01*
X76414285Y-80414761D01*
X76366666Y-80367142D01*
X100417333Y-79605142D02*
X100369714Y-79652761D01*
X100226857Y-79700380D01*
X100131619Y-79700380D01*
X99988761Y-79652761D01*
X99893523Y-79557523D01*
X99845904Y-79462285D01*
X99798285Y-79271809D01*
X99798285Y-79128952D01*
X99845904Y-78938476D01*
X99893523Y-78843238D01*
X99988761Y-78748000D01*
X100131619Y-78700380D01*
X100226857Y-78700380D01*
X100369714Y-78748000D01*
X100417333Y-78795619D01*
X100798285Y-78795619D02*
X100845904Y-78748000D01*
X100941142Y-78700380D01*
X101179238Y-78700380D01*
X101274476Y-78748000D01*
X101322095Y-78795619D01*
X101369714Y-78890857D01*
X101369714Y-78986095D01*
X101322095Y-79128952D01*
X100750666Y-79700380D01*
X101369714Y-79700380D01*
X82038833Y-60047142D02*
X81991214Y-60094761D01*
X81848357Y-60142380D01*
X81753119Y-60142380D01*
X81610261Y-60094761D01*
X81515023Y-59999523D01*
X81467404Y-59904285D01*
X81419785Y-59713809D01*
X81419785Y-59570952D01*
X81467404Y-59380476D01*
X81515023Y-59285238D01*
X81610261Y-59190000D01*
X81753119Y-59142380D01*
X81848357Y-59142380D01*
X81991214Y-59190000D01*
X82038833Y-59237619D01*
X82991214Y-60142380D02*
X82419785Y-60142380D01*
X82705500Y-60142380D02*
X82705500Y-59142380D01*
X82610261Y-59285238D01*
X82515023Y-59380476D01*
X82419785Y-59428095D01*
X64031904Y-73223380D02*
X64031904Y-72223380D01*
X64270000Y-72223380D01*
X64412857Y-72271000D01*
X64508095Y-72366238D01*
X64555714Y-72461476D01*
X64603333Y-72651952D01*
X64603333Y-72794809D01*
X64555714Y-72985285D01*
X64508095Y-73080523D01*
X64412857Y-73175761D01*
X64270000Y-73223380D01*
X64031904Y-73223380D01*
X64984285Y-72318619D02*
X65031904Y-72271000D01*
X65127142Y-72223380D01*
X65365238Y-72223380D01*
X65460476Y-72271000D01*
X65508095Y-72318619D01*
X65555714Y-72413857D01*
X65555714Y-72509095D01*
X65508095Y-72651952D01*
X64936666Y-73223380D01*
X65555714Y-73223380D01*
X60917380Y-70238904D02*
X59917380Y-70238904D01*
X60917380Y-69667476D02*
X60345952Y-70096047D01*
X59917380Y-69667476D02*
X60488809Y-70238904D01*
X56816666Y-50633380D02*
X56816666Y-51347666D01*
X56769047Y-51490523D01*
X56673809Y-51585761D01*
X56530952Y-51633380D01*
X56435714Y-51633380D01*
X57816666Y-51633380D02*
X57245238Y-51633380D01*
X57530952Y-51633380D02*
X57530952Y-50633380D01*
X57435714Y-50776238D01*
X57340476Y-50871476D01*
X57245238Y-50919095D01*
X81708666Y-50506380D02*
X81708666Y-51220666D01*
X81661047Y-51363523D01*
X81565809Y-51458761D01*
X81422952Y-51506380D01*
X81327714Y-51506380D01*
X82137238Y-50601619D02*
X82184857Y-50554000D01*
X82280095Y-50506380D01*
X82518190Y-50506380D01*
X82613428Y-50554000D01*
X82661047Y-50601619D01*
X82708666Y-50696857D01*
X82708666Y-50792095D01*
X82661047Y-50934952D01*
X82089619Y-51506380D01*
X82708666Y-51506380D01*
X76160333Y-75890380D02*
X75827000Y-75414190D01*
X75588904Y-75890380D02*
X75588904Y-74890380D01*
X75969857Y-74890380D01*
X76065095Y-74938000D01*
X76112714Y-74985619D01*
X76160333Y-75080857D01*
X76160333Y-75223714D01*
X76112714Y-75318952D01*
X76065095Y-75366571D01*
X75969857Y-75414190D01*
X75588904Y-75414190D01*
X77112714Y-75890380D02*
X76541285Y-75890380D01*
X76827000Y-75890380D02*
X76827000Y-74890380D01*
X76731761Y-75033238D01*
X76636523Y-75128476D01*
X76541285Y-75176095D01*
X82256333Y-56332380D02*
X81923000Y-55856190D01*
X81684904Y-56332380D02*
X81684904Y-55332380D01*
X82065857Y-55332380D01*
X82161095Y-55380000D01*
X82208714Y-55427619D01*
X82256333Y-55522857D01*
X82256333Y-55665714D01*
X82208714Y-55760952D01*
X82161095Y-55808571D01*
X82065857Y-55856190D01*
X81684904Y-55856190D01*
X82589666Y-55332380D02*
X83208714Y-55332380D01*
X82875380Y-55713333D01*
X83018238Y-55713333D01*
X83113476Y-55760952D01*
X83161095Y-55808571D01*
X83208714Y-55903809D01*
X83208714Y-56141904D01*
X83161095Y-56237142D01*
X83113476Y-56284761D01*
X83018238Y-56332380D01*
X82732523Y-56332380D01*
X82637285Y-56284761D01*
X82589666Y-56237142D01*
X86431380Y-98882166D02*
X85955190Y-99215500D01*
X86431380Y-99453595D02*
X85431380Y-99453595D01*
X85431380Y-99072642D01*
X85479000Y-98977404D01*
X85526619Y-98929785D01*
X85621857Y-98882166D01*
X85764714Y-98882166D01*
X85859952Y-98929785D01*
X85907571Y-98977404D01*
X85955190Y-99072642D01*
X85955190Y-99453595D01*
X85431380Y-98025023D02*
X85431380Y-98215500D01*
X85479000Y-98310738D01*
X85526619Y-98358357D01*
X85669476Y-98453595D01*
X85859952Y-98501214D01*
X86240904Y-98501214D01*
X86336142Y-98453595D01*
X86383761Y-98405976D01*
X86431380Y-98310738D01*
X86431380Y-98120261D01*
X86383761Y-98025023D01*
X86336142Y-97977404D01*
X86240904Y-97929785D01*
X86002809Y-97929785D01*
X85907571Y-97977404D01*
X85859952Y-98025023D01*
X85812333Y-98120261D01*
X85812333Y-98310738D01*
X85859952Y-98405976D01*
X85907571Y-98453595D01*
X86002809Y-98501214D01*
X82129333Y-88753880D02*
X81796000Y-88277690D01*
X81557904Y-88753880D02*
X81557904Y-87753880D01*
X81938857Y-87753880D01*
X82034095Y-87801500D01*
X82081714Y-87849119D01*
X82129333Y-87944357D01*
X82129333Y-88087214D01*
X82081714Y-88182452D01*
X82034095Y-88230071D01*
X81938857Y-88277690D01*
X81557904Y-88277690D01*
X82462666Y-87753880D02*
X83129333Y-87753880D01*
X82700761Y-88753880D01*
X75779333Y-51252380D02*
X75446000Y-50776190D01*
X75207904Y-51252380D02*
X75207904Y-50252380D01*
X75588857Y-50252380D01*
X75684095Y-50300000D01*
X75731714Y-50347619D01*
X75779333Y-50442857D01*
X75779333Y-50585714D01*
X75731714Y-50680952D01*
X75684095Y-50728571D01*
X75588857Y-50776190D01*
X75207904Y-50776190D01*
X76350761Y-50680952D02*
X76255523Y-50633333D01*
X76207904Y-50585714D01*
X76160285Y-50490476D01*
X76160285Y-50442857D01*
X76207904Y-50347619D01*
X76255523Y-50300000D01*
X76350761Y-50252380D01*
X76541238Y-50252380D01*
X76636476Y-50300000D01*
X76684095Y-50347619D01*
X76731714Y-50442857D01*
X76731714Y-50490476D01*
X76684095Y-50585714D01*
X76636476Y-50633333D01*
X76541238Y-50680952D01*
X76350761Y-50680952D01*
X76255523Y-50728571D01*
X76207904Y-50776190D01*
X76160285Y-50871428D01*
X76160285Y-51061904D01*
X76207904Y-51157142D01*
X76255523Y-51204761D01*
X76350761Y-51252380D01*
X76541238Y-51252380D01*
X76636476Y-51204761D01*
X76684095Y-51157142D01*
X76731714Y-51061904D01*
X76731714Y-50871428D01*
X76684095Y-50776190D01*
X76636476Y-50728571D01*
X76541238Y-50680952D01*
X94575333Y-56332380D02*
X94242000Y-55856190D01*
X94003904Y-56332380D02*
X94003904Y-55332380D01*
X94384857Y-55332380D01*
X94480095Y-55380000D01*
X94527714Y-55427619D01*
X94575333Y-55522857D01*
X94575333Y-55665714D01*
X94527714Y-55760952D01*
X94480095Y-55808571D01*
X94384857Y-55856190D01*
X94003904Y-55856190D01*
X95051523Y-56332380D02*
X95242000Y-56332380D01*
X95337238Y-56284761D01*
X95384857Y-56237142D01*
X95480095Y-56094285D01*
X95527714Y-55903809D01*
X95527714Y-55522857D01*
X95480095Y-55427619D01*
X95432476Y-55380000D01*
X95337238Y-55332380D01*
X95146761Y-55332380D01*
X95051523Y-55380000D01*
X95003904Y-55427619D01*
X94956285Y-55522857D01*
X94956285Y-55760952D01*
X95003904Y-55856190D01*
X95051523Y-55903809D01*
X95146761Y-55951428D01*
X95337238Y-55951428D01*
X95432476Y-55903809D01*
X95480095Y-55856190D01*
X95527714Y-55760952D01*
X87876142Y-56078380D02*
X87542809Y-55602190D01*
X87304714Y-56078380D02*
X87304714Y-55078380D01*
X87685666Y-55078380D01*
X87780904Y-55126000D01*
X87828523Y-55173619D01*
X87876142Y-55268857D01*
X87876142Y-55411714D01*
X87828523Y-55506952D01*
X87780904Y-55554571D01*
X87685666Y-55602190D01*
X87304714Y-55602190D01*
X88828523Y-56078380D02*
X88257095Y-56078380D01*
X88542809Y-56078380D02*
X88542809Y-55078380D01*
X88447571Y-55221238D01*
X88352333Y-55316476D01*
X88257095Y-55364095D01*
X89447571Y-55078380D02*
X89542809Y-55078380D01*
X89638047Y-55126000D01*
X89685666Y-55173619D01*
X89733285Y-55268857D01*
X89780904Y-55459333D01*
X89780904Y-55697428D01*
X89733285Y-55887904D01*
X89685666Y-55983142D01*
X89638047Y-56030761D01*
X89542809Y-56078380D01*
X89447571Y-56078380D01*
X89352333Y-56030761D01*
X89304714Y-55983142D01*
X89257095Y-55887904D01*
X89209476Y-55697428D01*
X89209476Y-55459333D01*
X89257095Y-55268857D01*
X89304714Y-55173619D01*
X89352333Y-55126000D01*
X89447571Y-55078380D01*
X99306142Y-72969380D02*
X98972809Y-72493190D01*
X98734714Y-72969380D02*
X98734714Y-71969380D01*
X99115666Y-71969380D01*
X99210904Y-72017000D01*
X99258523Y-72064619D01*
X99306142Y-72159857D01*
X99306142Y-72302714D01*
X99258523Y-72397952D01*
X99210904Y-72445571D01*
X99115666Y-72493190D01*
X98734714Y-72493190D01*
X100258523Y-72969380D02*
X99687095Y-72969380D01*
X99972809Y-72969380D02*
X99972809Y-71969380D01*
X99877571Y-72112238D01*
X99782333Y-72207476D01*
X99687095Y-72255095D01*
X100639476Y-72064619D02*
X100687095Y-72017000D01*
X100782333Y-71969380D01*
X101020428Y-71969380D01*
X101115666Y-72017000D01*
X101163285Y-72064619D01*
X101210904Y-72159857D01*
X101210904Y-72255095D01*
X101163285Y-72397952D01*
X100591857Y-72969380D01*
X101210904Y-72969380D01*
M02*
