%FSLAX45Y45*%
G04 Gerber Fmt 4.5, Leading zero omitted, Abs format (unit mm)*
G04 Created by KiCad (PCBNEW (5.1.2)-2) date 2019-08-08 10:38:03*
%MOMM*%
%LPD*%
G04 APERTURE LIST*
%ADD10C,0.050000*%
%ADD11C,0.200000*%
%ADD12C,0.300000*%
G04 APERTURE END LIST*
D10*
X4826000Y-11303000D02*
X4826000Y-3683000D01*
X10820400Y-11303000D02*
X4826000Y-11303000D01*
X10820400Y-3683000D02*
X10820400Y-11303000D01*
X4826000Y-3683000D02*
X10820400Y-3683000D01*
D11*
X10148200Y-3925200D02*
X10578200Y-4355200D01*
X10578200Y-3925200D02*
X10148200Y-4355200D01*
X10148200Y-10630800D02*
X10578200Y-11060800D01*
X10578200Y-10630800D02*
X10148200Y-11060800D01*
X5068200Y-3925200D02*
X5498200Y-4355200D01*
X5498200Y-3925200D02*
X5068200Y-4355200D01*
X5068200Y-10630800D02*
X5498200Y-11060800D01*
X5498200Y-10630800D02*
X5068200Y-11060800D01*
D12*
X5109928Y-11771214D02*
X5109928Y-11471214D01*
X5181357Y-11471214D01*
X5224214Y-11485500D01*
X5252786Y-11514071D01*
X5267071Y-11542643D01*
X5281357Y-11599786D01*
X5281357Y-11642643D01*
X5267071Y-11699786D01*
X5252786Y-11728357D01*
X5224214Y-11756929D01*
X5181357Y-11771214D01*
X5109928Y-11771214D01*
X5409928Y-11771214D02*
X5409928Y-11571214D01*
X5409928Y-11628357D02*
X5424214Y-11599786D01*
X5438500Y-11585500D01*
X5467071Y-11571214D01*
X5495643Y-11571214D01*
X5595643Y-11771214D02*
X5595643Y-11571214D01*
X5595643Y-11471214D02*
X5581357Y-11485500D01*
X5595643Y-11499786D01*
X5609928Y-11485500D01*
X5595643Y-11471214D01*
X5595643Y-11499786D01*
X5781357Y-11771214D02*
X5752786Y-11756929D01*
X5738500Y-11728357D01*
X5738500Y-11471214D01*
X5938500Y-11771214D02*
X5909928Y-11756929D01*
X5895643Y-11728357D01*
X5895643Y-11471214D01*
X6281357Y-11771214D02*
X6281357Y-11471214D01*
X6381357Y-11685500D01*
X6481357Y-11471214D01*
X6481357Y-11771214D01*
X6752786Y-11771214D02*
X6752786Y-11614071D01*
X6738500Y-11585500D01*
X6709928Y-11571214D01*
X6652786Y-11571214D01*
X6624214Y-11585500D01*
X6752786Y-11756929D02*
X6724214Y-11771214D01*
X6652786Y-11771214D01*
X6624214Y-11756929D01*
X6609928Y-11728357D01*
X6609928Y-11699786D01*
X6624214Y-11671214D01*
X6652786Y-11656929D01*
X6724214Y-11656929D01*
X6752786Y-11642643D01*
X6895643Y-11571214D02*
X6895643Y-11871214D01*
X6895643Y-11585500D02*
X6924214Y-11571214D01*
X6981357Y-11571214D01*
X7009928Y-11585500D01*
X7024214Y-11599786D01*
X7038500Y-11628357D01*
X7038500Y-11714071D01*
X7024214Y-11742643D01*
X7009928Y-11756929D01*
X6981357Y-11771214D01*
X6924214Y-11771214D01*
X6895643Y-11756929D01*
X7167071Y-11742643D02*
X7181357Y-11756929D01*
X7167071Y-11771214D01*
X7152786Y-11756929D01*
X7167071Y-11742643D01*
X7167071Y-11771214D01*
X7167071Y-11585500D02*
X7181357Y-11599786D01*
X7167071Y-11614071D01*
X7152786Y-11599786D01*
X7167071Y-11585500D01*
X7167071Y-11614071D01*
X4393500Y-12050500D02*
X4823500Y-12480500D01*
X4823500Y-12050500D02*
X4393500Y-12480500D01*
X5238500Y-12201214D02*
X5238500Y-12401214D01*
X5167071Y-12086929D02*
X5095643Y-12301214D01*
X5281357Y-12301214D01*
X5395643Y-12372643D02*
X5409928Y-12386929D01*
X5395643Y-12401214D01*
X5381357Y-12386929D01*
X5395643Y-12372643D01*
X5395643Y-12401214D01*
X5509928Y-12101214D02*
X5695643Y-12101214D01*
X5595643Y-12215500D01*
X5638500Y-12215500D01*
X5667071Y-12229786D01*
X5681357Y-12244071D01*
X5695643Y-12272643D01*
X5695643Y-12344071D01*
X5681357Y-12372643D01*
X5667071Y-12386929D01*
X5638500Y-12401214D01*
X5552786Y-12401214D01*
X5524214Y-12386929D01*
X5509928Y-12372643D01*
X5881357Y-12101214D02*
X5909928Y-12101214D01*
X5938500Y-12115500D01*
X5952786Y-12129786D01*
X5967071Y-12158357D01*
X5981357Y-12215500D01*
X5981357Y-12286929D01*
X5967071Y-12344071D01*
X5952786Y-12372643D01*
X5938500Y-12386929D01*
X5909928Y-12401214D01*
X5881357Y-12401214D01*
X5852786Y-12386929D01*
X5838500Y-12372643D01*
X5824214Y-12344071D01*
X5809928Y-12286929D01*
X5809928Y-12215500D01*
X5824214Y-12158357D01*
X5838500Y-12129786D01*
X5852786Y-12115500D01*
X5881357Y-12101214D01*
X6109928Y-12401214D02*
X6109928Y-12201214D01*
X6109928Y-12229786D02*
X6124214Y-12215500D01*
X6152786Y-12201214D01*
X6195643Y-12201214D01*
X6224214Y-12215500D01*
X6238500Y-12244071D01*
X6238500Y-12401214D01*
X6238500Y-12244071D02*
X6252786Y-12215500D01*
X6281357Y-12201214D01*
X6324214Y-12201214D01*
X6352786Y-12215500D01*
X6367071Y-12244071D01*
X6367071Y-12401214D01*
X6509928Y-12401214D02*
X6509928Y-12201214D01*
X6509928Y-12229786D02*
X6524214Y-12215500D01*
X6552786Y-12201214D01*
X6595643Y-12201214D01*
X6624214Y-12215500D01*
X6638500Y-12244071D01*
X6638500Y-12401214D01*
X6638500Y-12244071D02*
X6652786Y-12215500D01*
X6681357Y-12201214D01*
X6724214Y-12201214D01*
X6752786Y-12215500D01*
X6767071Y-12244071D01*
X6767071Y-12401214D01*
X7352786Y-12086929D02*
X7095643Y-12472643D01*
X7738500Y-12101214D02*
X7767071Y-12101214D01*
X7795643Y-12115500D01*
X7809928Y-12129786D01*
X7824214Y-12158357D01*
X7838500Y-12215500D01*
X7838500Y-12286929D01*
X7824214Y-12344071D01*
X7809928Y-12372643D01*
X7795643Y-12386929D01*
X7767071Y-12401214D01*
X7738500Y-12401214D01*
X7709928Y-12386929D01*
X7695643Y-12372643D01*
X7681357Y-12344071D01*
X7667071Y-12286929D01*
X7667071Y-12215500D01*
X7681357Y-12158357D01*
X7695643Y-12129786D01*
X7709928Y-12115500D01*
X7738500Y-12101214D01*
X7967071Y-12372643D02*
X7981357Y-12386929D01*
X7967071Y-12401214D01*
X7952786Y-12386929D01*
X7967071Y-12372643D01*
X7967071Y-12401214D01*
X8267071Y-12401214D02*
X8095643Y-12401214D01*
X8181357Y-12401214D02*
X8181357Y-12101214D01*
X8152786Y-12144071D01*
X8124214Y-12172643D01*
X8095643Y-12186929D01*
X8524214Y-12101214D02*
X8467071Y-12101214D01*
X8438500Y-12115500D01*
X8424214Y-12129786D01*
X8395643Y-12172643D01*
X8381357Y-12229786D01*
X8381357Y-12344071D01*
X8395643Y-12372643D01*
X8409928Y-12386929D01*
X8438500Y-12401214D01*
X8495643Y-12401214D01*
X8524214Y-12386929D01*
X8538500Y-12372643D01*
X8552786Y-12344071D01*
X8552786Y-12272643D01*
X8538500Y-12244071D01*
X8524214Y-12229786D01*
X8495643Y-12215500D01*
X8438500Y-12215500D01*
X8409928Y-12229786D01*
X8395643Y-12244071D01*
X8381357Y-12272643D01*
X8695643Y-12401214D02*
X8752786Y-12401214D01*
X8781357Y-12386929D01*
X8795643Y-12372643D01*
X8824214Y-12329786D01*
X8838500Y-12272643D01*
X8838500Y-12158357D01*
X8824214Y-12129786D01*
X8809928Y-12115500D01*
X8781357Y-12101214D01*
X8724214Y-12101214D01*
X8695643Y-12115500D01*
X8681357Y-12129786D01*
X8667071Y-12158357D01*
X8667071Y-12229786D01*
X8681357Y-12258357D01*
X8695643Y-12272643D01*
X8724214Y-12286929D01*
X8781357Y-12286929D01*
X8809928Y-12272643D01*
X8824214Y-12258357D01*
X8838500Y-12229786D01*
X8952786Y-12101214D02*
X8952786Y-12158357D01*
X9067071Y-12101214D02*
X9067071Y-12158357D01*
X9509928Y-12515500D02*
X9495643Y-12501214D01*
X9467071Y-12458357D01*
X9452786Y-12429786D01*
X9438500Y-12386929D01*
X9424214Y-12315500D01*
X9424214Y-12258357D01*
X9438500Y-12186929D01*
X9452786Y-12144071D01*
X9467071Y-12115500D01*
X9495643Y-12072643D01*
X9509928Y-12058357D01*
X9752786Y-12201214D02*
X9752786Y-12401214D01*
X9681357Y-12086929D02*
X9609928Y-12301214D01*
X9795643Y-12301214D01*
X10138500Y-12401214D02*
X10138500Y-12101214D01*
X10267071Y-12401214D02*
X10267071Y-12244071D01*
X10252786Y-12215500D01*
X10224214Y-12201214D01*
X10181357Y-12201214D01*
X10152786Y-12215500D01*
X10138500Y-12229786D01*
X10452786Y-12401214D02*
X10424214Y-12386929D01*
X10409928Y-12372643D01*
X10395643Y-12344071D01*
X10395643Y-12258357D01*
X10409928Y-12229786D01*
X10424214Y-12215500D01*
X10452786Y-12201214D01*
X10495643Y-12201214D01*
X10524214Y-12215500D01*
X10538500Y-12229786D01*
X10552786Y-12258357D01*
X10552786Y-12344071D01*
X10538500Y-12372643D01*
X10524214Y-12386929D01*
X10495643Y-12401214D01*
X10452786Y-12401214D01*
X10724214Y-12401214D02*
X10695643Y-12386929D01*
X10681357Y-12358357D01*
X10681357Y-12101214D01*
X10952786Y-12386929D02*
X10924214Y-12401214D01*
X10867071Y-12401214D01*
X10838500Y-12386929D01*
X10824214Y-12358357D01*
X10824214Y-12244071D01*
X10838500Y-12215500D01*
X10867071Y-12201214D01*
X10924214Y-12201214D01*
X10952786Y-12215500D01*
X10967071Y-12244071D01*
X10967071Y-12272643D01*
X10824214Y-12301214D01*
X11081357Y-12386929D02*
X11109928Y-12401214D01*
X11167071Y-12401214D01*
X11195643Y-12386929D01*
X11209928Y-12358357D01*
X11209928Y-12344071D01*
X11195643Y-12315500D01*
X11167071Y-12301214D01*
X11124214Y-12301214D01*
X11095643Y-12286929D01*
X11081357Y-12258357D01*
X11081357Y-12244071D01*
X11095643Y-12215500D01*
X11124214Y-12201214D01*
X11167071Y-12201214D01*
X11195643Y-12215500D01*
X11309928Y-12515500D02*
X11324214Y-12501214D01*
X11352786Y-12458357D01*
X11367071Y-12429786D01*
X11381357Y-12386929D01*
X11395643Y-12315500D01*
X11395643Y-12258357D01*
X11381357Y-12186929D01*
X11367071Y-12144071D01*
X11352786Y-12115500D01*
X11324214Y-12072643D01*
X11309928Y-12058357D01*
X11852786Y-12515500D02*
X11838500Y-12501214D01*
X11809928Y-12458357D01*
X11795643Y-12429786D01*
X11781357Y-12386929D01*
X11767071Y-12315500D01*
X11767071Y-12258357D01*
X11781357Y-12186929D01*
X11795643Y-12144071D01*
X11809928Y-12115500D01*
X11838500Y-12072643D01*
X11852786Y-12058357D01*
X11967071Y-12201214D02*
X11967071Y-12401214D01*
X11967071Y-12229786D02*
X11981357Y-12215500D01*
X12009928Y-12201214D01*
X12052786Y-12201214D01*
X12081357Y-12215500D01*
X12095643Y-12244071D01*
X12095643Y-12401214D01*
X12281357Y-12401214D02*
X12252786Y-12386929D01*
X12238500Y-12372643D01*
X12224214Y-12344071D01*
X12224214Y-12258357D01*
X12238500Y-12229786D01*
X12252786Y-12215500D01*
X12281357Y-12201214D01*
X12324214Y-12201214D01*
X12352786Y-12215500D01*
X12367071Y-12229786D01*
X12381357Y-12258357D01*
X12381357Y-12344071D01*
X12367071Y-12372643D01*
X12352786Y-12386929D01*
X12324214Y-12401214D01*
X12281357Y-12401214D01*
X12467071Y-12201214D02*
X12581357Y-12201214D01*
X12509928Y-12101214D02*
X12509928Y-12358357D01*
X12524214Y-12386929D01*
X12552786Y-12401214D01*
X12581357Y-12401214D01*
X12909928Y-12201214D02*
X12909928Y-12501214D01*
X12909928Y-12215500D02*
X12938500Y-12201214D01*
X12995643Y-12201214D01*
X13024214Y-12215500D01*
X13038500Y-12229786D01*
X13052786Y-12258357D01*
X13052786Y-12344071D01*
X13038500Y-12372643D01*
X13024214Y-12386929D01*
X12995643Y-12401214D01*
X12938500Y-12401214D01*
X12909928Y-12386929D01*
X13224214Y-12401214D02*
X13195643Y-12386929D01*
X13181357Y-12358357D01*
X13181357Y-12101214D01*
X13467071Y-12401214D02*
X13467071Y-12244071D01*
X13452786Y-12215500D01*
X13424214Y-12201214D01*
X13367071Y-12201214D01*
X13338500Y-12215500D01*
X13467071Y-12386929D02*
X13438500Y-12401214D01*
X13367071Y-12401214D01*
X13338500Y-12386929D01*
X13324214Y-12358357D01*
X13324214Y-12329786D01*
X13338500Y-12301214D01*
X13367071Y-12286929D01*
X13438500Y-12286929D01*
X13467071Y-12272643D01*
X13567071Y-12201214D02*
X13681357Y-12201214D01*
X13609928Y-12101214D02*
X13609928Y-12358357D01*
X13624214Y-12386929D01*
X13652786Y-12401214D01*
X13681357Y-12401214D01*
X13895643Y-12386929D02*
X13867071Y-12401214D01*
X13809928Y-12401214D01*
X13781357Y-12386929D01*
X13767071Y-12358357D01*
X13767071Y-12244071D01*
X13781357Y-12215500D01*
X13809928Y-12201214D01*
X13867071Y-12201214D01*
X13895643Y-12215500D01*
X13909928Y-12244071D01*
X13909928Y-12272643D01*
X13767071Y-12301214D01*
X14167071Y-12401214D02*
X14167071Y-12101214D01*
X14167071Y-12386929D02*
X14138500Y-12401214D01*
X14081357Y-12401214D01*
X14052786Y-12386929D01*
X14038500Y-12372643D01*
X14024214Y-12344071D01*
X14024214Y-12258357D01*
X14038500Y-12229786D01*
X14052786Y-12215500D01*
X14081357Y-12201214D01*
X14138500Y-12201214D01*
X14167071Y-12215500D01*
X14281357Y-12515500D02*
X14295643Y-12501214D01*
X14324214Y-12458357D01*
X14338500Y-12429786D01*
X14352786Y-12386929D01*
X14367071Y-12315500D01*
X14367071Y-12258357D01*
X14352786Y-12186929D01*
X14338500Y-12144071D01*
X14324214Y-12115500D01*
X14295643Y-12072643D01*
X14281357Y-12058357D01*
M02*
