G04 #@! TF.GenerationSoftware,KiCad,Pcbnew,(5.1.2)-2*
G04 #@! TF.CreationDate,2019-08-08T10:37:34+12:00*
G04 #@! TF.ProjectId,Shutter_Driver,53687574-7465-4725-9f44-72697665722e,rev?*
G04 #@! TF.SameCoordinates,Original*
G04 #@! TF.FileFunction,Soldermask,Bot*
G04 #@! TF.FilePolarity,Negative*
%FSLAX46Y46*%
G04 Gerber Fmt 4.6, Leading zero omitted, Abs format (unit mm)*
G04 Created by KiCad (PCBNEW (5.1.2)-2) date 2019-08-08 10:37:34*
%MOMM*%
%LPD*%
G04 APERTURE LIST*
%ADD10C,0.100000*%
G04 APERTURE END LIST*
D10*
G36*
X104274007Y-106341582D02*
G01*
X104674563Y-106507498D01*
X104674565Y-106507499D01*
X105035056Y-106748371D01*
X105341629Y-107054944D01*
X105582501Y-107415435D01*
X105582502Y-107415437D01*
X105748418Y-107815993D01*
X105833000Y-108241219D01*
X105833000Y-108674781D01*
X105748418Y-109100007D01*
X105669136Y-109291410D01*
X105582501Y-109500565D01*
X105341629Y-109861056D01*
X105035056Y-110167629D01*
X104674565Y-110408501D01*
X104674564Y-110408502D01*
X104674563Y-110408502D01*
X104274007Y-110574418D01*
X103848781Y-110659000D01*
X103415219Y-110659000D01*
X102989993Y-110574418D01*
X102589437Y-110408502D01*
X102589436Y-110408502D01*
X102589435Y-110408501D01*
X102228944Y-110167629D01*
X101922371Y-109861056D01*
X101681499Y-109500565D01*
X101594864Y-109291410D01*
X101515582Y-109100007D01*
X101431000Y-108674781D01*
X101431000Y-108241219D01*
X101515582Y-107815993D01*
X101681498Y-107415437D01*
X101681499Y-107415435D01*
X101922371Y-107054944D01*
X102228944Y-106748371D01*
X102589435Y-106507499D01*
X102589437Y-106507498D01*
X102989993Y-106341582D01*
X103415219Y-106257000D01*
X103848781Y-106257000D01*
X104274007Y-106341582D01*
X104274007Y-106341582D01*
G37*
G36*
X53474007Y-106341582D02*
G01*
X53874563Y-106507498D01*
X53874565Y-106507499D01*
X54235056Y-106748371D01*
X54541629Y-107054944D01*
X54782501Y-107415435D01*
X54782502Y-107415437D01*
X54948418Y-107815993D01*
X55033000Y-108241219D01*
X55033000Y-108674781D01*
X54948418Y-109100007D01*
X54869136Y-109291410D01*
X54782501Y-109500565D01*
X54541629Y-109861056D01*
X54235056Y-110167629D01*
X53874565Y-110408501D01*
X53874564Y-110408502D01*
X53874563Y-110408502D01*
X53474007Y-110574418D01*
X53048781Y-110659000D01*
X52615219Y-110659000D01*
X52189993Y-110574418D01*
X51789437Y-110408502D01*
X51789436Y-110408502D01*
X51789435Y-110408501D01*
X51428944Y-110167629D01*
X51122371Y-109861056D01*
X50881499Y-109500565D01*
X50794864Y-109291410D01*
X50715582Y-109100007D01*
X50631000Y-108674781D01*
X50631000Y-108241219D01*
X50715582Y-107815993D01*
X50881498Y-107415437D01*
X50881499Y-107415435D01*
X51122371Y-107054944D01*
X51428944Y-106748371D01*
X51789435Y-106507499D01*
X51789437Y-106507498D01*
X52189993Y-106341582D01*
X52615219Y-106257000D01*
X53048781Y-106257000D01*
X53474007Y-106341582D01*
X53474007Y-106341582D01*
G37*
G36*
X91234585Y-107317802D02*
G01*
X91384410Y-107347604D01*
X91666674Y-107464521D01*
X91920705Y-107634259D01*
X92136741Y-107850295D01*
X92306479Y-108104326D01*
X92423396Y-108386590D01*
X92423396Y-108386591D01*
X92480721Y-108674780D01*
X92483000Y-108686240D01*
X92483000Y-108991760D01*
X92423396Y-109291410D01*
X92306479Y-109573674D01*
X92136741Y-109827705D01*
X91920705Y-110043741D01*
X91666674Y-110213479D01*
X91384410Y-110330396D01*
X91234585Y-110360198D01*
X91084761Y-110390000D01*
X90779239Y-110390000D01*
X90629415Y-110360198D01*
X90479590Y-110330396D01*
X90197326Y-110213479D01*
X89943295Y-110043741D01*
X89727259Y-109827705D01*
X89557521Y-109573674D01*
X89440604Y-109291410D01*
X89381000Y-108991760D01*
X89381000Y-108686240D01*
X89383280Y-108674780D01*
X89440604Y-108386591D01*
X89440604Y-108386590D01*
X89557521Y-108104326D01*
X89727259Y-107850295D01*
X89943295Y-107634259D01*
X90197326Y-107464521D01*
X90479590Y-107347604D01*
X90629415Y-107317802D01*
X90779239Y-107288000D01*
X91084761Y-107288000D01*
X91234585Y-107317802D01*
X91234585Y-107317802D01*
G37*
G36*
X96314585Y-107317802D02*
G01*
X96464410Y-107347604D01*
X96746674Y-107464521D01*
X97000705Y-107634259D01*
X97216741Y-107850295D01*
X97386479Y-108104326D01*
X97503396Y-108386590D01*
X97503396Y-108386591D01*
X97560721Y-108674780D01*
X97563000Y-108686240D01*
X97563000Y-108991760D01*
X97503396Y-109291410D01*
X97386479Y-109573674D01*
X97216741Y-109827705D01*
X97000705Y-110043741D01*
X96746674Y-110213479D01*
X96464410Y-110330396D01*
X96314585Y-110360198D01*
X96164761Y-110390000D01*
X95859239Y-110390000D01*
X95709415Y-110360198D01*
X95559590Y-110330396D01*
X95277326Y-110213479D01*
X95023295Y-110043741D01*
X94807259Y-109827705D01*
X94637521Y-109573674D01*
X94520604Y-109291410D01*
X94461000Y-108991760D01*
X94461000Y-108686240D01*
X94463280Y-108674780D01*
X94520604Y-108386591D01*
X94520604Y-108386590D01*
X94637521Y-108104326D01*
X94807259Y-107850295D01*
X95023295Y-107634259D01*
X95277326Y-107464521D01*
X95559590Y-107347604D01*
X95709415Y-107317802D01*
X95859239Y-107288000D01*
X96164761Y-107288000D01*
X96314585Y-107317802D01*
X96314585Y-107317802D01*
G37*
G36*
X87403000Y-110390000D02*
G01*
X84301000Y-110390000D01*
X84301000Y-107288000D01*
X87403000Y-107288000D01*
X87403000Y-110390000D01*
X87403000Y-110390000D01*
G37*
G36*
X60553773Y-107634259D02*
G01*
X60562903Y-107636075D01*
X60790571Y-107730378D01*
X60995466Y-107867285D01*
X61169715Y-108041534D01*
X61303141Y-108241220D01*
X61306623Y-108246431D01*
X61400925Y-108474097D01*
X61449000Y-108715786D01*
X61449000Y-108962214D01*
X61400925Y-109203903D01*
X61364679Y-109291410D01*
X61306622Y-109431571D01*
X61169715Y-109636466D01*
X60995466Y-109810715D01*
X60790571Y-109947622D01*
X60790570Y-109947623D01*
X60790569Y-109947623D01*
X60562903Y-110041925D01*
X60321214Y-110090000D01*
X60074786Y-110090000D01*
X59833097Y-110041925D01*
X59605431Y-109947623D01*
X59605430Y-109947623D01*
X59605429Y-109947622D01*
X59400534Y-109810715D01*
X59226285Y-109636466D01*
X59089378Y-109431571D01*
X59031322Y-109291410D01*
X58995075Y-109203903D01*
X58947000Y-108962214D01*
X58947000Y-108715786D01*
X58995075Y-108474097D01*
X59089377Y-108246431D01*
X59092859Y-108241220D01*
X59226285Y-108041534D01*
X59400534Y-107867285D01*
X59605429Y-107730378D01*
X59833097Y-107636075D01*
X59842227Y-107634259D01*
X60074786Y-107588000D01*
X60321214Y-107588000D01*
X60553773Y-107634259D01*
X60553773Y-107634259D01*
G37*
G36*
X67030773Y-107634259D02*
G01*
X67039903Y-107636075D01*
X67267571Y-107730378D01*
X67472466Y-107867285D01*
X67646715Y-108041534D01*
X67780141Y-108241220D01*
X67783623Y-108246431D01*
X67877925Y-108474097D01*
X67926000Y-108715786D01*
X67926000Y-108962214D01*
X67877925Y-109203903D01*
X67841679Y-109291410D01*
X67783622Y-109431571D01*
X67646715Y-109636466D01*
X67472466Y-109810715D01*
X67267571Y-109947622D01*
X67267570Y-109947623D01*
X67267569Y-109947623D01*
X67039903Y-110041925D01*
X66798214Y-110090000D01*
X66551786Y-110090000D01*
X66310097Y-110041925D01*
X66082431Y-109947623D01*
X66082430Y-109947623D01*
X66082429Y-109947622D01*
X65877534Y-109810715D01*
X65703285Y-109636466D01*
X65566378Y-109431571D01*
X65508322Y-109291410D01*
X65472075Y-109203903D01*
X65424000Y-108962214D01*
X65424000Y-108715786D01*
X65472075Y-108474097D01*
X65566377Y-108246431D01*
X65569859Y-108241220D01*
X65703285Y-108041534D01*
X65877534Y-107867285D01*
X66082429Y-107730378D01*
X66310097Y-107636075D01*
X66319227Y-107634259D01*
X66551786Y-107588000D01*
X66798214Y-107588000D01*
X67030773Y-107634259D01*
X67030773Y-107634259D01*
G37*
G36*
X73507773Y-107634259D02*
G01*
X73516903Y-107636075D01*
X73744571Y-107730378D01*
X73949466Y-107867285D01*
X74123715Y-108041534D01*
X74257141Y-108241220D01*
X74260623Y-108246431D01*
X74354925Y-108474097D01*
X74403000Y-108715786D01*
X74403000Y-108962214D01*
X74354925Y-109203903D01*
X74318679Y-109291410D01*
X74260622Y-109431571D01*
X74123715Y-109636466D01*
X73949466Y-109810715D01*
X73744571Y-109947622D01*
X73744570Y-109947623D01*
X73744569Y-109947623D01*
X73516903Y-110041925D01*
X73275214Y-110090000D01*
X73028786Y-110090000D01*
X72787097Y-110041925D01*
X72559431Y-109947623D01*
X72559430Y-109947623D01*
X72559429Y-109947622D01*
X72354534Y-109810715D01*
X72180285Y-109636466D01*
X72043378Y-109431571D01*
X71985322Y-109291410D01*
X71949075Y-109203903D01*
X71901000Y-108962214D01*
X71901000Y-108715786D01*
X71949075Y-108474097D01*
X72043377Y-108246431D01*
X72046859Y-108241220D01*
X72180285Y-108041534D01*
X72354534Y-107867285D01*
X72559429Y-107730378D01*
X72787097Y-107636075D01*
X72796227Y-107634259D01*
X73028786Y-107588000D01*
X73275214Y-107588000D01*
X73507773Y-107634259D01*
X73507773Y-107634259D01*
G37*
G36*
X79984773Y-107634259D02*
G01*
X79993903Y-107636075D01*
X80221571Y-107730378D01*
X80426466Y-107867285D01*
X80600715Y-108041534D01*
X80734141Y-108241220D01*
X80737623Y-108246431D01*
X80831925Y-108474097D01*
X80880000Y-108715786D01*
X80880000Y-108962214D01*
X80831925Y-109203903D01*
X80795679Y-109291410D01*
X80737622Y-109431571D01*
X80600715Y-109636466D01*
X80426466Y-109810715D01*
X80221571Y-109947622D01*
X80221570Y-109947623D01*
X80221569Y-109947623D01*
X79993903Y-110041925D01*
X79752214Y-110090000D01*
X79505786Y-110090000D01*
X79264097Y-110041925D01*
X79036431Y-109947623D01*
X79036430Y-109947623D01*
X79036429Y-109947622D01*
X78831534Y-109810715D01*
X78657285Y-109636466D01*
X78520378Y-109431571D01*
X78462322Y-109291410D01*
X78426075Y-109203903D01*
X78378000Y-108962214D01*
X78378000Y-108715786D01*
X78426075Y-108474097D01*
X78520377Y-108246431D01*
X78523859Y-108241220D01*
X78657285Y-108041534D01*
X78831534Y-107867285D01*
X79036429Y-107730378D01*
X79264097Y-107636075D01*
X79273227Y-107634259D01*
X79505786Y-107588000D01*
X79752214Y-107588000D01*
X79984773Y-107634259D01*
X79984773Y-107634259D01*
G37*
G36*
X55030823Y-99999313D02*
G01*
X55191242Y-100047976D01*
X55323906Y-100118886D01*
X55339078Y-100126996D01*
X55468659Y-100233341D01*
X55575004Y-100362922D01*
X55575005Y-100362924D01*
X55654024Y-100510758D01*
X55702687Y-100671177D01*
X55719117Y-100838000D01*
X55702687Y-101004823D01*
X55654024Y-101165242D01*
X55583114Y-101297906D01*
X55575004Y-101313078D01*
X55468659Y-101442659D01*
X55339078Y-101549004D01*
X55339076Y-101549005D01*
X55191242Y-101628024D01*
X55030823Y-101676687D01*
X54905804Y-101689000D01*
X54822196Y-101689000D01*
X54697177Y-101676687D01*
X54536758Y-101628024D01*
X54388924Y-101549005D01*
X54388922Y-101549004D01*
X54259341Y-101442659D01*
X54152996Y-101313078D01*
X54144886Y-101297906D01*
X54073976Y-101165242D01*
X54025313Y-101004823D01*
X54008883Y-100838000D01*
X54025313Y-100671177D01*
X54073976Y-100510758D01*
X54152995Y-100362924D01*
X54152996Y-100362922D01*
X54259341Y-100233341D01*
X54388922Y-100126996D01*
X54404094Y-100118886D01*
X54536758Y-100047976D01*
X54697177Y-99999313D01*
X54822196Y-99987000D01*
X54905804Y-99987000D01*
X55030823Y-99999313D01*
X55030823Y-99999313D01*
G37*
G36*
X98016564Y-93858389D02*
G01*
X98207833Y-93937615D01*
X98207835Y-93937616D01*
X98225701Y-93949554D01*
X98379973Y-94052635D01*
X98526365Y-94199027D01*
X98641385Y-94371167D01*
X98720611Y-94562436D01*
X98761000Y-94765484D01*
X98761000Y-94972516D01*
X98720611Y-95175564D01*
X98683575Y-95264976D01*
X98641384Y-95366835D01*
X98526365Y-95538973D01*
X98379973Y-95685365D01*
X98207835Y-95800384D01*
X98207834Y-95800385D01*
X98207833Y-95800385D01*
X98016564Y-95879611D01*
X97813516Y-95920000D01*
X97606484Y-95920000D01*
X97403436Y-95879611D01*
X97212167Y-95800385D01*
X97212166Y-95800385D01*
X97212165Y-95800384D01*
X97040027Y-95685365D01*
X96893635Y-95538973D01*
X96778616Y-95366835D01*
X96736425Y-95264976D01*
X96699389Y-95175564D01*
X96659000Y-94972516D01*
X96659000Y-94765484D01*
X96699389Y-94562436D01*
X96778615Y-94371167D01*
X96893635Y-94199027D01*
X97040027Y-94052635D01*
X97194299Y-93949554D01*
X97212165Y-93937616D01*
X97212167Y-93937615D01*
X97403436Y-93858389D01*
X97606484Y-93818000D01*
X97813516Y-93818000D01*
X98016564Y-93858389D01*
X98016564Y-93858389D01*
G37*
G36*
X93761000Y-95920000D02*
G01*
X91659000Y-95920000D01*
X91659000Y-93818000D01*
X93761000Y-93818000D01*
X93761000Y-95920000D01*
X93761000Y-95920000D01*
G37*
G36*
X51358861Y-92793498D02*
G01*
X51465446Y-92803995D01*
X51738960Y-92886965D01*
X51738963Y-92886966D01*
X51991028Y-93021698D01*
X51991029Y-93021699D01*
X51991033Y-93021701D01*
X52211976Y-93203024D01*
X52393299Y-93423967D01*
X52393301Y-93423971D01*
X52393302Y-93423972D01*
X52528034Y-93676037D01*
X52528035Y-93676040D01*
X52611005Y-93949554D01*
X52639020Y-94234000D01*
X52611005Y-94518446D01*
X52537619Y-94760366D01*
X52528034Y-94791963D01*
X52497012Y-94850000D01*
X52393299Y-95044033D01*
X52211976Y-95264976D01*
X51991033Y-95446299D01*
X51991029Y-95446301D01*
X51991028Y-95446302D01*
X51738963Y-95581034D01*
X51738960Y-95581035D01*
X51465446Y-95664005D01*
X51358861Y-95674502D01*
X51252278Y-95685000D01*
X51109722Y-95685000D01*
X51003139Y-95674502D01*
X50896554Y-95664005D01*
X50623040Y-95581035D01*
X50623037Y-95581034D01*
X50370972Y-95446302D01*
X50370971Y-95446301D01*
X50370967Y-95446299D01*
X50150024Y-95264976D01*
X49968701Y-95044033D01*
X49864988Y-94850000D01*
X49833966Y-94791963D01*
X49824381Y-94760366D01*
X49750995Y-94518446D01*
X49722980Y-94234000D01*
X49750995Y-93949554D01*
X49833965Y-93676040D01*
X49833966Y-93676037D01*
X49968698Y-93423972D01*
X49968699Y-93423971D01*
X49968701Y-93423967D01*
X50150024Y-93203024D01*
X50370967Y-93021701D01*
X50370971Y-93021699D01*
X50370972Y-93021698D01*
X50623037Y-92886966D01*
X50623040Y-92886965D01*
X50896554Y-92803995D01*
X51003139Y-92793498D01*
X51109722Y-92783000D01*
X51252278Y-92783000D01*
X51358861Y-92793498D01*
X51358861Y-92793498D01*
G37*
G36*
X79874239Y-92366101D02*
G01*
X80110053Y-92437634D01*
X80327381Y-92553799D01*
X80517871Y-92710129D01*
X80674201Y-92900619D01*
X80790366Y-93117947D01*
X80861899Y-93353761D01*
X80886053Y-93599000D01*
X80861899Y-93844239D01*
X80790366Y-94080053D01*
X80674201Y-94297381D01*
X80517871Y-94487871D01*
X80327381Y-94644201D01*
X80110053Y-94760366D01*
X79874239Y-94831899D01*
X79690457Y-94850000D01*
X79567543Y-94850000D01*
X79383761Y-94831899D01*
X79147947Y-94760366D01*
X78930619Y-94644201D01*
X78740129Y-94487871D01*
X78583799Y-94297381D01*
X78467634Y-94080053D01*
X78396101Y-93844239D01*
X78371947Y-93599000D01*
X78396101Y-93353761D01*
X78467634Y-93117947D01*
X78583799Y-92900619D01*
X78740129Y-92710129D01*
X78930619Y-92553799D01*
X79147947Y-92437634D01*
X79383761Y-92366101D01*
X79567543Y-92348000D01*
X79690457Y-92348000D01*
X79874239Y-92366101D01*
X79874239Y-92366101D01*
G37*
G36*
X60443239Y-92366101D02*
G01*
X60679053Y-92437634D01*
X60896381Y-92553799D01*
X61086871Y-92710129D01*
X61243201Y-92900619D01*
X61359366Y-93117947D01*
X61430899Y-93353761D01*
X61455053Y-93599000D01*
X61430899Y-93844239D01*
X61359366Y-94080053D01*
X61243201Y-94297381D01*
X61086871Y-94487871D01*
X60896381Y-94644201D01*
X60679053Y-94760366D01*
X60443239Y-94831899D01*
X60259457Y-94850000D01*
X60136543Y-94850000D01*
X59952761Y-94831899D01*
X59716947Y-94760366D01*
X59499619Y-94644201D01*
X59309129Y-94487871D01*
X59152799Y-94297381D01*
X59036634Y-94080053D01*
X58965101Y-93844239D01*
X58940947Y-93599000D01*
X58965101Y-93353761D01*
X59036634Y-93117947D01*
X59152799Y-92900619D01*
X59309129Y-92710129D01*
X59499619Y-92553799D01*
X59716947Y-92437634D01*
X59952761Y-92366101D01*
X60136543Y-92348000D01*
X60259457Y-92348000D01*
X60443239Y-92366101D01*
X60443239Y-92366101D01*
G37*
G36*
X66920239Y-92366101D02*
G01*
X67156053Y-92437634D01*
X67373381Y-92553799D01*
X67563871Y-92710129D01*
X67720201Y-92900619D01*
X67836366Y-93117947D01*
X67907899Y-93353761D01*
X67932053Y-93599000D01*
X67907899Y-93844239D01*
X67836366Y-94080053D01*
X67720201Y-94297381D01*
X67563871Y-94487871D01*
X67373381Y-94644201D01*
X67156053Y-94760366D01*
X66920239Y-94831899D01*
X66736457Y-94850000D01*
X66613543Y-94850000D01*
X66429761Y-94831899D01*
X66193947Y-94760366D01*
X65976619Y-94644201D01*
X65786129Y-94487871D01*
X65629799Y-94297381D01*
X65513634Y-94080053D01*
X65442101Y-93844239D01*
X65417947Y-93599000D01*
X65442101Y-93353761D01*
X65513634Y-93117947D01*
X65629799Y-92900619D01*
X65786129Y-92710129D01*
X65976619Y-92553799D01*
X66193947Y-92437634D01*
X66429761Y-92366101D01*
X66613543Y-92348000D01*
X66736457Y-92348000D01*
X66920239Y-92366101D01*
X66920239Y-92366101D01*
G37*
G36*
X73397239Y-92366101D02*
G01*
X73633053Y-92437634D01*
X73850381Y-92553799D01*
X74040871Y-92710129D01*
X74197201Y-92900619D01*
X74313366Y-93117947D01*
X74384899Y-93353761D01*
X74409053Y-93599000D01*
X74384899Y-93844239D01*
X74313366Y-94080053D01*
X74197201Y-94297381D01*
X74040871Y-94487871D01*
X73850381Y-94644201D01*
X73633053Y-94760366D01*
X73397239Y-94831899D01*
X73213457Y-94850000D01*
X73090543Y-94850000D01*
X72906761Y-94831899D01*
X72670947Y-94760366D01*
X72453619Y-94644201D01*
X72263129Y-94487871D01*
X72106799Y-94297381D01*
X71990634Y-94080053D01*
X71919101Y-93844239D01*
X71894947Y-93599000D01*
X71919101Y-93353761D01*
X71990634Y-93117947D01*
X72106799Y-92900619D01*
X72263129Y-92710129D01*
X72453619Y-92553799D01*
X72670947Y-92437634D01*
X72906761Y-92366101D01*
X73090543Y-92348000D01*
X73213457Y-92348000D01*
X73397239Y-92366101D01*
X73397239Y-92366101D01*
G37*
G36*
X55112228Y-89859703D02*
G01*
X55267100Y-89923853D01*
X55406481Y-90016985D01*
X55525015Y-90135519D01*
X55618147Y-90274900D01*
X55682297Y-90429772D01*
X55715000Y-90594184D01*
X55715000Y-90761816D01*
X55682297Y-90926228D01*
X55618147Y-91081100D01*
X55525015Y-91220481D01*
X55406481Y-91339015D01*
X55267100Y-91432147D01*
X55112228Y-91496297D01*
X54947816Y-91529000D01*
X54780184Y-91529000D01*
X54615772Y-91496297D01*
X54460900Y-91432147D01*
X54321519Y-91339015D01*
X54202985Y-91220481D01*
X54109853Y-91081100D01*
X54045703Y-90926228D01*
X54013000Y-90761816D01*
X54013000Y-90594184D01*
X54045703Y-90429772D01*
X54109853Y-90274900D01*
X54202985Y-90135519D01*
X54321519Y-90016985D01*
X54460900Y-89923853D01*
X54615772Y-89859703D01*
X54780184Y-89827000D01*
X54947816Y-89827000D01*
X55112228Y-89859703D01*
X55112228Y-89859703D01*
G37*
G36*
X52632000Y-85525000D02*
G01*
X49730000Y-85525000D01*
X49730000Y-82623000D01*
X52632000Y-82623000D01*
X52632000Y-85525000D01*
X52632000Y-85525000D01*
G37*
G36*
X93761000Y-83982000D02*
G01*
X91659000Y-83982000D01*
X91659000Y-81880000D01*
X93761000Y-81880000D01*
X93761000Y-83982000D01*
X93761000Y-83982000D01*
G37*
G36*
X98016564Y-81920389D02*
G01*
X98207833Y-81999615D01*
X98207835Y-81999616D01*
X98379973Y-82114635D01*
X98526365Y-82261027D01*
X98641385Y-82433167D01*
X98720611Y-82624436D01*
X98761000Y-82827484D01*
X98761000Y-83034516D01*
X98720611Y-83237564D01*
X98641385Y-83428833D01*
X98641384Y-83428835D01*
X98526365Y-83600973D01*
X98379973Y-83747365D01*
X98207835Y-83862384D01*
X98207834Y-83862385D01*
X98207833Y-83862385D01*
X98016564Y-83941611D01*
X97813516Y-83982000D01*
X97606484Y-83982000D01*
X97403436Y-83941611D01*
X97212167Y-83862385D01*
X97212166Y-83862385D01*
X97212165Y-83862384D01*
X97040027Y-83747365D01*
X96893635Y-83600973D01*
X96778616Y-83428835D01*
X96778615Y-83428833D01*
X96699389Y-83237564D01*
X96659000Y-83034516D01*
X96659000Y-82827484D01*
X96699389Y-82624436D01*
X96778615Y-82433167D01*
X96893635Y-82261027D01*
X97040027Y-82114635D01*
X97212165Y-81999616D01*
X97212167Y-81999615D01*
X97403436Y-81920389D01*
X97606484Y-81880000D01*
X97813516Y-81880000D01*
X98016564Y-81920389D01*
X98016564Y-81920389D01*
G37*
G36*
X54912585Y-73415802D02*
G01*
X55062410Y-73445604D01*
X55344674Y-73562521D01*
X55598705Y-73732259D01*
X55814741Y-73948295D01*
X55984479Y-74202326D01*
X56101396Y-74484590D01*
X56161000Y-74784240D01*
X56161000Y-75089760D01*
X56101396Y-75389410D01*
X55984479Y-75671674D01*
X55814741Y-75925705D01*
X55598705Y-76141741D01*
X55344674Y-76311479D01*
X55062410Y-76428396D01*
X54912585Y-76458198D01*
X54762761Y-76488000D01*
X54457239Y-76488000D01*
X54307415Y-76458198D01*
X54157590Y-76428396D01*
X53875326Y-76311479D01*
X53621295Y-76141741D01*
X53405259Y-75925705D01*
X53235521Y-75671674D01*
X53118604Y-75389410D01*
X53059000Y-75089760D01*
X53059000Y-74784240D01*
X53118604Y-74484590D01*
X53235521Y-74202326D01*
X53405259Y-73948295D01*
X53621295Y-73732259D01*
X53875326Y-73562521D01*
X54157590Y-73445604D01*
X54307415Y-73415802D01*
X54457239Y-73386000D01*
X54762761Y-73386000D01*
X54912585Y-73415802D01*
X54912585Y-73415802D01*
G37*
G36*
X83168442Y-72765518D02*
G01*
X83234627Y-72772037D01*
X83404466Y-72823557D01*
X83560991Y-72907222D01*
X83596729Y-72936552D01*
X83698186Y-73019814D01*
X83781448Y-73121271D01*
X83810778Y-73157009D01*
X83894443Y-73313534D01*
X83945963Y-73483373D01*
X83963359Y-73660000D01*
X83945963Y-73836627D01*
X83894443Y-74006466D01*
X83810778Y-74162991D01*
X83781448Y-74198729D01*
X83698186Y-74300186D01*
X83596729Y-74383448D01*
X83560991Y-74412778D01*
X83404466Y-74496443D01*
X83234627Y-74547963D01*
X83168442Y-74554482D01*
X83102260Y-74561000D01*
X83013740Y-74561000D01*
X82947558Y-74554482D01*
X82881373Y-74547963D01*
X82711534Y-74496443D01*
X82555009Y-74412778D01*
X82519271Y-74383448D01*
X82417814Y-74300186D01*
X82334552Y-74198729D01*
X82305222Y-74162991D01*
X82221557Y-74006466D01*
X82170037Y-73836627D01*
X82152641Y-73660000D01*
X82170037Y-73483373D01*
X82221557Y-73313534D01*
X82305222Y-73157009D01*
X82334552Y-73121271D01*
X82417814Y-73019814D01*
X82519271Y-72936552D01*
X82555009Y-72907222D01*
X82711534Y-72823557D01*
X82881373Y-72772037D01*
X82947558Y-72765518D01*
X83013740Y-72759000D01*
X83102260Y-72759000D01*
X83168442Y-72765518D01*
X83168442Y-72765518D01*
G37*
G36*
X86499000Y-74561000D02*
G01*
X84697000Y-74561000D01*
X84697000Y-72759000D01*
X86499000Y-72759000D01*
X86499000Y-74561000D01*
X86499000Y-74561000D01*
G37*
G36*
X70031000Y-71555000D02*
G01*
X67129000Y-71555000D01*
X67129000Y-68653000D01*
X70031000Y-68653000D01*
X70031000Y-71555000D01*
X70031000Y-71555000D01*
G37*
G36*
X64316000Y-71428000D02*
G01*
X61414000Y-71428000D01*
X61414000Y-68526000D01*
X64316000Y-68526000D01*
X64316000Y-71428000D01*
X64316000Y-71428000D01*
G37*
G36*
X91706000Y-70370000D02*
G01*
X89904000Y-70370000D01*
X89904000Y-68568000D01*
X91706000Y-68568000D01*
X91706000Y-70370000D01*
X91706000Y-70370000D01*
G37*
G36*
X88375442Y-68574518D02*
G01*
X88441627Y-68581037D01*
X88611466Y-68632557D01*
X88767991Y-68716222D01*
X88803729Y-68745552D01*
X88905186Y-68828814D01*
X88988448Y-68930271D01*
X89017778Y-68966009D01*
X89101443Y-69122534D01*
X89152963Y-69292373D01*
X89170359Y-69469000D01*
X89152963Y-69645627D01*
X89101443Y-69815466D01*
X89017778Y-69971991D01*
X88988448Y-70007729D01*
X88905186Y-70109186D01*
X88803729Y-70192448D01*
X88767991Y-70221778D01*
X88611466Y-70305443D01*
X88441627Y-70356963D01*
X88375443Y-70363481D01*
X88309260Y-70370000D01*
X88220740Y-70370000D01*
X88154557Y-70363481D01*
X88088373Y-70356963D01*
X87918534Y-70305443D01*
X87762009Y-70221778D01*
X87726271Y-70192448D01*
X87624814Y-70109186D01*
X87541552Y-70007729D01*
X87512222Y-69971991D01*
X87428557Y-69815466D01*
X87377037Y-69645627D01*
X87359641Y-69469000D01*
X87377037Y-69292373D01*
X87428557Y-69122534D01*
X87512222Y-68966009D01*
X87541552Y-68930271D01*
X87624814Y-68828814D01*
X87726271Y-68745552D01*
X87762009Y-68716222D01*
X87918534Y-68632557D01*
X88088373Y-68581037D01*
X88154558Y-68574518D01*
X88220740Y-68568000D01*
X88309260Y-68568000D01*
X88375442Y-68574518D01*
X88375442Y-68574518D01*
G37*
G36*
X85835442Y-68574518D02*
G01*
X85901627Y-68581037D01*
X86071466Y-68632557D01*
X86227991Y-68716222D01*
X86263729Y-68745552D01*
X86365186Y-68828814D01*
X86448448Y-68930271D01*
X86477778Y-68966009D01*
X86561443Y-69122534D01*
X86612963Y-69292373D01*
X86630359Y-69469000D01*
X86612963Y-69645627D01*
X86561443Y-69815466D01*
X86477778Y-69971991D01*
X86448448Y-70007729D01*
X86365186Y-70109186D01*
X86263729Y-70192448D01*
X86227991Y-70221778D01*
X86071466Y-70305443D01*
X85901627Y-70356963D01*
X85835443Y-70363481D01*
X85769260Y-70370000D01*
X85680740Y-70370000D01*
X85614557Y-70363481D01*
X85548373Y-70356963D01*
X85378534Y-70305443D01*
X85222009Y-70221778D01*
X85186271Y-70192448D01*
X85084814Y-70109186D01*
X85001552Y-70007729D01*
X84972222Y-69971991D01*
X84888557Y-69815466D01*
X84837037Y-69645627D01*
X84819641Y-69469000D01*
X84837037Y-69292373D01*
X84888557Y-69122534D01*
X84972222Y-68966009D01*
X85001552Y-68930271D01*
X85084814Y-68828814D01*
X85186271Y-68745552D01*
X85222009Y-68716222D01*
X85378534Y-68632557D01*
X85548373Y-68581037D01*
X85614558Y-68574518D01*
X85680740Y-68568000D01*
X85769260Y-68568000D01*
X85835442Y-68574518D01*
X85835442Y-68574518D01*
G37*
G36*
X54912585Y-58415802D02*
G01*
X55062410Y-58445604D01*
X55344674Y-58562521D01*
X55598705Y-58732259D01*
X55814741Y-58948295D01*
X55984479Y-59202326D01*
X56101396Y-59484590D01*
X56161000Y-59784240D01*
X56161000Y-60089760D01*
X56101396Y-60389410D01*
X55984479Y-60671674D01*
X55814741Y-60925705D01*
X55598705Y-61141741D01*
X55344674Y-61311479D01*
X55062410Y-61428396D01*
X54912585Y-61458198D01*
X54762761Y-61488000D01*
X54457239Y-61488000D01*
X54307415Y-61458198D01*
X54157590Y-61428396D01*
X53875326Y-61311479D01*
X53621295Y-61141741D01*
X53405259Y-60925705D01*
X53235521Y-60671674D01*
X53118604Y-60389410D01*
X53059000Y-60089760D01*
X53059000Y-59784240D01*
X53118604Y-59484590D01*
X53235521Y-59202326D01*
X53405259Y-58948295D01*
X53621295Y-58732259D01*
X53875326Y-58562521D01*
X54157590Y-58445604D01*
X54307415Y-58415802D01*
X54457239Y-58386000D01*
X54762761Y-58386000D01*
X54912585Y-58415802D01*
X54912585Y-58415802D01*
G37*
G36*
X68757861Y-58503497D02*
G01*
X68864446Y-58513995D01*
X69137960Y-58596965D01*
X69137963Y-58596966D01*
X69390028Y-58731698D01*
X69390029Y-58731699D01*
X69390033Y-58731701D01*
X69610976Y-58913024D01*
X69792299Y-59133967D01*
X69792301Y-59133971D01*
X69792302Y-59133972D01*
X69927034Y-59386037D01*
X69927035Y-59386040D01*
X70010005Y-59659554D01*
X70038020Y-59944000D01*
X70010005Y-60228446D01*
X69965560Y-60374960D01*
X69927034Y-60501963D01*
X69860185Y-60627028D01*
X69792299Y-60754033D01*
X69610976Y-60974976D01*
X69390033Y-61156299D01*
X69390029Y-61156301D01*
X69390028Y-61156302D01*
X69137963Y-61291034D01*
X69137960Y-61291035D01*
X68864446Y-61374005D01*
X68757861Y-61384502D01*
X68651278Y-61395000D01*
X68508722Y-61395000D01*
X68402139Y-61384502D01*
X68295554Y-61374005D01*
X68022040Y-61291035D01*
X68022037Y-61291034D01*
X67769972Y-61156302D01*
X67769971Y-61156301D01*
X67769967Y-61156299D01*
X67549024Y-60974976D01*
X67367701Y-60754033D01*
X67299815Y-60627028D01*
X67232966Y-60501963D01*
X67194440Y-60374960D01*
X67149995Y-60228446D01*
X67121980Y-59944000D01*
X67149995Y-59659554D01*
X67232965Y-59386040D01*
X67232966Y-59386037D01*
X67367698Y-59133972D01*
X67367699Y-59133971D01*
X67367701Y-59133967D01*
X67549024Y-58913024D01*
X67769967Y-58731701D01*
X67769971Y-58731699D01*
X67769972Y-58731698D01*
X68022037Y-58596966D01*
X68022040Y-58596965D01*
X68295554Y-58513995D01*
X68402139Y-58503497D01*
X68508722Y-58493000D01*
X68651278Y-58493000D01*
X68757861Y-58503497D01*
X68757861Y-58503497D01*
G37*
G36*
X63042861Y-58376498D02*
G01*
X63149446Y-58386995D01*
X63422960Y-58469965D01*
X63422963Y-58469966D01*
X63675028Y-58604698D01*
X63675029Y-58604699D01*
X63675033Y-58604701D01*
X63895976Y-58786024D01*
X64077299Y-59006967D01*
X64077301Y-59006971D01*
X64077302Y-59006972D01*
X64212034Y-59259037D01*
X64212035Y-59259040D01*
X64295005Y-59532554D01*
X64323020Y-59817000D01*
X64295005Y-60101446D01*
X64212035Y-60374960D01*
X64212034Y-60374963D01*
X64077302Y-60627028D01*
X64077299Y-60627033D01*
X63895976Y-60847976D01*
X63675033Y-61029299D01*
X63675029Y-61029301D01*
X63675028Y-61029302D01*
X63422963Y-61164034D01*
X63422960Y-61164035D01*
X63149446Y-61247005D01*
X63042861Y-61257502D01*
X62936278Y-61268000D01*
X62793722Y-61268000D01*
X62687139Y-61257502D01*
X62580554Y-61247005D01*
X62307040Y-61164035D01*
X62307037Y-61164034D01*
X62054972Y-61029302D01*
X62054971Y-61029301D01*
X62054967Y-61029299D01*
X61834024Y-60847976D01*
X61652701Y-60627033D01*
X61652698Y-60627028D01*
X61517966Y-60374963D01*
X61517965Y-60374960D01*
X61434995Y-60101446D01*
X61406980Y-59817000D01*
X61434995Y-59532554D01*
X61517965Y-59259040D01*
X61517966Y-59259037D01*
X61652698Y-59006972D01*
X61652699Y-59006971D01*
X61652701Y-59006967D01*
X61834024Y-58786024D01*
X62054967Y-58604701D01*
X62054971Y-58604699D01*
X62054972Y-58604698D01*
X62307037Y-58469966D01*
X62307040Y-58469965D01*
X62580554Y-58386995D01*
X62687139Y-58376498D01*
X62793722Y-58366000D01*
X62936278Y-58366000D01*
X63042861Y-58376498D01*
X63042861Y-58376498D01*
G37*
G36*
X73273228Y-55061703D02*
G01*
X73428100Y-55125853D01*
X73567481Y-55218985D01*
X73686015Y-55337519D01*
X73779147Y-55476900D01*
X73843297Y-55631772D01*
X73876000Y-55796184D01*
X73876000Y-55963816D01*
X73843297Y-56128228D01*
X73779147Y-56283100D01*
X73686015Y-56422481D01*
X73567481Y-56541015D01*
X73428100Y-56634147D01*
X73273228Y-56698297D01*
X73108816Y-56731000D01*
X72941184Y-56731000D01*
X72776772Y-56698297D01*
X72621900Y-56634147D01*
X72482519Y-56541015D01*
X72363985Y-56422481D01*
X72270853Y-56283100D01*
X72206703Y-56128228D01*
X72174000Y-55963816D01*
X72174000Y-55796184D01*
X72206703Y-55631772D01*
X72270853Y-55476900D01*
X72363985Y-55337519D01*
X72482519Y-55218985D01*
X72621900Y-55125853D01*
X72776772Y-55061703D01*
X72941184Y-55029000D01*
X73108816Y-55029000D01*
X73273228Y-55061703D01*
X73273228Y-55061703D01*
G37*
G36*
X63031823Y-55041313D02*
G01*
X63192242Y-55089976D01*
X63259361Y-55125852D01*
X63340078Y-55168996D01*
X63469659Y-55275341D01*
X63576004Y-55404922D01*
X63576005Y-55404924D01*
X63655024Y-55552758D01*
X63703687Y-55713177D01*
X63720117Y-55880000D01*
X63703687Y-56046823D01*
X63655024Y-56207242D01*
X63614477Y-56283100D01*
X63576004Y-56355078D01*
X63469659Y-56484659D01*
X63340078Y-56591004D01*
X63340076Y-56591005D01*
X63192242Y-56670024D01*
X63031823Y-56718687D01*
X62906804Y-56731000D01*
X62823196Y-56731000D01*
X62698177Y-56718687D01*
X62537758Y-56670024D01*
X62389924Y-56591005D01*
X62389922Y-56591004D01*
X62260341Y-56484659D01*
X62153996Y-56355078D01*
X62115523Y-56283100D01*
X62074976Y-56207242D01*
X62026313Y-56046823D01*
X62009883Y-55880000D01*
X62026313Y-55713177D01*
X62074976Y-55552758D01*
X62153995Y-55404924D01*
X62153996Y-55404922D01*
X62260341Y-55275341D01*
X62389922Y-55168996D01*
X62470639Y-55125852D01*
X62537758Y-55089976D01*
X62698177Y-55041313D01*
X62823196Y-55029000D01*
X62906804Y-55029000D01*
X63031823Y-55041313D01*
X63031823Y-55041313D01*
G37*
G36*
X90844822Y-48241313D02*
G01*
X91005241Y-48289976D01*
X91153077Y-48368995D01*
X91282659Y-48475341D01*
X91389004Y-48604922D01*
X91389005Y-48604924D01*
X91468024Y-48752758D01*
X91516687Y-48913177D01*
X91529000Y-49038196D01*
X91529000Y-50021803D01*
X91516687Y-50146823D01*
X91468024Y-50307242D01*
X91397114Y-50439906D01*
X91389004Y-50455078D01*
X91282659Y-50584659D01*
X91153078Y-50691004D01*
X91153076Y-50691005D01*
X91005242Y-50770024D01*
X90844823Y-50818687D01*
X90678000Y-50835117D01*
X90511178Y-50818687D01*
X90350759Y-50770024D01*
X90202925Y-50691005D01*
X90202923Y-50691004D01*
X90073342Y-50584659D01*
X89966997Y-50455078D01*
X89958887Y-50439906D01*
X89887977Y-50307242D01*
X89839314Y-50146823D01*
X89827000Y-50021803D01*
X89827000Y-49038197D01*
X89839313Y-48913178D01*
X89887976Y-48752759D01*
X89966995Y-48604923D01*
X90073341Y-48475341D01*
X90202922Y-48368996D01*
X90218094Y-48360886D01*
X90350758Y-48289976D01*
X90511177Y-48241313D01*
X90678000Y-48224883D01*
X90844822Y-48241313D01*
X90844822Y-48241313D01*
G37*
G36*
X65952822Y-48241313D02*
G01*
X66113241Y-48289976D01*
X66261077Y-48368995D01*
X66390659Y-48475341D01*
X66497004Y-48604922D01*
X66497005Y-48604924D01*
X66576024Y-48752758D01*
X66624687Y-48913177D01*
X66637000Y-49038196D01*
X66637000Y-50021803D01*
X66624687Y-50146823D01*
X66576024Y-50307242D01*
X66505114Y-50439906D01*
X66497004Y-50455078D01*
X66390659Y-50584659D01*
X66261078Y-50691004D01*
X66261076Y-50691005D01*
X66113242Y-50770024D01*
X65952823Y-50818687D01*
X65786000Y-50835117D01*
X65619178Y-50818687D01*
X65458759Y-50770024D01*
X65310925Y-50691005D01*
X65310923Y-50691004D01*
X65181342Y-50584659D01*
X65074997Y-50455078D01*
X65066887Y-50439906D01*
X64995977Y-50307242D01*
X64947314Y-50146823D01*
X64935000Y-50021803D01*
X64935000Y-49038197D01*
X64947313Y-48913178D01*
X64995976Y-48752759D01*
X65074995Y-48604923D01*
X65181341Y-48475341D01*
X65310922Y-48368996D01*
X65326094Y-48360886D01*
X65458758Y-48289976D01*
X65619177Y-48241313D01*
X65786000Y-48224883D01*
X65952822Y-48241313D01*
X65952822Y-48241313D01*
G37*
G36*
X63412822Y-48241313D02*
G01*
X63573241Y-48289976D01*
X63721077Y-48368995D01*
X63850659Y-48475341D01*
X63957004Y-48604922D01*
X63957005Y-48604924D01*
X64036024Y-48752758D01*
X64084687Y-48913177D01*
X64097000Y-49038196D01*
X64097000Y-50021803D01*
X64084687Y-50146823D01*
X64036024Y-50307242D01*
X63965114Y-50439906D01*
X63957004Y-50455078D01*
X63850659Y-50584659D01*
X63721078Y-50691004D01*
X63721076Y-50691005D01*
X63573242Y-50770024D01*
X63412823Y-50818687D01*
X63246000Y-50835117D01*
X63079178Y-50818687D01*
X62918759Y-50770024D01*
X62770925Y-50691005D01*
X62770923Y-50691004D01*
X62641342Y-50584659D01*
X62534997Y-50455078D01*
X62526887Y-50439906D01*
X62455977Y-50307242D01*
X62407314Y-50146823D01*
X62395000Y-50021803D01*
X62395000Y-49038197D01*
X62407313Y-48913178D01*
X62455976Y-48752759D01*
X62534995Y-48604923D01*
X62641341Y-48475341D01*
X62770922Y-48368996D01*
X62786094Y-48360886D01*
X62918758Y-48289976D01*
X63079177Y-48241313D01*
X63246000Y-48224883D01*
X63412822Y-48241313D01*
X63412822Y-48241313D01*
G37*
G36*
X88304822Y-48241313D02*
G01*
X88465241Y-48289976D01*
X88613077Y-48368995D01*
X88742659Y-48475341D01*
X88849004Y-48604922D01*
X88849005Y-48604924D01*
X88928024Y-48752758D01*
X88976687Y-48913177D01*
X88989000Y-49038196D01*
X88989000Y-50021803D01*
X88976687Y-50146823D01*
X88928024Y-50307242D01*
X88857114Y-50439906D01*
X88849004Y-50455078D01*
X88742659Y-50584659D01*
X88613078Y-50691004D01*
X88613076Y-50691005D01*
X88465242Y-50770024D01*
X88304823Y-50818687D01*
X88138000Y-50835117D01*
X87971178Y-50818687D01*
X87810759Y-50770024D01*
X87662925Y-50691005D01*
X87662923Y-50691004D01*
X87533342Y-50584659D01*
X87426997Y-50455078D01*
X87418887Y-50439906D01*
X87347977Y-50307242D01*
X87299314Y-50146823D01*
X87287000Y-50021803D01*
X87287000Y-49038197D01*
X87299313Y-48913178D01*
X87347976Y-48752759D01*
X87426995Y-48604923D01*
X87533341Y-48475341D01*
X87662922Y-48368996D01*
X87678094Y-48360886D01*
X87810758Y-48289976D01*
X87971177Y-48241313D01*
X88138000Y-48224883D01*
X88304822Y-48241313D01*
X88304822Y-48241313D01*
G37*
G36*
X85951057Y-40925059D02*
G01*
X86290547Y-41028042D01*
X86290549Y-41028043D01*
X86603423Y-41195277D01*
X86877661Y-41420339D01*
X87102723Y-41694578D01*
X87109396Y-41707063D01*
X87269958Y-42007452D01*
X87372941Y-42346942D01*
X87399000Y-42611525D01*
X87399000Y-46288475D01*
X87372941Y-46553058D01*
X87269958Y-46892548D01*
X87269957Y-46892550D01*
X87102723Y-47205422D01*
X86877661Y-47479661D01*
X86603422Y-47704723D01*
X86290550Y-47871957D01*
X86290548Y-47871958D01*
X85951058Y-47974941D01*
X85598000Y-48009714D01*
X85244943Y-47974941D01*
X84905453Y-47871958D01*
X84905451Y-47871957D01*
X84592579Y-47704723D01*
X84318340Y-47479661D01*
X84093278Y-47205422D01*
X83926044Y-46892550D01*
X83926043Y-46892548D01*
X83823060Y-46553058D01*
X83797001Y-46288475D01*
X83797000Y-42611526D01*
X83823059Y-42346943D01*
X83926042Y-42007453D01*
X84005425Y-41858938D01*
X84093277Y-41694577D01*
X84318339Y-41420339D01*
X84592578Y-41195277D01*
X84905450Y-41028043D01*
X84905452Y-41028042D01*
X85244942Y-40925059D01*
X85598000Y-40890286D01*
X85951057Y-40925059D01*
X85951057Y-40925059D01*
G37*
G36*
X96111057Y-40925059D02*
G01*
X96450547Y-41028042D01*
X96450549Y-41028043D01*
X96763423Y-41195277D01*
X97037661Y-41420339D01*
X97262723Y-41694578D01*
X97269396Y-41707063D01*
X97429958Y-42007452D01*
X97532941Y-42346942D01*
X97559000Y-42611525D01*
X97559000Y-46288475D01*
X97532941Y-46553058D01*
X97429958Y-46892548D01*
X97429957Y-46892550D01*
X97262723Y-47205422D01*
X97037661Y-47479661D01*
X96763422Y-47704723D01*
X96450550Y-47871957D01*
X96450548Y-47871958D01*
X96111058Y-47974941D01*
X95758000Y-48009714D01*
X95404943Y-47974941D01*
X95065453Y-47871958D01*
X95065451Y-47871957D01*
X94752579Y-47704723D01*
X94478340Y-47479661D01*
X94253278Y-47205422D01*
X94086044Y-46892550D01*
X94086043Y-46892548D01*
X93983060Y-46553058D01*
X93957001Y-46288475D01*
X93957000Y-42611526D01*
X93983059Y-42346943D01*
X94086042Y-42007453D01*
X94165425Y-41858938D01*
X94253277Y-41694577D01*
X94478339Y-41420339D01*
X94752578Y-41195277D01*
X95065450Y-41028043D01*
X95065452Y-41028042D01*
X95404942Y-40925059D01*
X95758000Y-40890286D01*
X96111057Y-40925059D01*
X96111057Y-40925059D01*
G37*
G36*
X71219057Y-40925059D02*
G01*
X71558547Y-41028042D01*
X71558549Y-41028043D01*
X71871423Y-41195277D01*
X72145661Y-41420339D01*
X72370723Y-41694578D01*
X72377396Y-41707063D01*
X72537958Y-42007452D01*
X72640941Y-42346942D01*
X72667000Y-42611525D01*
X72667000Y-46288475D01*
X72640941Y-46553058D01*
X72537958Y-46892548D01*
X72537957Y-46892550D01*
X72370723Y-47205422D01*
X72145661Y-47479661D01*
X71871422Y-47704723D01*
X71558550Y-47871957D01*
X71558548Y-47871958D01*
X71219058Y-47974941D01*
X70866000Y-48009714D01*
X70512943Y-47974941D01*
X70173453Y-47871958D01*
X70173451Y-47871957D01*
X69860579Y-47704723D01*
X69586340Y-47479661D01*
X69361278Y-47205422D01*
X69194044Y-46892550D01*
X69194043Y-46892548D01*
X69091060Y-46553058D01*
X69065001Y-46288475D01*
X69065000Y-42611526D01*
X69091059Y-42346943D01*
X69194042Y-42007453D01*
X69273425Y-41858938D01*
X69361277Y-41694577D01*
X69586339Y-41420339D01*
X69860578Y-41195277D01*
X70173450Y-41028043D01*
X70173452Y-41028042D01*
X70512942Y-40925059D01*
X70866000Y-40890286D01*
X71219057Y-40925059D01*
X71219057Y-40925059D01*
G37*
G36*
X61059057Y-40925059D02*
G01*
X61398547Y-41028042D01*
X61398549Y-41028043D01*
X61711423Y-41195277D01*
X61985661Y-41420339D01*
X62210723Y-41694578D01*
X62217396Y-41707063D01*
X62377958Y-42007452D01*
X62480941Y-42346942D01*
X62507000Y-42611525D01*
X62507000Y-46288475D01*
X62480941Y-46553058D01*
X62377958Y-46892548D01*
X62377957Y-46892550D01*
X62210723Y-47205422D01*
X61985661Y-47479661D01*
X61711422Y-47704723D01*
X61398550Y-47871957D01*
X61398548Y-47871958D01*
X61059058Y-47974941D01*
X60706000Y-48009714D01*
X60352943Y-47974941D01*
X60013453Y-47871958D01*
X60013451Y-47871957D01*
X59700579Y-47704723D01*
X59426340Y-47479661D01*
X59201278Y-47205422D01*
X59034044Y-46892550D01*
X59034043Y-46892548D01*
X58931060Y-46553058D01*
X58905001Y-46288475D01*
X58905000Y-42611526D01*
X58931059Y-42346943D01*
X59034042Y-42007453D01*
X59113425Y-41858938D01*
X59201277Y-41694577D01*
X59426339Y-41420339D01*
X59700578Y-41195277D01*
X60013450Y-41028043D01*
X60013452Y-41028042D01*
X60352942Y-40925059D01*
X60706000Y-40890286D01*
X61059057Y-40925059D01*
X61059057Y-40925059D01*
G37*
G36*
X78357589Y-43561876D02*
G01*
X78456893Y-43581629D01*
X78597206Y-43639748D01*
X78723484Y-43724125D01*
X78830875Y-43831516D01*
X78915252Y-43957794D01*
X78973371Y-44098107D01*
X79003000Y-44247063D01*
X79003000Y-44398937D01*
X78973371Y-44547893D01*
X78915252Y-44688206D01*
X78830875Y-44814484D01*
X78723484Y-44921875D01*
X78597206Y-45006252D01*
X78456893Y-45064371D01*
X78357589Y-45084124D01*
X78307938Y-45094000D01*
X78156062Y-45094000D01*
X78106411Y-45084124D01*
X78007107Y-45064371D01*
X77866794Y-45006252D01*
X77740516Y-44921875D01*
X77633125Y-44814484D01*
X77548748Y-44688206D01*
X77490629Y-44547893D01*
X77461000Y-44398937D01*
X77461000Y-44247063D01*
X77490629Y-44098107D01*
X77548748Y-43957794D01*
X77633125Y-43831516D01*
X77740516Y-43724125D01*
X77866794Y-43639748D01*
X78007107Y-43581629D01*
X78106411Y-43561876D01*
X78156062Y-43552000D01*
X78307938Y-43552000D01*
X78357589Y-43561876D01*
X78357589Y-43561876D01*
G37*
G36*
X104274007Y-39285582D02*
G01*
X104674563Y-39451498D01*
X104674565Y-39451499D01*
X105035056Y-39692371D01*
X105341629Y-39998944D01*
X105582501Y-40359435D01*
X105582502Y-40359437D01*
X105748418Y-40759993D01*
X105833000Y-41185219D01*
X105833000Y-41618781D01*
X105748418Y-42044007D01*
X105608468Y-42381875D01*
X105582501Y-42444565D01*
X105341629Y-42805056D01*
X105035056Y-43111629D01*
X104674565Y-43352501D01*
X104674564Y-43352502D01*
X104674563Y-43352502D01*
X104274007Y-43518418D01*
X103848781Y-43603000D01*
X103415219Y-43603000D01*
X102989993Y-43518418D01*
X102589437Y-43352502D01*
X102589436Y-43352502D01*
X102589435Y-43352501D01*
X102228944Y-43111629D01*
X101922371Y-42805056D01*
X101681499Y-42444565D01*
X101655532Y-42381875D01*
X101515582Y-42044007D01*
X101431000Y-41618781D01*
X101431000Y-41185219D01*
X101515582Y-40759993D01*
X101681498Y-40359437D01*
X101681499Y-40359435D01*
X101922371Y-39998944D01*
X102228944Y-39692371D01*
X102589435Y-39451499D01*
X102589437Y-39451498D01*
X102989993Y-39285582D01*
X103415219Y-39201000D01*
X103848781Y-39201000D01*
X104274007Y-39285582D01*
X104274007Y-39285582D01*
G37*
G36*
X53474007Y-39285582D02*
G01*
X53874563Y-39451498D01*
X53874565Y-39451499D01*
X54235056Y-39692371D01*
X54541629Y-39998944D01*
X54782501Y-40359435D01*
X54782502Y-40359437D01*
X54948418Y-40759993D01*
X55033000Y-41185219D01*
X55033000Y-41618781D01*
X54948418Y-42044007D01*
X54808468Y-42381875D01*
X54782501Y-42444565D01*
X54541629Y-42805056D01*
X54235056Y-43111629D01*
X53874565Y-43352501D01*
X53874564Y-43352502D01*
X53874563Y-43352502D01*
X53474007Y-43518418D01*
X53048781Y-43603000D01*
X52615219Y-43603000D01*
X52189993Y-43518418D01*
X51789437Y-43352502D01*
X51789436Y-43352502D01*
X51789435Y-43352501D01*
X51428944Y-43111629D01*
X51122371Y-42805056D01*
X50881499Y-42444565D01*
X50855532Y-42381875D01*
X50715582Y-42044007D01*
X50631000Y-41618781D01*
X50631000Y-41185219D01*
X50715582Y-40759993D01*
X50881498Y-40359437D01*
X50881499Y-40359435D01*
X51122371Y-39998944D01*
X51428944Y-39692371D01*
X51789435Y-39451499D01*
X51789437Y-39451498D01*
X52189993Y-39285582D01*
X52615219Y-39201000D01*
X53048781Y-39201000D01*
X53474007Y-39285582D01*
X53474007Y-39285582D01*
G37*
G36*
X78357589Y-41021876D02*
G01*
X78456893Y-41041629D01*
X78597206Y-41099748D01*
X78723484Y-41184125D01*
X78830875Y-41291516D01*
X78915252Y-41417794D01*
X78973371Y-41558107D01*
X78985440Y-41618781D01*
X79000517Y-41694577D01*
X79003000Y-41707063D01*
X79003000Y-41858937D01*
X78973371Y-42007893D01*
X78915252Y-42148206D01*
X78830875Y-42274484D01*
X78723484Y-42381875D01*
X78597206Y-42466252D01*
X78456893Y-42524371D01*
X78357589Y-42544124D01*
X78307938Y-42554000D01*
X78156062Y-42554000D01*
X78106411Y-42544124D01*
X78007107Y-42524371D01*
X77866794Y-42466252D01*
X77740516Y-42381875D01*
X77633125Y-42274484D01*
X77548748Y-42148206D01*
X77490629Y-42007893D01*
X77461000Y-41858937D01*
X77461000Y-41707063D01*
X77463484Y-41694577D01*
X77478560Y-41618781D01*
X77490629Y-41558107D01*
X77548748Y-41417794D01*
X77633125Y-41291516D01*
X77740516Y-41184125D01*
X77866794Y-41099748D01*
X78007107Y-41041629D01*
X78106411Y-41021876D01*
X78156062Y-41012000D01*
X78307938Y-41012000D01*
X78357589Y-41021876D01*
X78357589Y-41021876D01*
G37*
G36*
X78357589Y-38481876D02*
G01*
X78456893Y-38501629D01*
X78597206Y-38559748D01*
X78723484Y-38644125D01*
X78830875Y-38751516D01*
X78915252Y-38877794D01*
X78973371Y-39018107D01*
X79003000Y-39167063D01*
X79003000Y-39318937D01*
X78973371Y-39467893D01*
X78915252Y-39608206D01*
X78830875Y-39734484D01*
X78723484Y-39841875D01*
X78597206Y-39926252D01*
X78456893Y-39984371D01*
X78383629Y-39998944D01*
X78307938Y-40014000D01*
X78156062Y-40014000D01*
X78080371Y-39998944D01*
X78007107Y-39984371D01*
X77866794Y-39926252D01*
X77740516Y-39841875D01*
X77633125Y-39734484D01*
X77548748Y-39608206D01*
X77490629Y-39467893D01*
X77461000Y-39318937D01*
X77461000Y-39167063D01*
X77490629Y-39018107D01*
X77548748Y-38877794D01*
X77633125Y-38751516D01*
X77740516Y-38644125D01*
X77866794Y-38559748D01*
X78007107Y-38501629D01*
X78106411Y-38481876D01*
X78156062Y-38472000D01*
X78307938Y-38472000D01*
X78357589Y-38481876D01*
X78357589Y-38481876D01*
G37*
M02*
