%FSLAX45Y45*%
G04 Gerber Fmt 4.5, Leading zero omitted, Abs format (unit mm)*
G04 Created by KiCad (PCBNEW (5.1.2)-2) date 2019-08-08 10:38:03*
%MOMM*%
%LPD*%
G04 APERTURE LIST*
%ADD10C,0.050000*%
%ADD11C,0.200000*%
%ADD12C,0.300000*%
G04 APERTURE END LIST*
D10*
X4826000Y-11303000D02*
X4826000Y-3683000D01*
X10820400Y-11303000D02*
X4826000Y-11303000D01*
X10820400Y-3683000D02*
X10820400Y-11303000D01*
X4826000Y-3683000D02*
X10820400Y-3683000D01*
D11*
X6660200Y-8603300D02*
X6700200Y-8643300D01*
X6700200Y-8603300D02*
X6660200Y-8643300D01*
X7993700Y-7368101D02*
X8033700Y-7408101D01*
X8033700Y-7368101D02*
X7993700Y-7408101D01*
X7993700Y-7765100D02*
X8033700Y-7805100D01*
X8033700Y-7765100D02*
X7993700Y-7805100D01*
X8222300Y-7053900D02*
X8262300Y-7093900D01*
X8262300Y-7053900D02*
X8222300Y-7093900D01*
X9212900Y-6355400D02*
X9252900Y-6395400D01*
X9252900Y-6355400D02*
X9212900Y-6395400D01*
X9276400Y-6799900D02*
X9316400Y-6839900D01*
X9316400Y-6799900D02*
X9276400Y-6839900D01*
X9847900Y-6495100D02*
X9887900Y-6535100D01*
X9887900Y-6495100D02*
X9847900Y-6535100D01*
X6326500Y-5588000D02*
G75*
G03X6326500Y-5588000I-40000J0D01*
G01*
X7342500Y-5588000D02*
G75*
G03X7342500Y-5588000I-40000J0D01*
G01*
X7863200Y-3924300D02*
G75*
G03X7863200Y-3924300I-40000J0D01*
G01*
X7863200Y-4178300D02*
G75*
G03X7863200Y-4178300I-40000J0D01*
G01*
X7863200Y-4432300D02*
G75*
G03X7863200Y-4432300I-40000J0D01*
G01*
X5526400Y-9067800D02*
G75*
G03X5526400Y-9067800I-40000J0D01*
G01*
X5526400Y-10083800D02*
G75*
G03X5526400Y-10083800I-40000J0D01*
G01*
X6324600Y-4908500D02*
X6324600Y-4997500D01*
X6280100Y-4953000D02*
X6369100Y-4953000D01*
X6578600Y-4908500D02*
X6578600Y-4997500D01*
X6534100Y-4953000D02*
X6623100Y-4953000D01*
X8813800Y-4908500D02*
X8813800Y-4997500D01*
X8769300Y-4953000D02*
X8858300Y-4953000D01*
X9067800Y-4908500D02*
X9067800Y-4997500D01*
X9023300Y-4953000D02*
X9112300Y-4953000D01*
X9306356Y-8328456D02*
X9306356Y-8257744D01*
X9235644Y-8257744D01*
X9235644Y-8328456D01*
X9306356Y-8328456D01*
X9806356Y-8328456D02*
X9806356Y-8257744D01*
X9735644Y-8257744D01*
X9735644Y-8328456D01*
X9806356Y-8328456D01*
X8607856Y-6982256D02*
X8607856Y-6911544D01*
X8537144Y-6911544D01*
X8537144Y-6982256D01*
X8607856Y-6982256D01*
X8861856Y-6982256D02*
X8861856Y-6911544D01*
X8791144Y-6911544D01*
X8791144Y-6982256D01*
X8861856Y-6982256D01*
X9115856Y-6982256D02*
X9115856Y-6911544D01*
X9045144Y-6911544D01*
X9045144Y-6982256D01*
X9115856Y-6982256D01*
X9306356Y-9522256D02*
X9306356Y-9451544D01*
X9235644Y-9451544D01*
X9235644Y-9522256D01*
X9306356Y-9522256D01*
X9806356Y-9522256D02*
X9806356Y-9451544D01*
X9735644Y-9451544D01*
X9735644Y-9522256D01*
X9806356Y-9522256D01*
X8341156Y-7401356D02*
X8341156Y-7330644D01*
X8270444Y-7330644D01*
X8270444Y-7401356D01*
X8341156Y-7401356D01*
X8595156Y-7401356D02*
X8595156Y-7330644D01*
X8524444Y-7330644D01*
X8524444Y-7401356D01*
X8595156Y-7401356D01*
X7315200Y-9419900D02*
X7375200Y-9359900D01*
X7315200Y-9299900D01*
X7255200Y-9359900D01*
X7315200Y-9419900D01*
X7315200Y-10943900D02*
X7375200Y-10883900D01*
X7315200Y-10823900D01*
X7255200Y-10883900D01*
X7315200Y-10943900D01*
X6019800Y-9419900D02*
X6079800Y-9359900D01*
X6019800Y-9299900D01*
X5959800Y-9359900D01*
X6019800Y-9419900D01*
X6019800Y-10943900D02*
X6079800Y-10883900D01*
X6019800Y-10823900D01*
X5959800Y-10883900D01*
X6019800Y-10943900D01*
X7962900Y-9419900D02*
X8022900Y-9359900D01*
X7962900Y-9299900D01*
X7902900Y-9359900D01*
X7962900Y-9419900D01*
X7962900Y-10943900D02*
X8022900Y-10883900D01*
X7962900Y-10823900D01*
X7902900Y-10883900D01*
X7962900Y-10943900D01*
X6667500Y-9419900D02*
X6727500Y-9359900D01*
X6667500Y-9299900D01*
X6607500Y-9359900D01*
X6667500Y-9419900D01*
X6667500Y-10943900D02*
X6727500Y-10883900D01*
X6667500Y-10823900D01*
X6607500Y-10883900D01*
X6667500Y-10943900D01*
X6788000Y-5924400D02*
X6928000Y-6064400D01*
X6928000Y-5924400D02*
X6788000Y-6064400D01*
X6928000Y-5994400D02*
G75*
G03X6928000Y-5994400I-70000J0D01*
G01*
X6788000Y-6940400D02*
X6928000Y-7080400D01*
X6928000Y-6940400D02*
X6788000Y-7080400D01*
X6928000Y-7010400D02*
G75*
G03X6928000Y-7010400I-70000J0D01*
G01*
X6216500Y-5911700D02*
X6356500Y-6051700D01*
X6356500Y-5911700D02*
X6216500Y-6051700D01*
X6356500Y-5981700D02*
G75*
G03X6356500Y-5981700I-70000J0D01*
G01*
X6216500Y-6927700D02*
X6356500Y-7067700D01*
X6356500Y-6927700D02*
X6216500Y-7067700D01*
X6356500Y-6997700D02*
G75*
G03X6356500Y-6997700I-70000J0D01*
G01*
X5048100Y-8337400D02*
X5188100Y-8477400D01*
X5188100Y-8337400D02*
X5048100Y-8477400D01*
X5188100Y-8407400D02*
G75*
G03X5188100Y-8407400I-70000J0D01*
G01*
X5048100Y-9353400D02*
X5188100Y-9493400D01*
X5188100Y-9353400D02*
X5048100Y-9493400D01*
X5188100Y-9423400D02*
G75*
G03X5188100Y-9423400I-70000J0D01*
G01*
X8509200Y-10807900D02*
X8661200Y-10959900D01*
X8661200Y-10807900D02*
X8509200Y-10959900D01*
X8585200Y-10807900D02*
X8585200Y-10959900D01*
X8509200Y-10883900D02*
X8661200Y-10883900D01*
X9017200Y-10807900D02*
X9169200Y-10959900D01*
X9169200Y-10807900D02*
X9017200Y-10959900D01*
X9093200Y-10807900D02*
X9093200Y-10959900D01*
X9017200Y-10883900D02*
X9169200Y-10883900D01*
X9525200Y-10807900D02*
X9677200Y-10959900D01*
X9677200Y-10807900D02*
X9525200Y-10959900D01*
X9601200Y-10807900D02*
X9601200Y-10959900D01*
X9525200Y-10883900D02*
X9677200Y-10883900D01*
X5376000Y-5908700D02*
X5546000Y-6078700D01*
X5546000Y-5908700D02*
X5376000Y-6078700D01*
X5521105Y-6053805D02*
X5521105Y-5933595D01*
X5400895Y-5933595D01*
X5400895Y-6053805D01*
X5521105Y-6053805D01*
X5376000Y-7408700D02*
X5546000Y-7578700D01*
X5546000Y-7408700D02*
X5376000Y-7578700D01*
X5521105Y-7553805D02*
X5521105Y-7433595D01*
X5400895Y-7433595D01*
X5400895Y-7553805D01*
X5521105Y-7553805D01*
X5970100Y-4344500D02*
X6171100Y-4545500D01*
X6171100Y-4344500D02*
X5970100Y-4545500D01*
X6070600Y-4545500D02*
X6171100Y-4445000D01*
X6070600Y-4344500D01*
X5970100Y-4445000D01*
X6070600Y-4545500D01*
X6986100Y-4344500D02*
X7187100Y-4545500D01*
X7187100Y-4344500D02*
X6986100Y-4545500D01*
X7086600Y-4545500D02*
X7187100Y-4445000D01*
X7086600Y-4344500D01*
X6986100Y-4445000D01*
X7086600Y-4545500D01*
X8459300Y-4344500D02*
X8660300Y-4545500D01*
X8660300Y-4344500D02*
X8459300Y-4545500D01*
X8559800Y-4545500D02*
X8660300Y-4445000D01*
X8559800Y-4344500D01*
X8459300Y-4445000D01*
X8559800Y-4545500D01*
X9475300Y-4344500D02*
X9676300Y-4545500D01*
X9676300Y-4344500D02*
X9475300Y-4545500D01*
X9575800Y-4545500D02*
X9676300Y-4445000D01*
X9575800Y-4344500D01*
X9475300Y-4445000D01*
X9575800Y-4545500D01*
D12*
X5109928Y-11771214D02*
X5109928Y-11471214D01*
X5181357Y-11471214D01*
X5224214Y-11485500D01*
X5252786Y-11514071D01*
X5267071Y-11542643D01*
X5281357Y-11599786D01*
X5281357Y-11642643D01*
X5267071Y-11699786D01*
X5252786Y-11728357D01*
X5224214Y-11756929D01*
X5181357Y-11771214D01*
X5109928Y-11771214D01*
X5409928Y-11771214D02*
X5409928Y-11571214D01*
X5409928Y-11628357D02*
X5424214Y-11599786D01*
X5438500Y-11585500D01*
X5467071Y-11571214D01*
X5495643Y-11571214D01*
X5595643Y-11771214D02*
X5595643Y-11571214D01*
X5595643Y-11471214D02*
X5581357Y-11485500D01*
X5595643Y-11499786D01*
X5609928Y-11485500D01*
X5595643Y-11471214D01*
X5595643Y-11499786D01*
X5781357Y-11771214D02*
X5752786Y-11756929D01*
X5738500Y-11728357D01*
X5738500Y-11471214D01*
X5938500Y-11771214D02*
X5909928Y-11756929D01*
X5895643Y-11728357D01*
X5895643Y-11471214D01*
X6281357Y-11771214D02*
X6281357Y-11471214D01*
X6381357Y-11685500D01*
X6481357Y-11471214D01*
X6481357Y-11771214D01*
X6752786Y-11771214D02*
X6752786Y-11614071D01*
X6738500Y-11585500D01*
X6709928Y-11571214D01*
X6652786Y-11571214D01*
X6624214Y-11585500D01*
X6752786Y-11756929D02*
X6724214Y-11771214D01*
X6652786Y-11771214D01*
X6624214Y-11756929D01*
X6609928Y-11728357D01*
X6609928Y-11699786D01*
X6624214Y-11671214D01*
X6652786Y-11656929D01*
X6724214Y-11656929D01*
X6752786Y-11642643D01*
X6895643Y-11571214D02*
X6895643Y-11871214D01*
X6895643Y-11585500D02*
X6924214Y-11571214D01*
X6981357Y-11571214D01*
X7009928Y-11585500D01*
X7024214Y-11599786D01*
X7038500Y-11628357D01*
X7038500Y-11714071D01*
X7024214Y-11742643D01*
X7009928Y-11756929D01*
X6981357Y-11771214D01*
X6924214Y-11771214D01*
X6895643Y-11756929D01*
X7167071Y-11742643D02*
X7181357Y-11756929D01*
X7167071Y-11771214D01*
X7152786Y-11756929D01*
X7167071Y-11742643D01*
X7167071Y-11771214D01*
X7167071Y-11585500D02*
X7181357Y-11599786D01*
X7167071Y-11614071D01*
X7152786Y-11599786D01*
X7167071Y-11585500D01*
X7167071Y-11614071D01*
X4783500Y-12245500D02*
X4823500Y-12285500D01*
X4823500Y-12245500D02*
X4783500Y-12285500D01*
X5167071Y-12101214D02*
X5195643Y-12101214D01*
X5224214Y-12115500D01*
X5238500Y-12129786D01*
X5252786Y-12158357D01*
X5267071Y-12215500D01*
X5267071Y-12286929D01*
X5252786Y-12344071D01*
X5238500Y-12372643D01*
X5224214Y-12386929D01*
X5195643Y-12401214D01*
X5167071Y-12401214D01*
X5138500Y-12386929D01*
X5124214Y-12372643D01*
X5109928Y-12344071D01*
X5095643Y-12286929D01*
X5095643Y-12215500D01*
X5109928Y-12158357D01*
X5124214Y-12129786D01*
X5138500Y-12115500D01*
X5167071Y-12101214D01*
X5395643Y-12372643D02*
X5409928Y-12386929D01*
X5395643Y-12401214D01*
X5381357Y-12386929D01*
X5395643Y-12372643D01*
X5395643Y-12401214D01*
X5667071Y-12201214D02*
X5667071Y-12401214D01*
X5595643Y-12086929D02*
X5524214Y-12301214D01*
X5709928Y-12301214D01*
X5881357Y-12101214D02*
X5909928Y-12101214D01*
X5938500Y-12115500D01*
X5952786Y-12129786D01*
X5967071Y-12158357D01*
X5981357Y-12215500D01*
X5981357Y-12286929D01*
X5967071Y-12344071D01*
X5952786Y-12372643D01*
X5938500Y-12386929D01*
X5909928Y-12401214D01*
X5881357Y-12401214D01*
X5852786Y-12386929D01*
X5838500Y-12372643D01*
X5824214Y-12344071D01*
X5809928Y-12286929D01*
X5809928Y-12215500D01*
X5824214Y-12158357D01*
X5838500Y-12129786D01*
X5852786Y-12115500D01*
X5881357Y-12101214D01*
X6109928Y-12401214D02*
X6109928Y-12201214D01*
X6109928Y-12229786D02*
X6124214Y-12215500D01*
X6152786Y-12201214D01*
X6195643Y-12201214D01*
X6224214Y-12215500D01*
X6238500Y-12244071D01*
X6238500Y-12401214D01*
X6238500Y-12244071D02*
X6252786Y-12215500D01*
X6281357Y-12201214D01*
X6324214Y-12201214D01*
X6352786Y-12215500D01*
X6367071Y-12244071D01*
X6367071Y-12401214D01*
X6509928Y-12401214D02*
X6509928Y-12201214D01*
X6509928Y-12229786D02*
X6524214Y-12215500D01*
X6552786Y-12201214D01*
X6595643Y-12201214D01*
X6624214Y-12215500D01*
X6638500Y-12244071D01*
X6638500Y-12401214D01*
X6638500Y-12244071D02*
X6652786Y-12215500D01*
X6681357Y-12201214D01*
X6724214Y-12201214D01*
X6752786Y-12215500D01*
X6767071Y-12244071D01*
X6767071Y-12401214D01*
X7352786Y-12086929D02*
X7095643Y-12472643D01*
X7738500Y-12101214D02*
X7767071Y-12101214D01*
X7795643Y-12115500D01*
X7809928Y-12129786D01*
X7824214Y-12158357D01*
X7838500Y-12215500D01*
X7838500Y-12286929D01*
X7824214Y-12344071D01*
X7809928Y-12372643D01*
X7795643Y-12386929D01*
X7767071Y-12401214D01*
X7738500Y-12401214D01*
X7709928Y-12386929D01*
X7695643Y-12372643D01*
X7681357Y-12344071D01*
X7667071Y-12286929D01*
X7667071Y-12215500D01*
X7681357Y-12158357D01*
X7695643Y-12129786D01*
X7709928Y-12115500D01*
X7738500Y-12101214D01*
X7967071Y-12372643D02*
X7981357Y-12386929D01*
X7967071Y-12401214D01*
X7952786Y-12386929D01*
X7967071Y-12372643D01*
X7967071Y-12401214D01*
X8167071Y-12101214D02*
X8195643Y-12101214D01*
X8224214Y-12115500D01*
X8238500Y-12129786D01*
X8252786Y-12158357D01*
X8267071Y-12215500D01*
X8267071Y-12286929D01*
X8252786Y-12344071D01*
X8238500Y-12372643D01*
X8224214Y-12386929D01*
X8195643Y-12401214D01*
X8167071Y-12401214D01*
X8138500Y-12386929D01*
X8124214Y-12372643D01*
X8109928Y-12344071D01*
X8095643Y-12286929D01*
X8095643Y-12215500D01*
X8109928Y-12158357D01*
X8124214Y-12129786D01*
X8138500Y-12115500D01*
X8167071Y-12101214D01*
X8552786Y-12401214D02*
X8381357Y-12401214D01*
X8467071Y-12401214D02*
X8467071Y-12101214D01*
X8438500Y-12144071D01*
X8409928Y-12172643D01*
X8381357Y-12186929D01*
X8809928Y-12101214D02*
X8752786Y-12101214D01*
X8724214Y-12115500D01*
X8709928Y-12129786D01*
X8681357Y-12172643D01*
X8667071Y-12229786D01*
X8667071Y-12344071D01*
X8681357Y-12372643D01*
X8695643Y-12386929D01*
X8724214Y-12401214D01*
X8781357Y-12401214D01*
X8809928Y-12386929D01*
X8824214Y-12372643D01*
X8838500Y-12344071D01*
X8838500Y-12272643D01*
X8824214Y-12244071D01*
X8809928Y-12229786D01*
X8781357Y-12215500D01*
X8724214Y-12215500D01*
X8695643Y-12229786D01*
X8681357Y-12244071D01*
X8667071Y-12272643D01*
X8952786Y-12101214D02*
X8952786Y-12158357D01*
X9067071Y-12101214D02*
X9067071Y-12158357D01*
X9509928Y-12515500D02*
X9495643Y-12501214D01*
X9467071Y-12458357D01*
X9452786Y-12429786D01*
X9438500Y-12386929D01*
X9424214Y-12315500D01*
X9424214Y-12258357D01*
X9438500Y-12186929D01*
X9452786Y-12144071D01*
X9467071Y-12115500D01*
X9495643Y-12072643D01*
X9509928Y-12058357D01*
X9595643Y-12101214D02*
X9795643Y-12101214D01*
X9667071Y-12401214D01*
X10138500Y-12401214D02*
X10138500Y-12101214D01*
X10267071Y-12401214D02*
X10267071Y-12244071D01*
X10252786Y-12215500D01*
X10224214Y-12201214D01*
X10181357Y-12201214D01*
X10152786Y-12215500D01*
X10138500Y-12229786D01*
X10452786Y-12401214D02*
X10424214Y-12386929D01*
X10409928Y-12372643D01*
X10395643Y-12344071D01*
X10395643Y-12258357D01*
X10409928Y-12229786D01*
X10424214Y-12215500D01*
X10452786Y-12201214D01*
X10495643Y-12201214D01*
X10524214Y-12215500D01*
X10538500Y-12229786D01*
X10552786Y-12258357D01*
X10552786Y-12344071D01*
X10538500Y-12372643D01*
X10524214Y-12386929D01*
X10495643Y-12401214D01*
X10452786Y-12401214D01*
X10724214Y-12401214D02*
X10695643Y-12386929D01*
X10681357Y-12358357D01*
X10681357Y-12101214D01*
X10952786Y-12386929D02*
X10924214Y-12401214D01*
X10867071Y-12401214D01*
X10838500Y-12386929D01*
X10824214Y-12358357D01*
X10824214Y-12244071D01*
X10838500Y-12215500D01*
X10867071Y-12201214D01*
X10924214Y-12201214D01*
X10952786Y-12215500D01*
X10967071Y-12244071D01*
X10967071Y-12272643D01*
X10824214Y-12301214D01*
X11081357Y-12386929D02*
X11109928Y-12401214D01*
X11167071Y-12401214D01*
X11195643Y-12386929D01*
X11209928Y-12358357D01*
X11209928Y-12344071D01*
X11195643Y-12315500D01*
X11167071Y-12301214D01*
X11124214Y-12301214D01*
X11095643Y-12286929D01*
X11081357Y-12258357D01*
X11081357Y-12244071D01*
X11095643Y-12215500D01*
X11124214Y-12201214D01*
X11167071Y-12201214D01*
X11195643Y-12215500D01*
X11309928Y-12515500D02*
X11324214Y-12501214D01*
X11352786Y-12458357D01*
X11367071Y-12429786D01*
X11381357Y-12386929D01*
X11395643Y-12315500D01*
X11395643Y-12258357D01*
X11381357Y-12186929D01*
X11367071Y-12144071D01*
X11352786Y-12115500D01*
X11324214Y-12072643D01*
X11309928Y-12058357D01*
X4823500Y-12661500D02*
G75*
G03X4823500Y-12661500I-40000J0D01*
G01*
X5167071Y-12497214D02*
X5195643Y-12497214D01*
X5224214Y-12511500D01*
X5238500Y-12525786D01*
X5252786Y-12554357D01*
X5267071Y-12611500D01*
X5267071Y-12682929D01*
X5252786Y-12740071D01*
X5238500Y-12768643D01*
X5224214Y-12782929D01*
X5195643Y-12797214D01*
X5167071Y-12797214D01*
X5138500Y-12782929D01*
X5124214Y-12768643D01*
X5109928Y-12740071D01*
X5095643Y-12682929D01*
X5095643Y-12611500D01*
X5109928Y-12554357D01*
X5124214Y-12525786D01*
X5138500Y-12511500D01*
X5167071Y-12497214D01*
X5395643Y-12768643D02*
X5409928Y-12782929D01*
X5395643Y-12797214D01*
X5381357Y-12782929D01*
X5395643Y-12768643D01*
X5395643Y-12797214D01*
X5581357Y-12625786D02*
X5552786Y-12611500D01*
X5538500Y-12597214D01*
X5524214Y-12568643D01*
X5524214Y-12554357D01*
X5538500Y-12525786D01*
X5552786Y-12511500D01*
X5581357Y-12497214D01*
X5638500Y-12497214D01*
X5667071Y-12511500D01*
X5681357Y-12525786D01*
X5695643Y-12554357D01*
X5695643Y-12568643D01*
X5681357Y-12597214D01*
X5667071Y-12611500D01*
X5638500Y-12625786D01*
X5581357Y-12625786D01*
X5552786Y-12640071D01*
X5538500Y-12654357D01*
X5524214Y-12682929D01*
X5524214Y-12740071D01*
X5538500Y-12768643D01*
X5552786Y-12782929D01*
X5581357Y-12797214D01*
X5638500Y-12797214D01*
X5667071Y-12782929D01*
X5681357Y-12768643D01*
X5695643Y-12740071D01*
X5695643Y-12682929D01*
X5681357Y-12654357D01*
X5667071Y-12640071D01*
X5638500Y-12625786D01*
X5881357Y-12497214D02*
X5909928Y-12497214D01*
X5938500Y-12511500D01*
X5952786Y-12525786D01*
X5967071Y-12554357D01*
X5981357Y-12611500D01*
X5981357Y-12682929D01*
X5967071Y-12740071D01*
X5952786Y-12768643D01*
X5938500Y-12782929D01*
X5909928Y-12797214D01*
X5881357Y-12797214D01*
X5852786Y-12782929D01*
X5838500Y-12768643D01*
X5824214Y-12740071D01*
X5809928Y-12682929D01*
X5809928Y-12611500D01*
X5824214Y-12554357D01*
X5838500Y-12525786D01*
X5852786Y-12511500D01*
X5881357Y-12497214D01*
X6109928Y-12797214D02*
X6109928Y-12597214D01*
X6109928Y-12625786D02*
X6124214Y-12611500D01*
X6152786Y-12597214D01*
X6195643Y-12597214D01*
X6224214Y-12611500D01*
X6238500Y-12640071D01*
X6238500Y-12797214D01*
X6238500Y-12640071D02*
X6252786Y-12611500D01*
X6281357Y-12597214D01*
X6324214Y-12597214D01*
X6352786Y-12611500D01*
X6367071Y-12640071D01*
X6367071Y-12797214D01*
X6509928Y-12797214D02*
X6509928Y-12597214D01*
X6509928Y-12625786D02*
X6524214Y-12611500D01*
X6552786Y-12597214D01*
X6595643Y-12597214D01*
X6624214Y-12611500D01*
X6638500Y-12640071D01*
X6638500Y-12797214D01*
X6638500Y-12640071D02*
X6652786Y-12611500D01*
X6681357Y-12597214D01*
X6724214Y-12597214D01*
X6752786Y-12611500D01*
X6767071Y-12640071D01*
X6767071Y-12797214D01*
X7352786Y-12482929D02*
X7095643Y-12868643D01*
X7738500Y-12497214D02*
X7767071Y-12497214D01*
X7795643Y-12511500D01*
X7809928Y-12525786D01*
X7824214Y-12554357D01*
X7838500Y-12611500D01*
X7838500Y-12682929D01*
X7824214Y-12740071D01*
X7809928Y-12768643D01*
X7795643Y-12782929D01*
X7767071Y-12797214D01*
X7738500Y-12797214D01*
X7709928Y-12782929D01*
X7695643Y-12768643D01*
X7681357Y-12740071D01*
X7667071Y-12682929D01*
X7667071Y-12611500D01*
X7681357Y-12554357D01*
X7695643Y-12525786D01*
X7709928Y-12511500D01*
X7738500Y-12497214D01*
X7967071Y-12768643D02*
X7981357Y-12782929D01*
X7967071Y-12797214D01*
X7952786Y-12782929D01*
X7967071Y-12768643D01*
X7967071Y-12797214D01*
X8167071Y-12497214D02*
X8195643Y-12497214D01*
X8224214Y-12511500D01*
X8238500Y-12525786D01*
X8252786Y-12554357D01*
X8267071Y-12611500D01*
X8267071Y-12682929D01*
X8252786Y-12740071D01*
X8238500Y-12768643D01*
X8224214Y-12782929D01*
X8195643Y-12797214D01*
X8167071Y-12797214D01*
X8138500Y-12782929D01*
X8124214Y-12768643D01*
X8109928Y-12740071D01*
X8095643Y-12682929D01*
X8095643Y-12611500D01*
X8109928Y-12554357D01*
X8124214Y-12525786D01*
X8138500Y-12511500D01*
X8167071Y-12497214D01*
X8367071Y-12497214D02*
X8552786Y-12497214D01*
X8452786Y-12611500D01*
X8495643Y-12611500D01*
X8524214Y-12625786D01*
X8538500Y-12640071D01*
X8552786Y-12668643D01*
X8552786Y-12740071D01*
X8538500Y-12768643D01*
X8524214Y-12782929D01*
X8495643Y-12797214D01*
X8409928Y-12797214D01*
X8381357Y-12782929D01*
X8367071Y-12768643D01*
X8838500Y-12797214D02*
X8667071Y-12797214D01*
X8752786Y-12797214D02*
X8752786Y-12497214D01*
X8724214Y-12540071D01*
X8695643Y-12568643D01*
X8667071Y-12582929D01*
X8952786Y-12497214D02*
X8952786Y-12554357D01*
X9067071Y-12497214D02*
X9067071Y-12554357D01*
X9509928Y-12911500D02*
X9495643Y-12897214D01*
X9467071Y-12854357D01*
X9452786Y-12825786D01*
X9438500Y-12782929D01*
X9424214Y-12711500D01*
X9424214Y-12654357D01*
X9438500Y-12582929D01*
X9452786Y-12540071D01*
X9467071Y-12511500D01*
X9495643Y-12468643D01*
X9509928Y-12454357D01*
X9595643Y-12497214D02*
X9795643Y-12497214D01*
X9667071Y-12797214D01*
X10138500Y-12797214D02*
X10138500Y-12497214D01*
X10267071Y-12797214D02*
X10267071Y-12640071D01*
X10252786Y-12611500D01*
X10224214Y-12597214D01*
X10181357Y-12597214D01*
X10152786Y-12611500D01*
X10138500Y-12625786D01*
X10452786Y-12797214D02*
X10424214Y-12782929D01*
X10409928Y-12768643D01*
X10395643Y-12740071D01*
X10395643Y-12654357D01*
X10409928Y-12625786D01*
X10424214Y-12611500D01*
X10452786Y-12597214D01*
X10495643Y-12597214D01*
X10524214Y-12611500D01*
X10538500Y-12625786D01*
X10552786Y-12654357D01*
X10552786Y-12740071D01*
X10538500Y-12768643D01*
X10524214Y-12782929D01*
X10495643Y-12797214D01*
X10452786Y-12797214D01*
X10724214Y-12797214D02*
X10695643Y-12782929D01*
X10681357Y-12754357D01*
X10681357Y-12497214D01*
X10952786Y-12782929D02*
X10924214Y-12797214D01*
X10867071Y-12797214D01*
X10838500Y-12782929D01*
X10824214Y-12754357D01*
X10824214Y-12640071D01*
X10838500Y-12611500D01*
X10867071Y-12597214D01*
X10924214Y-12597214D01*
X10952786Y-12611500D01*
X10967071Y-12640071D01*
X10967071Y-12668643D01*
X10824214Y-12697214D01*
X11081357Y-12782929D02*
X11109928Y-12797214D01*
X11167071Y-12797214D01*
X11195643Y-12782929D01*
X11209928Y-12754357D01*
X11209928Y-12740071D01*
X11195643Y-12711500D01*
X11167071Y-12697214D01*
X11124214Y-12697214D01*
X11095643Y-12682929D01*
X11081357Y-12654357D01*
X11081357Y-12640071D01*
X11095643Y-12611500D01*
X11124214Y-12597214D01*
X11167071Y-12597214D01*
X11195643Y-12611500D01*
X11309928Y-12911500D02*
X11324214Y-12897214D01*
X11352786Y-12854357D01*
X11367071Y-12825786D01*
X11381357Y-12782929D01*
X11395643Y-12711500D01*
X11395643Y-12654357D01*
X11381357Y-12582929D01*
X11367071Y-12540071D01*
X11352786Y-12511500D01*
X11324214Y-12468643D01*
X11309928Y-12454357D01*
X4779000Y-13013000D02*
X4779000Y-13102000D01*
X4734500Y-13057500D02*
X4823500Y-13057500D01*
X5167071Y-12893214D02*
X5195643Y-12893214D01*
X5224214Y-12907500D01*
X5238500Y-12921786D01*
X5252786Y-12950357D01*
X5267071Y-13007500D01*
X5267071Y-13078929D01*
X5252786Y-13136071D01*
X5238500Y-13164643D01*
X5224214Y-13178929D01*
X5195643Y-13193214D01*
X5167071Y-13193214D01*
X5138500Y-13178929D01*
X5124214Y-13164643D01*
X5109928Y-13136071D01*
X5095643Y-13078929D01*
X5095643Y-13007500D01*
X5109928Y-12950357D01*
X5124214Y-12921786D01*
X5138500Y-12907500D01*
X5167071Y-12893214D01*
X5395643Y-13164643D02*
X5409928Y-13178929D01*
X5395643Y-13193214D01*
X5381357Y-13178929D01*
X5395643Y-13164643D01*
X5395643Y-13193214D01*
X5581357Y-13021786D02*
X5552786Y-13007500D01*
X5538500Y-12993214D01*
X5524214Y-12964643D01*
X5524214Y-12950357D01*
X5538500Y-12921786D01*
X5552786Y-12907500D01*
X5581357Y-12893214D01*
X5638500Y-12893214D01*
X5667071Y-12907500D01*
X5681357Y-12921786D01*
X5695643Y-12950357D01*
X5695643Y-12964643D01*
X5681357Y-12993214D01*
X5667071Y-13007500D01*
X5638500Y-13021786D01*
X5581357Y-13021786D01*
X5552786Y-13036071D01*
X5538500Y-13050357D01*
X5524214Y-13078929D01*
X5524214Y-13136071D01*
X5538500Y-13164643D01*
X5552786Y-13178929D01*
X5581357Y-13193214D01*
X5638500Y-13193214D01*
X5667071Y-13178929D01*
X5681357Y-13164643D01*
X5695643Y-13136071D01*
X5695643Y-13078929D01*
X5681357Y-13050357D01*
X5667071Y-13036071D01*
X5638500Y-13021786D01*
X5838500Y-13193214D02*
X5895643Y-13193214D01*
X5924214Y-13178929D01*
X5938500Y-13164643D01*
X5967071Y-13121786D01*
X5981357Y-13064643D01*
X5981357Y-12950357D01*
X5967071Y-12921786D01*
X5952786Y-12907500D01*
X5924214Y-12893214D01*
X5867071Y-12893214D01*
X5838500Y-12907500D01*
X5824214Y-12921786D01*
X5809928Y-12950357D01*
X5809928Y-13021786D01*
X5824214Y-13050357D01*
X5838500Y-13064643D01*
X5867071Y-13078929D01*
X5924214Y-13078929D01*
X5952786Y-13064643D01*
X5967071Y-13050357D01*
X5981357Y-13021786D01*
X6109928Y-13193214D02*
X6109928Y-12993214D01*
X6109928Y-13021786D02*
X6124214Y-13007500D01*
X6152786Y-12993214D01*
X6195643Y-12993214D01*
X6224214Y-13007500D01*
X6238500Y-13036071D01*
X6238500Y-13193214D01*
X6238500Y-13036071D02*
X6252786Y-13007500D01*
X6281357Y-12993214D01*
X6324214Y-12993214D01*
X6352786Y-13007500D01*
X6367071Y-13036071D01*
X6367071Y-13193214D01*
X6509928Y-13193214D02*
X6509928Y-12993214D01*
X6509928Y-13021786D02*
X6524214Y-13007500D01*
X6552786Y-12993214D01*
X6595643Y-12993214D01*
X6624214Y-13007500D01*
X6638500Y-13036071D01*
X6638500Y-13193214D01*
X6638500Y-13036071D02*
X6652786Y-13007500D01*
X6681357Y-12993214D01*
X6724214Y-12993214D01*
X6752786Y-13007500D01*
X6767071Y-13036071D01*
X6767071Y-13193214D01*
X7352786Y-12878929D02*
X7095643Y-13264643D01*
X7738500Y-12893214D02*
X7767071Y-12893214D01*
X7795643Y-12907500D01*
X7809928Y-12921786D01*
X7824214Y-12950357D01*
X7838500Y-13007500D01*
X7838500Y-13078929D01*
X7824214Y-13136071D01*
X7809928Y-13164643D01*
X7795643Y-13178929D01*
X7767071Y-13193214D01*
X7738500Y-13193214D01*
X7709928Y-13178929D01*
X7695643Y-13164643D01*
X7681357Y-13136071D01*
X7667071Y-13078929D01*
X7667071Y-13007500D01*
X7681357Y-12950357D01*
X7695643Y-12921786D01*
X7709928Y-12907500D01*
X7738500Y-12893214D01*
X7967071Y-13164643D02*
X7981357Y-13178929D01*
X7967071Y-13193214D01*
X7952786Y-13178929D01*
X7967071Y-13164643D01*
X7967071Y-13193214D01*
X8167071Y-12893214D02*
X8195643Y-12893214D01*
X8224214Y-12907500D01*
X8238500Y-12921786D01*
X8252786Y-12950357D01*
X8267071Y-13007500D01*
X8267071Y-13078929D01*
X8252786Y-13136071D01*
X8238500Y-13164643D01*
X8224214Y-13178929D01*
X8195643Y-13193214D01*
X8167071Y-13193214D01*
X8138500Y-13178929D01*
X8124214Y-13164643D01*
X8109928Y-13136071D01*
X8095643Y-13078929D01*
X8095643Y-13007500D01*
X8109928Y-12950357D01*
X8124214Y-12921786D01*
X8138500Y-12907500D01*
X8167071Y-12893214D01*
X8367071Y-12893214D02*
X8552786Y-12893214D01*
X8452786Y-13007500D01*
X8495643Y-13007500D01*
X8524214Y-13021786D01*
X8538500Y-13036071D01*
X8552786Y-13064643D01*
X8552786Y-13136071D01*
X8538500Y-13164643D01*
X8524214Y-13178929D01*
X8495643Y-13193214D01*
X8409928Y-13193214D01*
X8381357Y-13178929D01*
X8367071Y-13164643D01*
X8824214Y-12893214D02*
X8681357Y-12893214D01*
X8667071Y-13036071D01*
X8681357Y-13021786D01*
X8709928Y-13007500D01*
X8781357Y-13007500D01*
X8809928Y-13021786D01*
X8824214Y-13036071D01*
X8838500Y-13064643D01*
X8838500Y-13136071D01*
X8824214Y-13164643D01*
X8809928Y-13178929D01*
X8781357Y-13193214D01*
X8709928Y-13193214D01*
X8681357Y-13178929D01*
X8667071Y-13164643D01*
X8952786Y-12893214D02*
X8952786Y-12950357D01*
X9067071Y-12893214D02*
X9067071Y-12950357D01*
X9509928Y-13307500D02*
X9495643Y-13293214D01*
X9467071Y-13250357D01*
X9452786Y-13221786D01*
X9438500Y-13178929D01*
X9424214Y-13107500D01*
X9424214Y-13050357D01*
X9438500Y-12978929D01*
X9452786Y-12936071D01*
X9467071Y-12907500D01*
X9495643Y-12864643D01*
X9509928Y-12850357D01*
X9752786Y-12993214D02*
X9752786Y-13193214D01*
X9681357Y-12878929D02*
X9609928Y-13093214D01*
X9795643Y-13093214D01*
X10138500Y-13193214D02*
X10138500Y-12893214D01*
X10267071Y-13193214D02*
X10267071Y-13036071D01*
X10252786Y-13007500D01*
X10224214Y-12993214D01*
X10181357Y-12993214D01*
X10152786Y-13007500D01*
X10138500Y-13021786D01*
X10452786Y-13193214D02*
X10424214Y-13178929D01*
X10409928Y-13164643D01*
X10395643Y-13136071D01*
X10395643Y-13050357D01*
X10409928Y-13021786D01*
X10424214Y-13007500D01*
X10452786Y-12993214D01*
X10495643Y-12993214D01*
X10524214Y-13007500D01*
X10538500Y-13021786D01*
X10552786Y-13050357D01*
X10552786Y-13136071D01*
X10538500Y-13164643D01*
X10524214Y-13178929D01*
X10495643Y-13193214D01*
X10452786Y-13193214D01*
X10724214Y-13193214D02*
X10695643Y-13178929D01*
X10681357Y-13150357D01*
X10681357Y-12893214D01*
X10952786Y-13178929D02*
X10924214Y-13193214D01*
X10867071Y-13193214D01*
X10838500Y-13178929D01*
X10824214Y-13150357D01*
X10824214Y-13036071D01*
X10838500Y-13007500D01*
X10867071Y-12993214D01*
X10924214Y-12993214D01*
X10952786Y-13007500D01*
X10967071Y-13036071D01*
X10967071Y-13064643D01*
X10824214Y-13093214D01*
X11081357Y-13178929D02*
X11109928Y-13193214D01*
X11167071Y-13193214D01*
X11195643Y-13178929D01*
X11209928Y-13150357D01*
X11209928Y-13136071D01*
X11195643Y-13107500D01*
X11167071Y-13093214D01*
X11124214Y-13093214D01*
X11095643Y-13078929D01*
X11081357Y-13050357D01*
X11081357Y-13036071D01*
X11095643Y-13007500D01*
X11124214Y-12993214D01*
X11167071Y-12993214D01*
X11195643Y-13007500D01*
X11309928Y-13307500D02*
X11324214Y-13293214D01*
X11352786Y-13250357D01*
X11367071Y-13221786D01*
X11381357Y-13178929D01*
X11395643Y-13107500D01*
X11395643Y-13050357D01*
X11381357Y-12978929D01*
X11367071Y-12936071D01*
X11352786Y-12907500D01*
X11324214Y-12864643D01*
X11309928Y-12850357D01*
X4808856Y-13488856D02*
X4808856Y-13418144D01*
X4738144Y-13418144D01*
X4738144Y-13488856D01*
X4808856Y-13488856D01*
X5267071Y-13589214D02*
X5095643Y-13589214D01*
X5181357Y-13589214D02*
X5181357Y-13289214D01*
X5152786Y-13332071D01*
X5124214Y-13360643D01*
X5095643Y-13374929D01*
X5395643Y-13560643D02*
X5409928Y-13574929D01*
X5395643Y-13589214D01*
X5381357Y-13574929D01*
X5395643Y-13560643D01*
X5395643Y-13589214D01*
X5595643Y-13289214D02*
X5624214Y-13289214D01*
X5652786Y-13303500D01*
X5667071Y-13317786D01*
X5681357Y-13346357D01*
X5695643Y-13403500D01*
X5695643Y-13474929D01*
X5681357Y-13532071D01*
X5667071Y-13560643D01*
X5652786Y-13574929D01*
X5624214Y-13589214D01*
X5595643Y-13589214D01*
X5567071Y-13574929D01*
X5552786Y-13560643D01*
X5538500Y-13532071D01*
X5524214Y-13474929D01*
X5524214Y-13403500D01*
X5538500Y-13346357D01*
X5552786Y-13317786D01*
X5567071Y-13303500D01*
X5595643Y-13289214D01*
X5881357Y-13289214D02*
X5909928Y-13289214D01*
X5938500Y-13303500D01*
X5952786Y-13317786D01*
X5967071Y-13346357D01*
X5981357Y-13403500D01*
X5981357Y-13474929D01*
X5967071Y-13532071D01*
X5952786Y-13560643D01*
X5938500Y-13574929D01*
X5909928Y-13589214D01*
X5881357Y-13589214D01*
X5852786Y-13574929D01*
X5838500Y-13560643D01*
X5824214Y-13532071D01*
X5809928Y-13474929D01*
X5809928Y-13403500D01*
X5824214Y-13346357D01*
X5838500Y-13317786D01*
X5852786Y-13303500D01*
X5881357Y-13289214D01*
X6109928Y-13589214D02*
X6109928Y-13389214D01*
X6109928Y-13417786D02*
X6124214Y-13403500D01*
X6152786Y-13389214D01*
X6195643Y-13389214D01*
X6224214Y-13403500D01*
X6238500Y-13432071D01*
X6238500Y-13589214D01*
X6238500Y-13432071D02*
X6252786Y-13403500D01*
X6281357Y-13389214D01*
X6324214Y-13389214D01*
X6352786Y-13403500D01*
X6367071Y-13432071D01*
X6367071Y-13589214D01*
X6509928Y-13589214D02*
X6509928Y-13389214D01*
X6509928Y-13417786D02*
X6524214Y-13403500D01*
X6552786Y-13389214D01*
X6595643Y-13389214D01*
X6624214Y-13403500D01*
X6638500Y-13432071D01*
X6638500Y-13589214D01*
X6638500Y-13432071D02*
X6652786Y-13403500D01*
X6681357Y-13389214D01*
X6724214Y-13389214D01*
X6752786Y-13403500D01*
X6767071Y-13432071D01*
X6767071Y-13589214D01*
X7352786Y-13274929D02*
X7095643Y-13660643D01*
X7738500Y-13289214D02*
X7767071Y-13289214D01*
X7795643Y-13303500D01*
X7809928Y-13317786D01*
X7824214Y-13346357D01*
X7838500Y-13403500D01*
X7838500Y-13474929D01*
X7824214Y-13532071D01*
X7809928Y-13560643D01*
X7795643Y-13574929D01*
X7767071Y-13589214D01*
X7738500Y-13589214D01*
X7709928Y-13574929D01*
X7695643Y-13560643D01*
X7681357Y-13532071D01*
X7667071Y-13474929D01*
X7667071Y-13403500D01*
X7681357Y-13346357D01*
X7695643Y-13317786D01*
X7709928Y-13303500D01*
X7738500Y-13289214D01*
X7967071Y-13560643D02*
X7981357Y-13574929D01*
X7967071Y-13589214D01*
X7952786Y-13574929D01*
X7967071Y-13560643D01*
X7967071Y-13589214D01*
X8167071Y-13289214D02*
X8195643Y-13289214D01*
X8224214Y-13303500D01*
X8238500Y-13317786D01*
X8252786Y-13346357D01*
X8267071Y-13403500D01*
X8267071Y-13474929D01*
X8252786Y-13532071D01*
X8238500Y-13560643D01*
X8224214Y-13574929D01*
X8195643Y-13589214D01*
X8167071Y-13589214D01*
X8138500Y-13574929D01*
X8124214Y-13560643D01*
X8109928Y-13532071D01*
X8095643Y-13474929D01*
X8095643Y-13403500D01*
X8109928Y-13346357D01*
X8124214Y-13317786D01*
X8138500Y-13303500D01*
X8167071Y-13289214D01*
X8367071Y-13289214D02*
X8552786Y-13289214D01*
X8452786Y-13403500D01*
X8495643Y-13403500D01*
X8524214Y-13417786D01*
X8538500Y-13432071D01*
X8552786Y-13460643D01*
X8552786Y-13532071D01*
X8538500Y-13560643D01*
X8524214Y-13574929D01*
X8495643Y-13589214D01*
X8409928Y-13589214D01*
X8381357Y-13574929D01*
X8367071Y-13560643D01*
X8695643Y-13589214D02*
X8752786Y-13589214D01*
X8781357Y-13574929D01*
X8795643Y-13560643D01*
X8824214Y-13517786D01*
X8838500Y-13460643D01*
X8838500Y-13346357D01*
X8824214Y-13317786D01*
X8809928Y-13303500D01*
X8781357Y-13289214D01*
X8724214Y-13289214D01*
X8695643Y-13303500D01*
X8681357Y-13317786D01*
X8667071Y-13346357D01*
X8667071Y-13417786D01*
X8681357Y-13446357D01*
X8695643Y-13460643D01*
X8724214Y-13474929D01*
X8781357Y-13474929D01*
X8809928Y-13460643D01*
X8824214Y-13446357D01*
X8838500Y-13417786D01*
X8952786Y-13289214D02*
X8952786Y-13346357D01*
X9067071Y-13289214D02*
X9067071Y-13346357D01*
X9509928Y-13703500D02*
X9495643Y-13689214D01*
X9467071Y-13646357D01*
X9452786Y-13617786D01*
X9438500Y-13574929D01*
X9424214Y-13503500D01*
X9424214Y-13446357D01*
X9438500Y-13374929D01*
X9452786Y-13332071D01*
X9467071Y-13303500D01*
X9495643Y-13260643D01*
X9509928Y-13246357D01*
X9638500Y-13589214D02*
X9695643Y-13589214D01*
X9724214Y-13574929D01*
X9738500Y-13560643D01*
X9767071Y-13517786D01*
X9781357Y-13460643D01*
X9781357Y-13346357D01*
X9767071Y-13317786D01*
X9752786Y-13303500D01*
X9724214Y-13289214D01*
X9667071Y-13289214D01*
X9638500Y-13303500D01*
X9624214Y-13317786D01*
X9609928Y-13346357D01*
X9609928Y-13417786D01*
X9624214Y-13446357D01*
X9638500Y-13460643D01*
X9667071Y-13474929D01*
X9724214Y-13474929D01*
X9752786Y-13460643D01*
X9767071Y-13446357D01*
X9781357Y-13417786D01*
X10138500Y-13589214D02*
X10138500Y-13289214D01*
X10267071Y-13589214D02*
X10267071Y-13432071D01*
X10252786Y-13403500D01*
X10224214Y-13389214D01*
X10181357Y-13389214D01*
X10152786Y-13403500D01*
X10138500Y-13417786D01*
X10452786Y-13589214D02*
X10424214Y-13574929D01*
X10409928Y-13560643D01*
X10395643Y-13532071D01*
X10395643Y-13446357D01*
X10409928Y-13417786D01*
X10424214Y-13403500D01*
X10452786Y-13389214D01*
X10495643Y-13389214D01*
X10524214Y-13403500D01*
X10538500Y-13417786D01*
X10552786Y-13446357D01*
X10552786Y-13532071D01*
X10538500Y-13560643D01*
X10524214Y-13574929D01*
X10495643Y-13589214D01*
X10452786Y-13589214D01*
X10724214Y-13589214D02*
X10695643Y-13574929D01*
X10681357Y-13546357D01*
X10681357Y-13289214D01*
X10952786Y-13574929D02*
X10924214Y-13589214D01*
X10867071Y-13589214D01*
X10838500Y-13574929D01*
X10824214Y-13546357D01*
X10824214Y-13432071D01*
X10838500Y-13403500D01*
X10867071Y-13389214D01*
X10924214Y-13389214D01*
X10952786Y-13403500D01*
X10967071Y-13432071D01*
X10967071Y-13460643D01*
X10824214Y-13489214D01*
X11081357Y-13574929D02*
X11109928Y-13589214D01*
X11167071Y-13589214D01*
X11195643Y-13574929D01*
X11209928Y-13546357D01*
X11209928Y-13532071D01*
X11195643Y-13503500D01*
X11167071Y-13489214D01*
X11124214Y-13489214D01*
X11095643Y-13474929D01*
X11081357Y-13446357D01*
X11081357Y-13432071D01*
X11095643Y-13403500D01*
X11124214Y-13389214D01*
X11167071Y-13389214D01*
X11195643Y-13403500D01*
X11309928Y-13703500D02*
X11324214Y-13689214D01*
X11352786Y-13646357D01*
X11367071Y-13617786D01*
X11381357Y-13574929D01*
X11395643Y-13503500D01*
X11395643Y-13446357D01*
X11381357Y-13374929D01*
X11367071Y-13332071D01*
X11352786Y-13303500D01*
X11324214Y-13260643D01*
X11309928Y-13246357D01*
X4763500Y-13909500D02*
X4823500Y-13849500D01*
X4763500Y-13789500D01*
X4703500Y-13849500D01*
X4763500Y-13909500D01*
X5267071Y-13985214D02*
X5095643Y-13985214D01*
X5181357Y-13985214D02*
X5181357Y-13685214D01*
X5152786Y-13728071D01*
X5124214Y-13756643D01*
X5095643Y-13770929D01*
X5395643Y-13956643D02*
X5409928Y-13970929D01*
X5395643Y-13985214D01*
X5381357Y-13970929D01*
X5395643Y-13956643D01*
X5395643Y-13985214D01*
X5524214Y-13713786D02*
X5538500Y-13699500D01*
X5567071Y-13685214D01*
X5638500Y-13685214D01*
X5667071Y-13699500D01*
X5681357Y-13713786D01*
X5695643Y-13742357D01*
X5695643Y-13770929D01*
X5681357Y-13813786D01*
X5509928Y-13985214D01*
X5695643Y-13985214D01*
X5881357Y-13685214D02*
X5909928Y-13685214D01*
X5938500Y-13699500D01*
X5952786Y-13713786D01*
X5967071Y-13742357D01*
X5981357Y-13799500D01*
X5981357Y-13870929D01*
X5967071Y-13928071D01*
X5952786Y-13956643D01*
X5938500Y-13970929D01*
X5909928Y-13985214D01*
X5881357Y-13985214D01*
X5852786Y-13970929D01*
X5838500Y-13956643D01*
X5824214Y-13928071D01*
X5809928Y-13870929D01*
X5809928Y-13799500D01*
X5824214Y-13742357D01*
X5838500Y-13713786D01*
X5852786Y-13699500D01*
X5881357Y-13685214D01*
X6109928Y-13985214D02*
X6109928Y-13785214D01*
X6109928Y-13813786D02*
X6124214Y-13799500D01*
X6152786Y-13785214D01*
X6195643Y-13785214D01*
X6224214Y-13799500D01*
X6238500Y-13828071D01*
X6238500Y-13985214D01*
X6238500Y-13828071D02*
X6252786Y-13799500D01*
X6281357Y-13785214D01*
X6324214Y-13785214D01*
X6352786Y-13799500D01*
X6367071Y-13828071D01*
X6367071Y-13985214D01*
X6509928Y-13985214D02*
X6509928Y-13785214D01*
X6509928Y-13813786D02*
X6524214Y-13799500D01*
X6552786Y-13785214D01*
X6595643Y-13785214D01*
X6624214Y-13799500D01*
X6638500Y-13828071D01*
X6638500Y-13985214D01*
X6638500Y-13828071D02*
X6652786Y-13799500D01*
X6681357Y-13785214D01*
X6724214Y-13785214D01*
X6752786Y-13799500D01*
X6767071Y-13828071D01*
X6767071Y-13985214D01*
X7352786Y-13670929D02*
X7095643Y-14056643D01*
X7738500Y-13685214D02*
X7767071Y-13685214D01*
X7795643Y-13699500D01*
X7809928Y-13713786D01*
X7824214Y-13742357D01*
X7838500Y-13799500D01*
X7838500Y-13870929D01*
X7824214Y-13928071D01*
X7809928Y-13956643D01*
X7795643Y-13970929D01*
X7767071Y-13985214D01*
X7738500Y-13985214D01*
X7709928Y-13970929D01*
X7695643Y-13956643D01*
X7681357Y-13928071D01*
X7667071Y-13870929D01*
X7667071Y-13799500D01*
X7681357Y-13742357D01*
X7695643Y-13713786D01*
X7709928Y-13699500D01*
X7738500Y-13685214D01*
X7967071Y-13956643D02*
X7981357Y-13970929D01*
X7967071Y-13985214D01*
X7952786Y-13970929D01*
X7967071Y-13956643D01*
X7967071Y-13985214D01*
X8167071Y-13685214D02*
X8195643Y-13685214D01*
X8224214Y-13699500D01*
X8238500Y-13713786D01*
X8252786Y-13742357D01*
X8267071Y-13799500D01*
X8267071Y-13870929D01*
X8252786Y-13928071D01*
X8238500Y-13956643D01*
X8224214Y-13970929D01*
X8195643Y-13985214D01*
X8167071Y-13985214D01*
X8138500Y-13970929D01*
X8124214Y-13956643D01*
X8109928Y-13928071D01*
X8095643Y-13870929D01*
X8095643Y-13799500D01*
X8109928Y-13742357D01*
X8124214Y-13713786D01*
X8138500Y-13699500D01*
X8167071Y-13685214D01*
X8524214Y-13785214D02*
X8524214Y-13985214D01*
X8452786Y-13670929D02*
X8381357Y-13885214D01*
X8567071Y-13885214D01*
X8652786Y-13685214D02*
X8852786Y-13685214D01*
X8724214Y-13985214D01*
X8952786Y-13685214D02*
X8952786Y-13742357D01*
X9067071Y-13685214D02*
X9067071Y-13742357D01*
X9509928Y-14099500D02*
X9495643Y-14085214D01*
X9467071Y-14042357D01*
X9452786Y-14013786D01*
X9438500Y-13970929D01*
X9424214Y-13899500D01*
X9424214Y-13842357D01*
X9438500Y-13770929D01*
X9452786Y-13728071D01*
X9467071Y-13699500D01*
X9495643Y-13656643D01*
X9509928Y-13642357D01*
X9667071Y-13813786D02*
X9638500Y-13799500D01*
X9624214Y-13785214D01*
X9609928Y-13756643D01*
X9609928Y-13742357D01*
X9624214Y-13713786D01*
X9638500Y-13699500D01*
X9667071Y-13685214D01*
X9724214Y-13685214D01*
X9752786Y-13699500D01*
X9767071Y-13713786D01*
X9781357Y-13742357D01*
X9781357Y-13756643D01*
X9767071Y-13785214D01*
X9752786Y-13799500D01*
X9724214Y-13813786D01*
X9667071Y-13813786D01*
X9638500Y-13828071D01*
X9624214Y-13842357D01*
X9609928Y-13870929D01*
X9609928Y-13928071D01*
X9624214Y-13956643D01*
X9638500Y-13970929D01*
X9667071Y-13985214D01*
X9724214Y-13985214D01*
X9752786Y-13970929D01*
X9767071Y-13956643D01*
X9781357Y-13928071D01*
X9781357Y-13870929D01*
X9767071Y-13842357D01*
X9752786Y-13828071D01*
X9724214Y-13813786D01*
X10138500Y-13985214D02*
X10138500Y-13685214D01*
X10267071Y-13985214D02*
X10267071Y-13828071D01*
X10252786Y-13799500D01*
X10224214Y-13785214D01*
X10181357Y-13785214D01*
X10152786Y-13799500D01*
X10138500Y-13813786D01*
X10452786Y-13985214D02*
X10424214Y-13970929D01*
X10409928Y-13956643D01*
X10395643Y-13928071D01*
X10395643Y-13842357D01*
X10409928Y-13813786D01*
X10424214Y-13799500D01*
X10452786Y-13785214D01*
X10495643Y-13785214D01*
X10524214Y-13799500D01*
X10538500Y-13813786D01*
X10552786Y-13842357D01*
X10552786Y-13928071D01*
X10538500Y-13956643D01*
X10524214Y-13970929D01*
X10495643Y-13985214D01*
X10452786Y-13985214D01*
X10724214Y-13985214D02*
X10695643Y-13970929D01*
X10681357Y-13942357D01*
X10681357Y-13685214D01*
X10952786Y-13970929D02*
X10924214Y-13985214D01*
X10867071Y-13985214D01*
X10838500Y-13970929D01*
X10824214Y-13942357D01*
X10824214Y-13828071D01*
X10838500Y-13799500D01*
X10867071Y-13785214D01*
X10924214Y-13785214D01*
X10952786Y-13799500D01*
X10967071Y-13828071D01*
X10967071Y-13856643D01*
X10824214Y-13885214D01*
X11081357Y-13970929D02*
X11109928Y-13985214D01*
X11167071Y-13985214D01*
X11195643Y-13970929D01*
X11209928Y-13942357D01*
X11209928Y-13928071D01*
X11195643Y-13899500D01*
X11167071Y-13885214D01*
X11124214Y-13885214D01*
X11095643Y-13870929D01*
X11081357Y-13842357D01*
X11081357Y-13828071D01*
X11095643Y-13799500D01*
X11124214Y-13785214D01*
X11167071Y-13785214D01*
X11195643Y-13799500D01*
X11309928Y-14099500D02*
X11324214Y-14085214D01*
X11352786Y-14042357D01*
X11367071Y-14013786D01*
X11381357Y-13970929D01*
X11395643Y-13899500D01*
X11395643Y-13842357D01*
X11381357Y-13770929D01*
X11367071Y-13728071D01*
X11352786Y-13699500D01*
X11324214Y-13656643D01*
X11309928Y-13642357D01*
X4683500Y-14175500D02*
X4823500Y-14315500D01*
X4823500Y-14175500D02*
X4683500Y-14315500D01*
X4823500Y-14245500D02*
G75*
G03X4823500Y-14245500I-70000J0D01*
G01*
X5267071Y-14381214D02*
X5095643Y-14381214D01*
X5181357Y-14381214D02*
X5181357Y-14081214D01*
X5152786Y-14124071D01*
X5124214Y-14152643D01*
X5095643Y-14166929D01*
X5395643Y-14352643D02*
X5409928Y-14366929D01*
X5395643Y-14381214D01*
X5381357Y-14366929D01*
X5395643Y-14352643D01*
X5395643Y-14381214D01*
X5667071Y-14181214D02*
X5667071Y-14381214D01*
X5595643Y-14066929D02*
X5524214Y-14281214D01*
X5709928Y-14281214D01*
X5881357Y-14081214D02*
X5909928Y-14081214D01*
X5938500Y-14095500D01*
X5952786Y-14109786D01*
X5967071Y-14138357D01*
X5981357Y-14195500D01*
X5981357Y-14266929D01*
X5967071Y-14324071D01*
X5952786Y-14352643D01*
X5938500Y-14366929D01*
X5909928Y-14381214D01*
X5881357Y-14381214D01*
X5852786Y-14366929D01*
X5838500Y-14352643D01*
X5824214Y-14324071D01*
X5809928Y-14266929D01*
X5809928Y-14195500D01*
X5824214Y-14138357D01*
X5838500Y-14109786D01*
X5852786Y-14095500D01*
X5881357Y-14081214D01*
X6109928Y-14381214D02*
X6109928Y-14181214D01*
X6109928Y-14209786D02*
X6124214Y-14195500D01*
X6152786Y-14181214D01*
X6195643Y-14181214D01*
X6224214Y-14195500D01*
X6238500Y-14224071D01*
X6238500Y-14381214D01*
X6238500Y-14224071D02*
X6252786Y-14195500D01*
X6281357Y-14181214D01*
X6324214Y-14181214D01*
X6352786Y-14195500D01*
X6367071Y-14224071D01*
X6367071Y-14381214D01*
X6509928Y-14381214D02*
X6509928Y-14181214D01*
X6509928Y-14209786D02*
X6524214Y-14195500D01*
X6552786Y-14181214D01*
X6595643Y-14181214D01*
X6624214Y-14195500D01*
X6638500Y-14224071D01*
X6638500Y-14381214D01*
X6638500Y-14224071D02*
X6652786Y-14195500D01*
X6681357Y-14181214D01*
X6724214Y-14181214D01*
X6752786Y-14195500D01*
X6767071Y-14224071D01*
X6767071Y-14381214D01*
X7352786Y-14066929D02*
X7095643Y-14452643D01*
X7738500Y-14081214D02*
X7767071Y-14081214D01*
X7795643Y-14095500D01*
X7809928Y-14109786D01*
X7824214Y-14138357D01*
X7838500Y-14195500D01*
X7838500Y-14266929D01*
X7824214Y-14324071D01*
X7809928Y-14352643D01*
X7795643Y-14366929D01*
X7767071Y-14381214D01*
X7738500Y-14381214D01*
X7709928Y-14366929D01*
X7695643Y-14352643D01*
X7681357Y-14324071D01*
X7667071Y-14266929D01*
X7667071Y-14195500D01*
X7681357Y-14138357D01*
X7695643Y-14109786D01*
X7709928Y-14095500D01*
X7738500Y-14081214D01*
X7967071Y-14352643D02*
X7981357Y-14366929D01*
X7967071Y-14381214D01*
X7952786Y-14366929D01*
X7967071Y-14352643D01*
X7967071Y-14381214D01*
X8167071Y-14081214D02*
X8195643Y-14081214D01*
X8224214Y-14095500D01*
X8238500Y-14109786D01*
X8252786Y-14138357D01*
X8267071Y-14195500D01*
X8267071Y-14266929D01*
X8252786Y-14324071D01*
X8238500Y-14352643D01*
X8224214Y-14366929D01*
X8195643Y-14381214D01*
X8167071Y-14381214D01*
X8138500Y-14366929D01*
X8124214Y-14352643D01*
X8109928Y-14324071D01*
X8095643Y-14266929D01*
X8095643Y-14195500D01*
X8109928Y-14138357D01*
X8124214Y-14109786D01*
X8138500Y-14095500D01*
X8167071Y-14081214D01*
X8538500Y-14081214D02*
X8395643Y-14081214D01*
X8381357Y-14224071D01*
X8395643Y-14209786D01*
X8424214Y-14195500D01*
X8495643Y-14195500D01*
X8524214Y-14209786D01*
X8538500Y-14224071D01*
X8552786Y-14252643D01*
X8552786Y-14324071D01*
X8538500Y-14352643D01*
X8524214Y-14366929D01*
X8495643Y-14381214D01*
X8424214Y-14381214D01*
X8395643Y-14366929D01*
X8381357Y-14352643D01*
X8824214Y-14081214D02*
X8681357Y-14081214D01*
X8667071Y-14224071D01*
X8681357Y-14209786D01*
X8709928Y-14195500D01*
X8781357Y-14195500D01*
X8809928Y-14209786D01*
X8824214Y-14224071D01*
X8838500Y-14252643D01*
X8838500Y-14324071D01*
X8824214Y-14352643D01*
X8809928Y-14366929D01*
X8781357Y-14381214D01*
X8709928Y-14381214D01*
X8681357Y-14366929D01*
X8667071Y-14352643D01*
X8952786Y-14081214D02*
X8952786Y-14138357D01*
X9067071Y-14081214D02*
X9067071Y-14138357D01*
X9509928Y-14495500D02*
X9495643Y-14481214D01*
X9467071Y-14438357D01*
X9452786Y-14409786D01*
X9438500Y-14366929D01*
X9424214Y-14295500D01*
X9424214Y-14238357D01*
X9438500Y-14166929D01*
X9452786Y-14124071D01*
X9467071Y-14095500D01*
X9495643Y-14052643D01*
X9509928Y-14038357D01*
X9752786Y-14081214D02*
X9695643Y-14081214D01*
X9667071Y-14095500D01*
X9652786Y-14109786D01*
X9624214Y-14152643D01*
X9609928Y-14209786D01*
X9609928Y-14324071D01*
X9624214Y-14352643D01*
X9638500Y-14366929D01*
X9667071Y-14381214D01*
X9724214Y-14381214D01*
X9752786Y-14366929D01*
X9767071Y-14352643D01*
X9781357Y-14324071D01*
X9781357Y-14252643D01*
X9767071Y-14224071D01*
X9752786Y-14209786D01*
X9724214Y-14195500D01*
X9667071Y-14195500D01*
X9638500Y-14209786D01*
X9624214Y-14224071D01*
X9609928Y-14252643D01*
X10138500Y-14381214D02*
X10138500Y-14081214D01*
X10267071Y-14381214D02*
X10267071Y-14224071D01*
X10252786Y-14195500D01*
X10224214Y-14181214D01*
X10181357Y-14181214D01*
X10152786Y-14195500D01*
X10138500Y-14209786D01*
X10452786Y-14381214D02*
X10424214Y-14366929D01*
X10409928Y-14352643D01*
X10395643Y-14324071D01*
X10395643Y-14238357D01*
X10409928Y-14209786D01*
X10424214Y-14195500D01*
X10452786Y-14181214D01*
X10495643Y-14181214D01*
X10524214Y-14195500D01*
X10538500Y-14209786D01*
X10552786Y-14238357D01*
X10552786Y-14324071D01*
X10538500Y-14352643D01*
X10524214Y-14366929D01*
X10495643Y-14381214D01*
X10452786Y-14381214D01*
X10724214Y-14381214D02*
X10695643Y-14366929D01*
X10681357Y-14338357D01*
X10681357Y-14081214D01*
X10952786Y-14366929D02*
X10924214Y-14381214D01*
X10867071Y-14381214D01*
X10838500Y-14366929D01*
X10824214Y-14338357D01*
X10824214Y-14224071D01*
X10838500Y-14195500D01*
X10867071Y-14181214D01*
X10924214Y-14181214D01*
X10952786Y-14195500D01*
X10967071Y-14224071D01*
X10967071Y-14252643D01*
X10824214Y-14281214D01*
X11081357Y-14366929D02*
X11109928Y-14381214D01*
X11167071Y-14381214D01*
X11195643Y-14366929D01*
X11209928Y-14338357D01*
X11209928Y-14324071D01*
X11195643Y-14295500D01*
X11167071Y-14281214D01*
X11124214Y-14281214D01*
X11095643Y-14266929D01*
X11081357Y-14238357D01*
X11081357Y-14224071D01*
X11095643Y-14195500D01*
X11124214Y-14181214D01*
X11167071Y-14181214D01*
X11195643Y-14195500D01*
X11309928Y-14495500D02*
X11324214Y-14481214D01*
X11352786Y-14438357D01*
X11367071Y-14409786D01*
X11381357Y-14366929D01*
X11395643Y-14295500D01*
X11395643Y-14238357D01*
X11381357Y-14166929D01*
X11367071Y-14124071D01*
X11352786Y-14095500D01*
X11324214Y-14052643D01*
X11309928Y-14038357D01*
X4671500Y-14565500D02*
X4823500Y-14717500D01*
X4823500Y-14565500D02*
X4671500Y-14717500D01*
X4747500Y-14565500D02*
X4747500Y-14717500D01*
X4671500Y-14641500D02*
X4823500Y-14641500D01*
X5267071Y-14777214D02*
X5095643Y-14777214D01*
X5181357Y-14777214D02*
X5181357Y-14477214D01*
X5152786Y-14520071D01*
X5124214Y-14548643D01*
X5095643Y-14562929D01*
X5395643Y-14748643D02*
X5409928Y-14762929D01*
X5395643Y-14777214D01*
X5381357Y-14762929D01*
X5395643Y-14748643D01*
X5395643Y-14777214D01*
X5681357Y-14477214D02*
X5538500Y-14477214D01*
X5524214Y-14620071D01*
X5538500Y-14605786D01*
X5567071Y-14591500D01*
X5638500Y-14591500D01*
X5667071Y-14605786D01*
X5681357Y-14620071D01*
X5695643Y-14648643D01*
X5695643Y-14720071D01*
X5681357Y-14748643D01*
X5667071Y-14762929D01*
X5638500Y-14777214D01*
X5567071Y-14777214D01*
X5538500Y-14762929D01*
X5524214Y-14748643D01*
X5809928Y-14505786D02*
X5824214Y-14491500D01*
X5852786Y-14477214D01*
X5924214Y-14477214D01*
X5952786Y-14491500D01*
X5967071Y-14505786D01*
X5981357Y-14534357D01*
X5981357Y-14562929D01*
X5967071Y-14605786D01*
X5795643Y-14777214D01*
X5981357Y-14777214D01*
X6109928Y-14777214D02*
X6109928Y-14577214D01*
X6109928Y-14605786D02*
X6124214Y-14591500D01*
X6152786Y-14577214D01*
X6195643Y-14577214D01*
X6224214Y-14591500D01*
X6238500Y-14620071D01*
X6238500Y-14777214D01*
X6238500Y-14620071D02*
X6252786Y-14591500D01*
X6281357Y-14577214D01*
X6324214Y-14577214D01*
X6352786Y-14591500D01*
X6367071Y-14620071D01*
X6367071Y-14777214D01*
X6509928Y-14777214D02*
X6509928Y-14577214D01*
X6509928Y-14605786D02*
X6524214Y-14591500D01*
X6552786Y-14577214D01*
X6595643Y-14577214D01*
X6624214Y-14591500D01*
X6638500Y-14620071D01*
X6638500Y-14777214D01*
X6638500Y-14620071D02*
X6652786Y-14591500D01*
X6681357Y-14577214D01*
X6724214Y-14577214D01*
X6752786Y-14591500D01*
X6767071Y-14620071D01*
X6767071Y-14777214D01*
X7352786Y-14462929D02*
X7095643Y-14848643D01*
X7738500Y-14477214D02*
X7767071Y-14477214D01*
X7795643Y-14491500D01*
X7809928Y-14505786D01*
X7824214Y-14534357D01*
X7838500Y-14591500D01*
X7838500Y-14662929D01*
X7824214Y-14720071D01*
X7809928Y-14748643D01*
X7795643Y-14762929D01*
X7767071Y-14777214D01*
X7738500Y-14777214D01*
X7709928Y-14762929D01*
X7695643Y-14748643D01*
X7681357Y-14720071D01*
X7667071Y-14662929D01*
X7667071Y-14591500D01*
X7681357Y-14534357D01*
X7695643Y-14505786D01*
X7709928Y-14491500D01*
X7738500Y-14477214D01*
X7967071Y-14748643D02*
X7981357Y-14762929D01*
X7967071Y-14777214D01*
X7952786Y-14762929D01*
X7967071Y-14748643D01*
X7967071Y-14777214D01*
X8167071Y-14477214D02*
X8195643Y-14477214D01*
X8224214Y-14491500D01*
X8238500Y-14505786D01*
X8252786Y-14534357D01*
X8267071Y-14591500D01*
X8267071Y-14662929D01*
X8252786Y-14720071D01*
X8238500Y-14748643D01*
X8224214Y-14762929D01*
X8195643Y-14777214D01*
X8167071Y-14777214D01*
X8138500Y-14762929D01*
X8124214Y-14748643D01*
X8109928Y-14720071D01*
X8095643Y-14662929D01*
X8095643Y-14591500D01*
X8109928Y-14534357D01*
X8124214Y-14505786D01*
X8138500Y-14491500D01*
X8167071Y-14477214D01*
X8524214Y-14477214D02*
X8467071Y-14477214D01*
X8438500Y-14491500D01*
X8424214Y-14505786D01*
X8395643Y-14548643D01*
X8381357Y-14605786D01*
X8381357Y-14720071D01*
X8395643Y-14748643D01*
X8409928Y-14762929D01*
X8438500Y-14777214D01*
X8495643Y-14777214D01*
X8524214Y-14762929D01*
X8538500Y-14748643D01*
X8552786Y-14720071D01*
X8552786Y-14648643D01*
X8538500Y-14620071D01*
X8524214Y-14605786D01*
X8495643Y-14591500D01*
X8438500Y-14591500D01*
X8409928Y-14605786D01*
X8395643Y-14620071D01*
X8381357Y-14648643D01*
X8738500Y-14477214D02*
X8767071Y-14477214D01*
X8795643Y-14491500D01*
X8809928Y-14505786D01*
X8824214Y-14534357D01*
X8838500Y-14591500D01*
X8838500Y-14662929D01*
X8824214Y-14720071D01*
X8809928Y-14748643D01*
X8795643Y-14762929D01*
X8767071Y-14777214D01*
X8738500Y-14777214D01*
X8709928Y-14762929D01*
X8695643Y-14748643D01*
X8681357Y-14720071D01*
X8667071Y-14662929D01*
X8667071Y-14591500D01*
X8681357Y-14534357D01*
X8695643Y-14505786D01*
X8709928Y-14491500D01*
X8738500Y-14477214D01*
X8952786Y-14477214D02*
X8952786Y-14534357D01*
X9067071Y-14477214D02*
X9067071Y-14534357D01*
X9509928Y-14891500D02*
X9495643Y-14877214D01*
X9467071Y-14834357D01*
X9452786Y-14805786D01*
X9438500Y-14762929D01*
X9424214Y-14691500D01*
X9424214Y-14634357D01*
X9438500Y-14562929D01*
X9452786Y-14520071D01*
X9467071Y-14491500D01*
X9495643Y-14448643D01*
X9509928Y-14434357D01*
X9595643Y-14477214D02*
X9781357Y-14477214D01*
X9681357Y-14591500D01*
X9724214Y-14591500D01*
X9752786Y-14605786D01*
X9767071Y-14620071D01*
X9781357Y-14648643D01*
X9781357Y-14720071D01*
X9767071Y-14748643D01*
X9752786Y-14762929D01*
X9724214Y-14777214D01*
X9638500Y-14777214D01*
X9609928Y-14762929D01*
X9595643Y-14748643D01*
X10138500Y-14777214D02*
X10138500Y-14477214D01*
X10267071Y-14777214D02*
X10267071Y-14620071D01*
X10252786Y-14591500D01*
X10224214Y-14577214D01*
X10181357Y-14577214D01*
X10152786Y-14591500D01*
X10138500Y-14605786D01*
X10452786Y-14777214D02*
X10424214Y-14762929D01*
X10409928Y-14748643D01*
X10395643Y-14720071D01*
X10395643Y-14634357D01*
X10409928Y-14605786D01*
X10424214Y-14591500D01*
X10452786Y-14577214D01*
X10495643Y-14577214D01*
X10524214Y-14591500D01*
X10538500Y-14605786D01*
X10552786Y-14634357D01*
X10552786Y-14720071D01*
X10538500Y-14748643D01*
X10524214Y-14762929D01*
X10495643Y-14777214D01*
X10452786Y-14777214D01*
X10724214Y-14777214D02*
X10695643Y-14762929D01*
X10681357Y-14734357D01*
X10681357Y-14477214D01*
X10952786Y-14762929D02*
X10924214Y-14777214D01*
X10867071Y-14777214D01*
X10838500Y-14762929D01*
X10824214Y-14734357D01*
X10824214Y-14620071D01*
X10838500Y-14591500D01*
X10867071Y-14577214D01*
X10924214Y-14577214D01*
X10952786Y-14591500D01*
X10967071Y-14620071D01*
X10967071Y-14648643D01*
X10824214Y-14677214D01*
X11081357Y-14762929D02*
X11109928Y-14777214D01*
X11167071Y-14777214D01*
X11195643Y-14762929D01*
X11209928Y-14734357D01*
X11209928Y-14720071D01*
X11195643Y-14691500D01*
X11167071Y-14677214D01*
X11124214Y-14677214D01*
X11095643Y-14662929D01*
X11081357Y-14634357D01*
X11081357Y-14620071D01*
X11095643Y-14591500D01*
X11124214Y-14577214D01*
X11167071Y-14577214D01*
X11195643Y-14591500D01*
X11309928Y-14891500D02*
X11324214Y-14877214D01*
X11352786Y-14834357D01*
X11367071Y-14805786D01*
X11381357Y-14762929D01*
X11395643Y-14691500D01*
X11395643Y-14634357D01*
X11381357Y-14562929D01*
X11367071Y-14520071D01*
X11352786Y-14491500D01*
X11324214Y-14448643D01*
X11309928Y-14434357D01*
X4653500Y-14952500D02*
X4823500Y-15122500D01*
X4823500Y-14952500D02*
X4653500Y-15122500D01*
X4798605Y-15097605D02*
X4798605Y-14977395D01*
X4678395Y-14977395D01*
X4678395Y-15097605D01*
X4798605Y-15097605D01*
X5267071Y-15173214D02*
X5095643Y-15173214D01*
X5181357Y-15173214D02*
X5181357Y-14873214D01*
X5152786Y-14916071D01*
X5124214Y-14944643D01*
X5095643Y-14958929D01*
X5395643Y-15144643D02*
X5409928Y-15158929D01*
X5395643Y-15173214D01*
X5381357Y-15158929D01*
X5395643Y-15144643D01*
X5395643Y-15173214D01*
X5509928Y-14873214D02*
X5709928Y-14873214D01*
X5581357Y-15173214D01*
X5881357Y-14873214D02*
X5909928Y-14873214D01*
X5938500Y-14887500D01*
X5952786Y-14901786D01*
X5967071Y-14930357D01*
X5981357Y-14987500D01*
X5981357Y-15058929D01*
X5967071Y-15116071D01*
X5952786Y-15144643D01*
X5938500Y-15158929D01*
X5909928Y-15173214D01*
X5881357Y-15173214D01*
X5852786Y-15158929D01*
X5838500Y-15144643D01*
X5824214Y-15116071D01*
X5809928Y-15058929D01*
X5809928Y-14987500D01*
X5824214Y-14930357D01*
X5838500Y-14901786D01*
X5852786Y-14887500D01*
X5881357Y-14873214D01*
X6109928Y-15173214D02*
X6109928Y-14973214D01*
X6109928Y-15001786D02*
X6124214Y-14987500D01*
X6152786Y-14973214D01*
X6195643Y-14973214D01*
X6224214Y-14987500D01*
X6238500Y-15016071D01*
X6238500Y-15173214D01*
X6238500Y-15016071D02*
X6252786Y-14987500D01*
X6281357Y-14973214D01*
X6324214Y-14973214D01*
X6352786Y-14987500D01*
X6367071Y-15016071D01*
X6367071Y-15173214D01*
X6509928Y-15173214D02*
X6509928Y-14973214D01*
X6509928Y-15001786D02*
X6524214Y-14987500D01*
X6552786Y-14973214D01*
X6595643Y-14973214D01*
X6624214Y-14987500D01*
X6638500Y-15016071D01*
X6638500Y-15173214D01*
X6638500Y-15016071D02*
X6652786Y-14987500D01*
X6681357Y-14973214D01*
X6724214Y-14973214D01*
X6752786Y-14987500D01*
X6767071Y-15016071D01*
X6767071Y-15173214D01*
X7352786Y-14858929D02*
X7095643Y-15244643D01*
X7738500Y-14873214D02*
X7767071Y-14873214D01*
X7795643Y-14887500D01*
X7809928Y-14901786D01*
X7824214Y-14930357D01*
X7838500Y-14987500D01*
X7838500Y-15058929D01*
X7824214Y-15116071D01*
X7809928Y-15144643D01*
X7795643Y-15158929D01*
X7767071Y-15173214D01*
X7738500Y-15173214D01*
X7709928Y-15158929D01*
X7695643Y-15144643D01*
X7681357Y-15116071D01*
X7667071Y-15058929D01*
X7667071Y-14987500D01*
X7681357Y-14930357D01*
X7695643Y-14901786D01*
X7709928Y-14887500D01*
X7738500Y-14873214D01*
X7967071Y-15144643D02*
X7981357Y-15158929D01*
X7967071Y-15173214D01*
X7952786Y-15158929D01*
X7967071Y-15144643D01*
X7967071Y-15173214D01*
X8167071Y-14873214D02*
X8195643Y-14873214D01*
X8224214Y-14887500D01*
X8238500Y-14901786D01*
X8252786Y-14930357D01*
X8267071Y-14987500D01*
X8267071Y-15058929D01*
X8252786Y-15116071D01*
X8238500Y-15144643D01*
X8224214Y-15158929D01*
X8195643Y-15173214D01*
X8167071Y-15173214D01*
X8138500Y-15158929D01*
X8124214Y-15144643D01*
X8109928Y-15116071D01*
X8095643Y-15058929D01*
X8095643Y-14987500D01*
X8109928Y-14930357D01*
X8124214Y-14901786D01*
X8138500Y-14887500D01*
X8167071Y-14873214D01*
X8524214Y-14873214D02*
X8467071Y-14873214D01*
X8438500Y-14887500D01*
X8424214Y-14901786D01*
X8395643Y-14944643D01*
X8381357Y-15001786D01*
X8381357Y-15116071D01*
X8395643Y-15144643D01*
X8409928Y-15158929D01*
X8438500Y-15173214D01*
X8495643Y-15173214D01*
X8524214Y-15158929D01*
X8538500Y-15144643D01*
X8552786Y-15116071D01*
X8552786Y-15044643D01*
X8538500Y-15016071D01*
X8524214Y-15001786D01*
X8495643Y-14987500D01*
X8438500Y-14987500D01*
X8409928Y-15001786D01*
X8395643Y-15016071D01*
X8381357Y-15044643D01*
X8652786Y-14873214D02*
X8852786Y-14873214D01*
X8724214Y-15173214D01*
X8952786Y-14873214D02*
X8952786Y-14930357D01*
X9067071Y-14873214D02*
X9067071Y-14930357D01*
X9509928Y-15287500D02*
X9495643Y-15273214D01*
X9467071Y-15230357D01*
X9452786Y-15201786D01*
X9438500Y-15158929D01*
X9424214Y-15087500D01*
X9424214Y-15030357D01*
X9438500Y-14958929D01*
X9452786Y-14916071D01*
X9467071Y-14887500D01*
X9495643Y-14844643D01*
X9509928Y-14830357D01*
X9609928Y-14901786D02*
X9624214Y-14887500D01*
X9652786Y-14873214D01*
X9724214Y-14873214D01*
X9752786Y-14887500D01*
X9767071Y-14901786D01*
X9781357Y-14930357D01*
X9781357Y-14958929D01*
X9767071Y-15001786D01*
X9595643Y-15173214D01*
X9781357Y-15173214D01*
X10138500Y-15173214D02*
X10138500Y-14873214D01*
X10267071Y-15173214D02*
X10267071Y-15016071D01*
X10252786Y-14987500D01*
X10224214Y-14973214D01*
X10181357Y-14973214D01*
X10152786Y-14987500D01*
X10138500Y-15001786D01*
X10452786Y-15173214D02*
X10424214Y-15158929D01*
X10409928Y-15144643D01*
X10395643Y-15116071D01*
X10395643Y-15030357D01*
X10409928Y-15001786D01*
X10424214Y-14987500D01*
X10452786Y-14973214D01*
X10495643Y-14973214D01*
X10524214Y-14987500D01*
X10538500Y-15001786D01*
X10552786Y-15030357D01*
X10552786Y-15116071D01*
X10538500Y-15144643D01*
X10524214Y-15158929D01*
X10495643Y-15173214D01*
X10452786Y-15173214D01*
X10724214Y-15173214D02*
X10695643Y-15158929D01*
X10681357Y-15130357D01*
X10681357Y-14873214D01*
X10952786Y-15158929D02*
X10924214Y-15173214D01*
X10867071Y-15173214D01*
X10838500Y-15158929D01*
X10824214Y-15130357D01*
X10824214Y-15016071D01*
X10838500Y-14987500D01*
X10867071Y-14973214D01*
X10924214Y-14973214D01*
X10952786Y-14987500D01*
X10967071Y-15016071D01*
X10967071Y-15044643D01*
X10824214Y-15073214D01*
X11081357Y-15158929D02*
X11109928Y-15173214D01*
X11167071Y-15173214D01*
X11195643Y-15158929D01*
X11209928Y-15130357D01*
X11209928Y-15116071D01*
X11195643Y-15087500D01*
X11167071Y-15073214D01*
X11124214Y-15073214D01*
X11095643Y-15058929D01*
X11081357Y-15030357D01*
X11081357Y-15016071D01*
X11095643Y-14987500D01*
X11124214Y-14973214D01*
X11167071Y-14973214D01*
X11195643Y-14987500D01*
X11309928Y-15287500D02*
X11324214Y-15273214D01*
X11352786Y-15230357D01*
X11367071Y-15201786D01*
X11381357Y-15158929D01*
X11395643Y-15087500D01*
X11395643Y-15030357D01*
X11381357Y-14958929D01*
X11367071Y-14916071D01*
X11352786Y-14887500D01*
X11324214Y-14844643D01*
X11309928Y-14830357D01*
X4622500Y-15333000D02*
X4823500Y-15534000D01*
X4823500Y-15333000D02*
X4622500Y-15534000D01*
X4723000Y-15534000D02*
X4823500Y-15433500D01*
X4723000Y-15333000D01*
X4622500Y-15433500D01*
X4723000Y-15534000D01*
X5095643Y-15297786D02*
X5109928Y-15283500D01*
X5138500Y-15269214D01*
X5209928Y-15269214D01*
X5238500Y-15283500D01*
X5252786Y-15297786D01*
X5267071Y-15326357D01*
X5267071Y-15354929D01*
X5252786Y-15397786D01*
X5081357Y-15569214D01*
X5267071Y-15569214D01*
X5395643Y-15540643D02*
X5409928Y-15554929D01*
X5395643Y-15569214D01*
X5381357Y-15554929D01*
X5395643Y-15540643D01*
X5395643Y-15569214D01*
X5595643Y-15269214D02*
X5624214Y-15269214D01*
X5652786Y-15283500D01*
X5667071Y-15297786D01*
X5681357Y-15326357D01*
X5695643Y-15383500D01*
X5695643Y-15454929D01*
X5681357Y-15512071D01*
X5667071Y-15540643D01*
X5652786Y-15554929D01*
X5624214Y-15569214D01*
X5595643Y-15569214D01*
X5567071Y-15554929D01*
X5552786Y-15540643D01*
X5538500Y-15512071D01*
X5524214Y-15454929D01*
X5524214Y-15383500D01*
X5538500Y-15326357D01*
X5552786Y-15297786D01*
X5567071Y-15283500D01*
X5595643Y-15269214D01*
X5981357Y-15569214D02*
X5809928Y-15569214D01*
X5895643Y-15569214D02*
X5895643Y-15269214D01*
X5867071Y-15312071D01*
X5838500Y-15340643D01*
X5809928Y-15354929D01*
X6109928Y-15569214D02*
X6109928Y-15369214D01*
X6109928Y-15397786D02*
X6124214Y-15383500D01*
X6152786Y-15369214D01*
X6195643Y-15369214D01*
X6224214Y-15383500D01*
X6238500Y-15412071D01*
X6238500Y-15569214D01*
X6238500Y-15412071D02*
X6252786Y-15383500D01*
X6281357Y-15369214D01*
X6324214Y-15369214D01*
X6352786Y-15383500D01*
X6367071Y-15412071D01*
X6367071Y-15569214D01*
X6509928Y-15569214D02*
X6509928Y-15369214D01*
X6509928Y-15397786D02*
X6524214Y-15383500D01*
X6552786Y-15369214D01*
X6595643Y-15369214D01*
X6624214Y-15383500D01*
X6638500Y-15412071D01*
X6638500Y-15569214D01*
X6638500Y-15412071D02*
X6652786Y-15383500D01*
X6681357Y-15369214D01*
X6724214Y-15369214D01*
X6752786Y-15383500D01*
X6767071Y-15412071D01*
X6767071Y-15569214D01*
X7352786Y-15254929D02*
X7095643Y-15640643D01*
X7738500Y-15269214D02*
X7767071Y-15269214D01*
X7795643Y-15283500D01*
X7809928Y-15297786D01*
X7824214Y-15326357D01*
X7838500Y-15383500D01*
X7838500Y-15454929D01*
X7824214Y-15512071D01*
X7809928Y-15540643D01*
X7795643Y-15554929D01*
X7767071Y-15569214D01*
X7738500Y-15569214D01*
X7709928Y-15554929D01*
X7695643Y-15540643D01*
X7681357Y-15512071D01*
X7667071Y-15454929D01*
X7667071Y-15383500D01*
X7681357Y-15326357D01*
X7695643Y-15297786D01*
X7709928Y-15283500D01*
X7738500Y-15269214D01*
X7967071Y-15540643D02*
X7981357Y-15554929D01*
X7967071Y-15569214D01*
X7952786Y-15554929D01*
X7967071Y-15540643D01*
X7967071Y-15569214D01*
X8167071Y-15269214D02*
X8195643Y-15269214D01*
X8224214Y-15283500D01*
X8238500Y-15297786D01*
X8252786Y-15326357D01*
X8267071Y-15383500D01*
X8267071Y-15454929D01*
X8252786Y-15512071D01*
X8238500Y-15540643D01*
X8224214Y-15554929D01*
X8195643Y-15569214D01*
X8167071Y-15569214D01*
X8138500Y-15554929D01*
X8124214Y-15540643D01*
X8109928Y-15512071D01*
X8095643Y-15454929D01*
X8095643Y-15383500D01*
X8109928Y-15326357D01*
X8124214Y-15297786D01*
X8138500Y-15283500D01*
X8167071Y-15269214D01*
X8367071Y-15269214D02*
X8567071Y-15269214D01*
X8438500Y-15569214D01*
X8695643Y-15569214D02*
X8752786Y-15569214D01*
X8781357Y-15554929D01*
X8795643Y-15540643D01*
X8824214Y-15497786D01*
X8838500Y-15440643D01*
X8838500Y-15326357D01*
X8824214Y-15297786D01*
X8809928Y-15283500D01*
X8781357Y-15269214D01*
X8724214Y-15269214D01*
X8695643Y-15283500D01*
X8681357Y-15297786D01*
X8667071Y-15326357D01*
X8667071Y-15397786D01*
X8681357Y-15426357D01*
X8695643Y-15440643D01*
X8724214Y-15454929D01*
X8781357Y-15454929D01*
X8809928Y-15440643D01*
X8824214Y-15426357D01*
X8838500Y-15397786D01*
X8952786Y-15269214D02*
X8952786Y-15326357D01*
X9067071Y-15269214D02*
X9067071Y-15326357D01*
X9509928Y-15683500D02*
X9495643Y-15669214D01*
X9467071Y-15626357D01*
X9452786Y-15597786D01*
X9438500Y-15554929D01*
X9424214Y-15483500D01*
X9424214Y-15426357D01*
X9438500Y-15354929D01*
X9452786Y-15312071D01*
X9467071Y-15283500D01*
X9495643Y-15240643D01*
X9509928Y-15226357D01*
X9752786Y-15369214D02*
X9752786Y-15569214D01*
X9681357Y-15254929D02*
X9609928Y-15469214D01*
X9795643Y-15469214D01*
X10138500Y-15569214D02*
X10138500Y-15269214D01*
X10267071Y-15569214D02*
X10267071Y-15412071D01*
X10252786Y-15383500D01*
X10224214Y-15369214D01*
X10181357Y-15369214D01*
X10152786Y-15383500D01*
X10138500Y-15397786D01*
X10452786Y-15569214D02*
X10424214Y-15554929D01*
X10409928Y-15540643D01*
X10395643Y-15512071D01*
X10395643Y-15426357D01*
X10409928Y-15397786D01*
X10424214Y-15383500D01*
X10452786Y-15369214D01*
X10495643Y-15369214D01*
X10524214Y-15383500D01*
X10538500Y-15397786D01*
X10552786Y-15426357D01*
X10552786Y-15512071D01*
X10538500Y-15540643D01*
X10524214Y-15554929D01*
X10495643Y-15569214D01*
X10452786Y-15569214D01*
X10724214Y-15569214D02*
X10695643Y-15554929D01*
X10681357Y-15526357D01*
X10681357Y-15269214D01*
X10952786Y-15554929D02*
X10924214Y-15569214D01*
X10867071Y-15569214D01*
X10838500Y-15554929D01*
X10824214Y-15526357D01*
X10824214Y-15412071D01*
X10838500Y-15383500D01*
X10867071Y-15369214D01*
X10924214Y-15369214D01*
X10952786Y-15383500D01*
X10967071Y-15412071D01*
X10967071Y-15440643D01*
X10824214Y-15469214D01*
X11081357Y-15554929D02*
X11109928Y-15569214D01*
X11167071Y-15569214D01*
X11195643Y-15554929D01*
X11209928Y-15526357D01*
X11209928Y-15512071D01*
X11195643Y-15483500D01*
X11167071Y-15469214D01*
X11124214Y-15469214D01*
X11095643Y-15454929D01*
X11081357Y-15426357D01*
X11081357Y-15412071D01*
X11095643Y-15383500D01*
X11124214Y-15369214D01*
X11167071Y-15369214D01*
X11195643Y-15383500D01*
X11309928Y-15683500D02*
X11324214Y-15669214D01*
X11352786Y-15626357D01*
X11367071Y-15597786D01*
X11381357Y-15554929D01*
X11395643Y-15483500D01*
X11395643Y-15426357D01*
X11381357Y-15354929D01*
X11367071Y-15312071D01*
X11352786Y-15283500D01*
X11324214Y-15240643D01*
X11309928Y-15226357D01*
M02*
