M48
; DRILL file {KiCad (5.1.2)-2} date 8/08/2019 10:38:02 AM
; FORMAT={-:-/ absolute / inch / decimal}
; #@! TF.CreationDate,2019-08-08T10:38:02+12:00
; #@! TF.GenerationSoftware,Kicad,Pcbnew,(5.1.2)-2
; #@! TF.FileFunction,Plated,1,2,PTH
FMAT,2
INCH
T1C0.0157
T2C0.0315
T3C0.0350
T4C0.0394
T5C0.0472
T6C0.0551
T7C0.0598
T8C0.0669
T9C0.0791
%
G90
G05
T1
X2.63Y-3.395
X3.155Y-2.9087
X3.155Y-3.065
X3.245Y-2.785
X3.635Y-2.51
X3.66Y-2.685
X3.885Y-2.565
T2
X2.475Y-2.2
X2.875Y-2.2
X3.08Y-1.545
X3.08Y-1.645
X3.08Y-1.745
X2.16Y-3.57
X2.16Y-3.97
T3
X2.49Y-1.95
X2.59Y-1.95
X3.47Y-1.95
X3.57Y-1.95
T4
X3.65Y-3.265
X3.8469Y-3.265
X3.375Y-2.735
X3.475Y-2.735
X3.575Y-2.735
X3.65Y-3.735
X3.8469Y-3.735
X3.27Y-2.9
X3.37Y-2.9
T5
X2.88Y-3.685
X2.88Y-4.285
X2.37Y-3.685
X2.37Y-4.285
X3.135Y-3.685
X3.135Y-4.285
X2.625Y-3.685
X2.625Y-4.285
T6
X2.7Y-2.36
X2.7Y-2.76
X2.475Y-2.355
X2.475Y-2.755
X2.015Y-3.31
X2.015Y-3.71
T7
X3.38Y-4.285
X3.58Y-4.285
X3.78Y-4.285
T8
X2.15Y-2.3597
X2.15Y-2.9503
T9
X2.39Y-1.75
X2.79Y-1.75
X3.37Y-1.75
X3.77Y-1.75
T0
M30
