G04 #@! TF.GenerationSoftware,KiCad,Pcbnew,(5.1.2)-2*
G04 #@! TF.CreationDate,2019-08-08T10:37:33+12:00*
G04 #@! TF.ProjectId,Shutter_Driver,53687574-7465-4725-9f44-72697665722e,rev?*
G04 #@! TF.SameCoordinates,Original*
G04 #@! TF.FileFunction,Copper,L2,Bot*
G04 #@! TF.FilePolarity,Positive*
%FSLAX46Y46*%
G04 Gerber Fmt 4.6, Leading zero omitted, Abs format (unit mm)*
G04 Created by KiCad (PCBNEW (5.1.2)-2) date 2019-08-08 10:37:33*
%MOMM*%
%LPD*%
G04 APERTURE LIST*
%ADD10C,1.440000*%
%ADD11C,3.000000*%
%ADD12O,2.400000X2.400000*%
%ADD13C,2.400000*%
%ADD14C,2.000000*%
%ADD15R,2.000000X2.000000*%
%ADD16R,3.000000X3.000000*%
%ADD17O,1.700000X1.700000*%
%ADD18R,1.700000X1.700000*%
%ADD19O,1.600000X1.600000*%
%ADD20C,1.600000*%
%ADD21O,2.800000X2.800000*%
%ADD22R,2.800000X2.800000*%
%ADD23O,3.500000X7.000000*%
%ADD24O,1.600000X2.500000*%
%ADD25C,0.800000*%
%ADD26C,0.250000*%
%ADD27C,0.254000*%
G04 APERTURE END LIST*
D10*
X78232000Y-39243000D03*
X78232000Y-41783000D03*
X78232000Y-44323000D03*
D11*
X54610000Y-59937000D03*
X54610000Y-74937000D03*
D12*
X73152000Y-93599000D03*
D13*
X73152000Y-108839000D03*
D12*
X60198000Y-93599000D03*
D13*
X60198000Y-108839000D03*
D12*
X66675000Y-93599000D03*
D13*
X66675000Y-108839000D03*
D12*
X79629000Y-93599000D03*
D13*
X79629000Y-108839000D03*
D14*
X97710000Y-94869000D03*
D15*
X92710000Y-94869000D03*
D11*
X96012000Y-108839000D03*
X90932000Y-108839000D03*
D16*
X85852000Y-108839000D03*
D17*
X85725000Y-69469000D03*
X88265000Y-69469000D03*
D18*
X90805000Y-69469000D03*
D19*
X54864000Y-100838000D03*
D20*
X54864000Y-90678000D03*
D21*
X68580000Y-59944000D03*
D22*
X68580000Y-70104000D03*
D17*
X83058000Y-73660000D03*
D18*
X85598000Y-73660000D03*
D19*
X62865000Y-55880000D03*
D20*
X73025000Y-55880000D03*
D21*
X51181000Y-94234000D03*
D22*
X51181000Y-84074000D03*
D14*
X97710000Y-82931000D03*
D15*
X92710000Y-82931000D03*
D21*
X62865000Y-59817000D03*
D22*
X62865000Y-69977000D03*
D23*
X60706000Y-44450000D03*
X70866000Y-44450000D03*
D24*
X65786000Y-49530000D03*
X63246000Y-49530000D03*
D23*
X85598000Y-44450000D03*
X95758000Y-44450000D03*
D24*
X90678000Y-49530000D03*
X88138000Y-49530000D03*
D25*
X92964000Y-68199000D03*
X98679000Y-65151000D03*
X92329000Y-63754000D03*
X66802000Y-86233000D03*
X82423000Y-70739000D03*
X80137000Y-73881010D03*
X80137000Y-77851000D03*
D26*
X80137000Y-73881010D02*
X80137000Y-77851000D01*
D27*
G36*
X107544001Y-112370000D02*
G01*
X48920000Y-112370000D01*
X48920000Y-108174640D01*
X49955000Y-108174640D01*
X49955000Y-108741360D01*
X50065561Y-109297190D01*
X50282435Y-109820771D01*
X50597288Y-110291981D01*
X50998019Y-110692712D01*
X51469229Y-111007565D01*
X51992810Y-111224439D01*
X52548640Y-111335000D01*
X53115360Y-111335000D01*
X53671190Y-111224439D01*
X54194771Y-111007565D01*
X54665981Y-110692712D01*
X55066712Y-110291981D01*
X55381565Y-109820771D01*
X55598439Y-109297190D01*
X55709000Y-108741360D01*
X55709000Y-108649207D01*
X58271000Y-108649207D01*
X58271000Y-109028793D01*
X58345053Y-109401085D01*
X58490315Y-109751777D01*
X58701201Y-110067391D01*
X58969609Y-110335799D01*
X59285223Y-110546685D01*
X59635915Y-110691947D01*
X60008207Y-110766000D01*
X60387793Y-110766000D01*
X60760085Y-110691947D01*
X61110777Y-110546685D01*
X61426391Y-110335799D01*
X61694799Y-110067391D01*
X61905685Y-109751777D01*
X62050947Y-109401085D01*
X62125000Y-109028793D01*
X62125000Y-108649207D01*
X64748000Y-108649207D01*
X64748000Y-109028793D01*
X64822053Y-109401085D01*
X64967315Y-109751777D01*
X65178201Y-110067391D01*
X65446609Y-110335799D01*
X65762223Y-110546685D01*
X66112915Y-110691947D01*
X66485207Y-110766000D01*
X66864793Y-110766000D01*
X67237085Y-110691947D01*
X67587777Y-110546685D01*
X67903391Y-110335799D01*
X68171799Y-110067391D01*
X68382685Y-109751777D01*
X68527947Y-109401085D01*
X68602000Y-109028793D01*
X68602000Y-108649207D01*
X71225000Y-108649207D01*
X71225000Y-109028793D01*
X71299053Y-109401085D01*
X71444315Y-109751777D01*
X71655201Y-110067391D01*
X71923609Y-110335799D01*
X72239223Y-110546685D01*
X72589915Y-110691947D01*
X72962207Y-110766000D01*
X73341793Y-110766000D01*
X73714085Y-110691947D01*
X74064777Y-110546685D01*
X74380391Y-110335799D01*
X74648799Y-110067391D01*
X74859685Y-109751777D01*
X75004947Y-109401085D01*
X75079000Y-109028793D01*
X75079000Y-108649207D01*
X77702000Y-108649207D01*
X77702000Y-109028793D01*
X77776053Y-109401085D01*
X77921315Y-109751777D01*
X78132201Y-110067391D01*
X78400609Y-110335799D01*
X78716223Y-110546685D01*
X79066915Y-110691947D01*
X79439207Y-110766000D01*
X79818793Y-110766000D01*
X80191085Y-110691947D01*
X80541777Y-110546685D01*
X80857391Y-110335799D01*
X81125799Y-110067391D01*
X81336685Y-109751777D01*
X81481947Y-109401085D01*
X81556000Y-109028793D01*
X81556000Y-108649207D01*
X81481947Y-108276915D01*
X81336685Y-107926223D01*
X81125799Y-107610609D01*
X80857391Y-107342201D01*
X80852601Y-107339000D01*
X83621483Y-107339000D01*
X83621483Y-110339000D01*
X83635520Y-110481517D01*
X83677090Y-110618557D01*
X83744597Y-110744853D01*
X83835446Y-110855554D01*
X83946147Y-110946403D01*
X84072443Y-111013910D01*
X84209483Y-111055480D01*
X84352000Y-111069517D01*
X87352000Y-111069517D01*
X87494517Y-111055480D01*
X87631557Y-111013910D01*
X87757853Y-110946403D01*
X87868554Y-110855554D01*
X87959403Y-110744853D01*
X88026910Y-110618557D01*
X88068480Y-110481517D01*
X88082517Y-110339000D01*
X88082517Y-108619660D01*
X88705000Y-108619660D01*
X88705000Y-109058340D01*
X88790582Y-109488592D01*
X88958458Y-109893880D01*
X89202176Y-110258630D01*
X89512370Y-110568824D01*
X89877120Y-110812542D01*
X90282408Y-110980418D01*
X90712660Y-111066000D01*
X91151340Y-111066000D01*
X91581592Y-110980418D01*
X91986880Y-110812542D01*
X92351630Y-110568824D01*
X92589801Y-110330653D01*
X94699952Y-110330653D01*
X94855962Y-110646214D01*
X95230745Y-110837020D01*
X95635551Y-110951044D01*
X96054824Y-110983902D01*
X96472451Y-110934334D01*
X96872383Y-110804243D01*
X97168038Y-110646214D01*
X97324048Y-110330653D01*
X96012000Y-109018605D01*
X94699952Y-110330653D01*
X92589801Y-110330653D01*
X92661824Y-110258630D01*
X92905542Y-109893880D01*
X93073418Y-109488592D01*
X93159000Y-109058340D01*
X93159000Y-108881824D01*
X93867098Y-108881824D01*
X93916666Y-109299451D01*
X94046757Y-109699383D01*
X94204786Y-109995038D01*
X94520347Y-110151048D01*
X95832395Y-108839000D01*
X96191605Y-108839000D01*
X97503653Y-110151048D01*
X97819214Y-109995038D01*
X98010020Y-109620255D01*
X98124044Y-109215449D01*
X98156902Y-108796176D01*
X98107334Y-108378549D01*
X98041006Y-108174640D01*
X100755000Y-108174640D01*
X100755000Y-108741360D01*
X100865561Y-109297190D01*
X101082435Y-109820771D01*
X101397288Y-110291981D01*
X101798019Y-110692712D01*
X102269229Y-111007565D01*
X102792810Y-111224439D01*
X103348640Y-111335000D01*
X103915360Y-111335000D01*
X104471190Y-111224439D01*
X104994771Y-111007565D01*
X105465981Y-110692712D01*
X105866712Y-110291981D01*
X106181565Y-109820771D01*
X106398439Y-109297190D01*
X106509000Y-108741360D01*
X106509000Y-108174640D01*
X106398439Y-107618810D01*
X106181565Y-107095229D01*
X105866712Y-106624019D01*
X105465981Y-106223288D01*
X104994771Y-105908435D01*
X104471190Y-105691561D01*
X103915360Y-105581000D01*
X103348640Y-105581000D01*
X102792810Y-105691561D01*
X102269229Y-105908435D01*
X101798019Y-106223288D01*
X101397288Y-106624019D01*
X101082435Y-107095229D01*
X100865561Y-107618810D01*
X100755000Y-108174640D01*
X98041006Y-108174640D01*
X97977243Y-107978617D01*
X97819214Y-107682962D01*
X97503653Y-107526952D01*
X96191605Y-108839000D01*
X95832395Y-108839000D01*
X94520347Y-107526952D01*
X94204786Y-107682962D01*
X94013980Y-108057745D01*
X93899956Y-108462551D01*
X93867098Y-108881824D01*
X93159000Y-108881824D01*
X93159000Y-108619660D01*
X93073418Y-108189408D01*
X92905542Y-107784120D01*
X92661824Y-107419370D01*
X92589801Y-107347347D01*
X94699952Y-107347347D01*
X96012000Y-108659395D01*
X97324048Y-107347347D01*
X97168038Y-107031786D01*
X96793255Y-106840980D01*
X96388449Y-106726956D01*
X95969176Y-106694098D01*
X95551549Y-106743666D01*
X95151617Y-106873757D01*
X94855962Y-107031786D01*
X94699952Y-107347347D01*
X92589801Y-107347347D01*
X92351630Y-107109176D01*
X91986880Y-106865458D01*
X91581592Y-106697582D01*
X91151340Y-106612000D01*
X90712660Y-106612000D01*
X90282408Y-106697582D01*
X89877120Y-106865458D01*
X89512370Y-107109176D01*
X89202176Y-107419370D01*
X88958458Y-107784120D01*
X88790582Y-108189408D01*
X88705000Y-108619660D01*
X88082517Y-108619660D01*
X88082517Y-107339000D01*
X88068480Y-107196483D01*
X88026910Y-107059443D01*
X87959403Y-106933147D01*
X87868554Y-106822446D01*
X87757853Y-106731597D01*
X87631557Y-106664090D01*
X87494517Y-106622520D01*
X87352000Y-106608483D01*
X84352000Y-106608483D01*
X84209483Y-106622520D01*
X84072443Y-106664090D01*
X83946147Y-106731597D01*
X83835446Y-106822446D01*
X83744597Y-106933147D01*
X83677090Y-107059443D01*
X83635520Y-107196483D01*
X83621483Y-107339000D01*
X80852601Y-107339000D01*
X80541777Y-107131315D01*
X80191085Y-106986053D01*
X79818793Y-106912000D01*
X79439207Y-106912000D01*
X79066915Y-106986053D01*
X78716223Y-107131315D01*
X78400609Y-107342201D01*
X78132201Y-107610609D01*
X77921315Y-107926223D01*
X77776053Y-108276915D01*
X77702000Y-108649207D01*
X75079000Y-108649207D01*
X75004947Y-108276915D01*
X74859685Y-107926223D01*
X74648799Y-107610609D01*
X74380391Y-107342201D01*
X74064777Y-107131315D01*
X73714085Y-106986053D01*
X73341793Y-106912000D01*
X72962207Y-106912000D01*
X72589915Y-106986053D01*
X72239223Y-107131315D01*
X71923609Y-107342201D01*
X71655201Y-107610609D01*
X71444315Y-107926223D01*
X71299053Y-108276915D01*
X71225000Y-108649207D01*
X68602000Y-108649207D01*
X68527947Y-108276915D01*
X68382685Y-107926223D01*
X68171799Y-107610609D01*
X67903391Y-107342201D01*
X67587777Y-107131315D01*
X67237085Y-106986053D01*
X66864793Y-106912000D01*
X66485207Y-106912000D01*
X66112915Y-106986053D01*
X65762223Y-107131315D01*
X65446609Y-107342201D01*
X65178201Y-107610609D01*
X64967315Y-107926223D01*
X64822053Y-108276915D01*
X64748000Y-108649207D01*
X62125000Y-108649207D01*
X62050947Y-108276915D01*
X61905685Y-107926223D01*
X61694799Y-107610609D01*
X61426391Y-107342201D01*
X61110777Y-107131315D01*
X60760085Y-106986053D01*
X60387793Y-106912000D01*
X60008207Y-106912000D01*
X59635915Y-106986053D01*
X59285223Y-107131315D01*
X58969609Y-107342201D01*
X58701201Y-107610609D01*
X58490315Y-107926223D01*
X58345053Y-108276915D01*
X58271000Y-108649207D01*
X55709000Y-108649207D01*
X55709000Y-108174640D01*
X55598439Y-107618810D01*
X55381565Y-107095229D01*
X55066712Y-106624019D01*
X54665981Y-106223288D01*
X54194771Y-105908435D01*
X53671190Y-105691561D01*
X53115360Y-105581000D01*
X52548640Y-105581000D01*
X51992810Y-105691561D01*
X51469229Y-105908435D01*
X50998019Y-106223288D01*
X50597288Y-106624019D01*
X50282435Y-107095229D01*
X50065561Y-107618810D01*
X49955000Y-108174640D01*
X48920000Y-108174640D01*
X48920000Y-101187040D01*
X53472091Y-101187040D01*
X53566930Y-101451881D01*
X53711615Y-101693131D01*
X53900586Y-101901519D01*
X54126580Y-102069037D01*
X54380913Y-102189246D01*
X54514961Y-102229904D01*
X54737000Y-102107915D01*
X54737000Y-100965000D01*
X54991000Y-100965000D01*
X54991000Y-102107915D01*
X55213039Y-102229904D01*
X55347087Y-102189246D01*
X55601420Y-102069037D01*
X55827414Y-101901519D01*
X56016385Y-101693131D01*
X56161070Y-101451881D01*
X56255909Y-101187040D01*
X56134624Y-100965000D01*
X54991000Y-100965000D01*
X54737000Y-100965000D01*
X53593376Y-100965000D01*
X53472091Y-101187040D01*
X48920000Y-101187040D01*
X48920000Y-100488960D01*
X53472091Y-100488960D01*
X53593376Y-100711000D01*
X54737000Y-100711000D01*
X54737000Y-99568085D01*
X54991000Y-99568085D01*
X54991000Y-100711000D01*
X56134624Y-100711000D01*
X56255909Y-100488960D01*
X56161070Y-100224119D01*
X56016385Y-99982869D01*
X55827414Y-99774481D01*
X55601420Y-99606963D01*
X55347087Y-99486754D01*
X55213039Y-99446096D01*
X54991000Y-99568085D01*
X54737000Y-99568085D01*
X54514961Y-99446096D01*
X54380913Y-99486754D01*
X54126580Y-99606963D01*
X53900586Y-99774481D01*
X53711615Y-99982869D01*
X53566930Y-100224119D01*
X53472091Y-100488960D01*
X48920000Y-100488960D01*
X48920000Y-94234000D01*
X49043709Y-94234000D01*
X49084776Y-94650965D01*
X49206401Y-95051906D01*
X49403907Y-95421415D01*
X49669707Y-95745293D01*
X49993585Y-96011093D01*
X50363094Y-96208599D01*
X50764035Y-96330224D01*
X51076513Y-96361000D01*
X51285487Y-96361000D01*
X51597965Y-96330224D01*
X51998906Y-96208599D01*
X52368415Y-96011093D01*
X52692293Y-95745293D01*
X52958093Y-95421415D01*
X53155599Y-95051906D01*
X53277224Y-94650965D01*
X53318291Y-94234000D01*
X53277224Y-93817035D01*
X53211084Y-93599000D01*
X58261677Y-93599000D01*
X58298883Y-93976758D01*
X58409071Y-94339999D01*
X58588006Y-94674763D01*
X58828813Y-94968187D01*
X59122237Y-95208994D01*
X59457001Y-95387929D01*
X59820242Y-95498117D01*
X60103342Y-95526000D01*
X60292658Y-95526000D01*
X60575758Y-95498117D01*
X60938999Y-95387929D01*
X61273763Y-95208994D01*
X61567187Y-94968187D01*
X61807994Y-94674763D01*
X61986929Y-94339999D01*
X62097117Y-93976758D01*
X62134323Y-93599000D01*
X64738677Y-93599000D01*
X64775883Y-93976758D01*
X64886071Y-94339999D01*
X65065006Y-94674763D01*
X65305813Y-94968187D01*
X65599237Y-95208994D01*
X65934001Y-95387929D01*
X66297242Y-95498117D01*
X66580342Y-95526000D01*
X66769658Y-95526000D01*
X67052758Y-95498117D01*
X67415999Y-95387929D01*
X67750763Y-95208994D01*
X68044187Y-94968187D01*
X68284994Y-94674763D01*
X68463929Y-94339999D01*
X68574117Y-93976758D01*
X68611323Y-93599000D01*
X71215677Y-93599000D01*
X71252883Y-93976758D01*
X71363071Y-94339999D01*
X71542006Y-94674763D01*
X71782813Y-94968187D01*
X72076237Y-95208994D01*
X72411001Y-95387929D01*
X72774242Y-95498117D01*
X73057342Y-95526000D01*
X73246658Y-95526000D01*
X73529758Y-95498117D01*
X73892999Y-95387929D01*
X74227763Y-95208994D01*
X74521187Y-94968187D01*
X74761994Y-94674763D01*
X74940929Y-94339999D01*
X75051117Y-93976758D01*
X75088323Y-93599000D01*
X77692677Y-93599000D01*
X77729883Y-93976758D01*
X77840071Y-94339999D01*
X78019006Y-94674763D01*
X78259813Y-94968187D01*
X78553237Y-95208994D01*
X78888001Y-95387929D01*
X79251242Y-95498117D01*
X79534342Y-95526000D01*
X79723658Y-95526000D01*
X80006758Y-95498117D01*
X80369999Y-95387929D01*
X80704763Y-95208994D01*
X80998187Y-94968187D01*
X81238994Y-94674763D01*
X81417929Y-94339999D01*
X81528117Y-93976758D01*
X81538730Y-93869000D01*
X90979483Y-93869000D01*
X90979483Y-95869000D01*
X90993520Y-96011517D01*
X91035090Y-96148557D01*
X91102597Y-96274853D01*
X91193446Y-96385554D01*
X91304147Y-96476403D01*
X91430443Y-96543910D01*
X91567483Y-96585480D01*
X91710000Y-96599517D01*
X93710000Y-96599517D01*
X93852517Y-96585480D01*
X93989557Y-96543910D01*
X94115853Y-96476403D01*
X94226554Y-96385554D01*
X94317403Y-96274853D01*
X94384910Y-96148557D01*
X94426480Y-96011517D01*
X94427179Y-96004413D01*
X96754192Y-96004413D01*
X96849956Y-96268814D01*
X97139571Y-96409704D01*
X97451108Y-96491384D01*
X97772595Y-96510718D01*
X98091675Y-96466961D01*
X98396088Y-96361795D01*
X98570044Y-96268814D01*
X98665808Y-96004413D01*
X97710000Y-95048605D01*
X96754192Y-96004413D01*
X94427179Y-96004413D01*
X94440517Y-95869000D01*
X94440517Y-94931595D01*
X96068282Y-94931595D01*
X96112039Y-95250675D01*
X96217205Y-95555088D01*
X96310186Y-95729044D01*
X96574587Y-95824808D01*
X97530395Y-94869000D01*
X97889605Y-94869000D01*
X98845413Y-95824808D01*
X99109814Y-95729044D01*
X99250704Y-95439429D01*
X99332384Y-95127892D01*
X99351718Y-94806405D01*
X99307961Y-94487325D01*
X99202795Y-94182912D01*
X99109814Y-94008956D01*
X98845413Y-93913192D01*
X97889605Y-94869000D01*
X97530395Y-94869000D01*
X96574587Y-93913192D01*
X96310186Y-94008956D01*
X96169296Y-94298571D01*
X96087616Y-94610108D01*
X96068282Y-94931595D01*
X94440517Y-94931595D01*
X94440517Y-93869000D01*
X94427180Y-93733587D01*
X96754192Y-93733587D01*
X97710000Y-94689395D01*
X98665808Y-93733587D01*
X98570044Y-93469186D01*
X98280429Y-93328296D01*
X97968892Y-93246616D01*
X97647405Y-93227282D01*
X97328325Y-93271039D01*
X97023912Y-93376205D01*
X96849956Y-93469186D01*
X96754192Y-93733587D01*
X94427180Y-93733587D01*
X94426480Y-93726483D01*
X94384910Y-93589443D01*
X94317403Y-93463147D01*
X94226554Y-93352446D01*
X94115853Y-93261597D01*
X93989557Y-93194090D01*
X93852517Y-93152520D01*
X93710000Y-93138483D01*
X91710000Y-93138483D01*
X91567483Y-93152520D01*
X91430443Y-93194090D01*
X91304147Y-93261597D01*
X91193446Y-93352446D01*
X91102597Y-93463147D01*
X91035090Y-93589443D01*
X90993520Y-93726483D01*
X90979483Y-93869000D01*
X81538730Y-93869000D01*
X81565323Y-93599000D01*
X81528117Y-93221242D01*
X81417929Y-92858001D01*
X81238994Y-92523237D01*
X80998187Y-92229813D01*
X80704763Y-91989006D01*
X80369999Y-91810071D01*
X80006758Y-91699883D01*
X79723658Y-91672000D01*
X79534342Y-91672000D01*
X79251242Y-91699883D01*
X78888001Y-91810071D01*
X78553237Y-91989006D01*
X78259813Y-92229813D01*
X78019006Y-92523237D01*
X77840071Y-92858001D01*
X77729883Y-93221242D01*
X77692677Y-93599000D01*
X75088323Y-93599000D01*
X75051117Y-93221242D01*
X74940929Y-92858001D01*
X74761994Y-92523237D01*
X74521187Y-92229813D01*
X74227763Y-91989006D01*
X73892999Y-91810071D01*
X73529758Y-91699883D01*
X73246658Y-91672000D01*
X73057342Y-91672000D01*
X72774242Y-91699883D01*
X72411001Y-91810071D01*
X72076237Y-91989006D01*
X71782813Y-92229813D01*
X71542006Y-92523237D01*
X71363071Y-92858001D01*
X71252883Y-93221242D01*
X71215677Y-93599000D01*
X68611323Y-93599000D01*
X68574117Y-93221242D01*
X68463929Y-92858001D01*
X68284994Y-92523237D01*
X68044187Y-92229813D01*
X67750763Y-91989006D01*
X67415999Y-91810071D01*
X67052758Y-91699883D01*
X66769658Y-91672000D01*
X66580342Y-91672000D01*
X66297242Y-91699883D01*
X65934001Y-91810071D01*
X65599237Y-91989006D01*
X65305813Y-92229813D01*
X65065006Y-92523237D01*
X64886071Y-92858001D01*
X64775883Y-93221242D01*
X64738677Y-93599000D01*
X62134323Y-93599000D01*
X62097117Y-93221242D01*
X61986929Y-92858001D01*
X61807994Y-92523237D01*
X61567187Y-92229813D01*
X61273763Y-91989006D01*
X60938999Y-91810071D01*
X60575758Y-91699883D01*
X60292658Y-91672000D01*
X60103342Y-91672000D01*
X59820242Y-91699883D01*
X59457001Y-91810071D01*
X59122237Y-91989006D01*
X58828813Y-92229813D01*
X58588006Y-92523237D01*
X58409071Y-92858001D01*
X58298883Y-93221242D01*
X58261677Y-93599000D01*
X53211084Y-93599000D01*
X53155599Y-93416094D01*
X52958093Y-93046585D01*
X52692293Y-92722707D01*
X52368415Y-92456907D01*
X51998906Y-92259401D01*
X51597965Y-92137776D01*
X51285487Y-92107000D01*
X51076513Y-92107000D01*
X50764035Y-92137776D01*
X50363094Y-92259401D01*
X49993585Y-92456907D01*
X49669707Y-92722707D01*
X49403907Y-93046585D01*
X49206401Y-93416094D01*
X49084776Y-93817035D01*
X49043709Y-94234000D01*
X48920000Y-94234000D01*
X48920000Y-90527604D01*
X53337000Y-90527604D01*
X53337000Y-90828396D01*
X53395681Y-91123410D01*
X53510790Y-91401306D01*
X53677901Y-91651406D01*
X53890594Y-91864099D01*
X54140694Y-92031210D01*
X54418590Y-92146319D01*
X54713604Y-92205000D01*
X55014396Y-92205000D01*
X55309410Y-92146319D01*
X55587306Y-92031210D01*
X55837406Y-91864099D01*
X56050099Y-91651406D01*
X56217210Y-91401306D01*
X56332319Y-91123410D01*
X56391000Y-90828396D01*
X56391000Y-90527604D01*
X56332319Y-90232590D01*
X56217210Y-89954694D01*
X56050099Y-89704594D01*
X55837406Y-89491901D01*
X55587306Y-89324790D01*
X55309410Y-89209681D01*
X55014396Y-89151000D01*
X54713604Y-89151000D01*
X54418590Y-89209681D01*
X54140694Y-89324790D01*
X53890594Y-89491901D01*
X53677901Y-89704594D01*
X53510790Y-89954694D01*
X53395681Y-90232590D01*
X53337000Y-90527604D01*
X48920000Y-90527604D01*
X48920000Y-82674000D01*
X49050483Y-82674000D01*
X49050483Y-85474000D01*
X49064520Y-85616517D01*
X49106090Y-85753557D01*
X49173597Y-85879853D01*
X49264446Y-85990554D01*
X49375147Y-86081403D01*
X49501443Y-86148910D01*
X49638483Y-86190480D01*
X49781000Y-86204517D01*
X52581000Y-86204517D01*
X52723517Y-86190480D01*
X52860557Y-86148910D01*
X52986853Y-86081403D01*
X53097554Y-85990554D01*
X53188403Y-85879853D01*
X53255910Y-85753557D01*
X53297480Y-85616517D01*
X53311517Y-85474000D01*
X53311517Y-82674000D01*
X53297480Y-82531483D01*
X53255910Y-82394443D01*
X53188403Y-82268147D01*
X53097554Y-82157446D01*
X52986853Y-82066597D01*
X52860557Y-81999090D01*
X52723517Y-81957520D01*
X52581000Y-81943483D01*
X49781000Y-81943483D01*
X49638483Y-81957520D01*
X49501443Y-81999090D01*
X49375147Y-82066597D01*
X49264446Y-82157446D01*
X49173597Y-82268147D01*
X49106090Y-82394443D01*
X49064520Y-82531483D01*
X49050483Y-82674000D01*
X48920000Y-82674000D01*
X48920000Y-81931000D01*
X90979483Y-81931000D01*
X90979483Y-83931000D01*
X90993520Y-84073517D01*
X91035090Y-84210557D01*
X91102597Y-84336853D01*
X91193446Y-84447554D01*
X91304147Y-84538403D01*
X91430443Y-84605910D01*
X91567483Y-84647480D01*
X91710000Y-84661517D01*
X93710000Y-84661517D01*
X93852517Y-84647480D01*
X93989557Y-84605910D01*
X94115853Y-84538403D01*
X94226554Y-84447554D01*
X94317403Y-84336853D01*
X94384910Y-84210557D01*
X94426480Y-84073517D01*
X94427179Y-84066413D01*
X96754192Y-84066413D01*
X96849956Y-84330814D01*
X97139571Y-84471704D01*
X97451108Y-84553384D01*
X97772595Y-84572718D01*
X98091675Y-84528961D01*
X98396088Y-84423795D01*
X98570044Y-84330814D01*
X98665808Y-84066413D01*
X97710000Y-83110605D01*
X96754192Y-84066413D01*
X94427179Y-84066413D01*
X94440517Y-83931000D01*
X94440517Y-82993595D01*
X96068282Y-82993595D01*
X96112039Y-83312675D01*
X96217205Y-83617088D01*
X96310186Y-83791044D01*
X96574587Y-83886808D01*
X97530395Y-82931000D01*
X97889605Y-82931000D01*
X98845413Y-83886808D01*
X99109814Y-83791044D01*
X99250704Y-83501429D01*
X99332384Y-83189892D01*
X99351718Y-82868405D01*
X99307961Y-82549325D01*
X99202795Y-82244912D01*
X99109814Y-82070956D01*
X98845413Y-81975192D01*
X97889605Y-82931000D01*
X97530395Y-82931000D01*
X96574587Y-81975192D01*
X96310186Y-82070956D01*
X96169296Y-82360571D01*
X96087616Y-82672108D01*
X96068282Y-82993595D01*
X94440517Y-82993595D01*
X94440517Y-81931000D01*
X94427180Y-81795587D01*
X96754192Y-81795587D01*
X97710000Y-82751395D01*
X98665808Y-81795587D01*
X98570044Y-81531186D01*
X98280429Y-81390296D01*
X97968892Y-81308616D01*
X97647405Y-81289282D01*
X97328325Y-81333039D01*
X97023912Y-81438205D01*
X96849956Y-81531186D01*
X96754192Y-81795587D01*
X94427180Y-81795587D01*
X94426480Y-81788483D01*
X94384910Y-81651443D01*
X94317403Y-81525147D01*
X94226554Y-81414446D01*
X94115853Y-81323597D01*
X93989557Y-81256090D01*
X93852517Y-81214520D01*
X93710000Y-81200483D01*
X91710000Y-81200483D01*
X91567483Y-81214520D01*
X91430443Y-81256090D01*
X91304147Y-81323597D01*
X91193446Y-81414446D01*
X91102597Y-81525147D01*
X91035090Y-81651443D01*
X90993520Y-81788483D01*
X90979483Y-81931000D01*
X48920000Y-81931000D01*
X48920000Y-74717660D01*
X52383000Y-74717660D01*
X52383000Y-75156340D01*
X52468582Y-75586592D01*
X52636458Y-75991880D01*
X52880176Y-76356630D01*
X53190370Y-76666824D01*
X53555120Y-76910542D01*
X53960408Y-77078418D01*
X54390660Y-77164000D01*
X54829340Y-77164000D01*
X55259592Y-77078418D01*
X55664880Y-76910542D01*
X56029630Y-76666824D01*
X56339824Y-76356630D01*
X56583542Y-75991880D01*
X56751418Y-75586592D01*
X56837000Y-75156340D01*
X56837000Y-74717660D01*
X56751418Y-74287408D01*
X56583542Y-73882120D01*
X56508633Y-73770010D01*
X79010000Y-73770010D01*
X79010000Y-73992010D01*
X79053310Y-74209744D01*
X79138266Y-74414845D01*
X79261602Y-74599431D01*
X79285000Y-74622829D01*
X79285001Y-77109180D01*
X79261602Y-77132579D01*
X79138266Y-77317165D01*
X79053310Y-77522266D01*
X79010000Y-77740000D01*
X79010000Y-77962000D01*
X79053310Y-78179734D01*
X79138266Y-78384835D01*
X79261602Y-78569421D01*
X79418579Y-78726398D01*
X79603165Y-78849734D01*
X79808266Y-78934690D01*
X80026000Y-78978000D01*
X80248000Y-78978000D01*
X80465734Y-78934690D01*
X80670835Y-78849734D01*
X80855421Y-78726398D01*
X81012398Y-78569421D01*
X81135734Y-78384835D01*
X81220690Y-78179734D01*
X81264000Y-77962000D01*
X81264000Y-77740000D01*
X81220690Y-77522266D01*
X81135734Y-77317165D01*
X81012398Y-77132579D01*
X80989000Y-77109181D01*
X80989000Y-74622829D01*
X81012398Y-74599431D01*
X81135734Y-74414845D01*
X81220690Y-74209744D01*
X81264000Y-73992010D01*
X81264000Y-73770010D01*
X81242118Y-73660000D01*
X81473370Y-73660000D01*
X81503818Y-73969146D01*
X81593993Y-74266412D01*
X81740428Y-74540373D01*
X81937497Y-74780503D01*
X82177627Y-74977572D01*
X82451588Y-75124007D01*
X82748854Y-75214182D01*
X82980531Y-75237000D01*
X83135469Y-75237000D01*
X83367146Y-75214182D01*
X83664412Y-75124007D01*
X83938373Y-74977572D01*
X84101868Y-74843396D01*
X84140597Y-74915853D01*
X84231446Y-75026554D01*
X84342147Y-75117403D01*
X84468443Y-75184910D01*
X84605483Y-75226480D01*
X84748000Y-75240517D01*
X86448000Y-75240517D01*
X86590517Y-75226480D01*
X86727557Y-75184910D01*
X86853853Y-75117403D01*
X86964554Y-75026554D01*
X87055403Y-74915853D01*
X87122910Y-74789557D01*
X87164480Y-74652517D01*
X87178517Y-74510000D01*
X87178517Y-72810000D01*
X87164480Y-72667483D01*
X87122910Y-72530443D01*
X87055403Y-72404147D01*
X86964554Y-72293446D01*
X86853853Y-72202597D01*
X86727557Y-72135090D01*
X86590517Y-72093520D01*
X86448000Y-72079483D01*
X84748000Y-72079483D01*
X84605483Y-72093520D01*
X84468443Y-72135090D01*
X84342147Y-72202597D01*
X84231446Y-72293446D01*
X84140597Y-72404147D01*
X84101868Y-72476604D01*
X83938373Y-72342428D01*
X83664412Y-72195993D01*
X83367146Y-72105818D01*
X83135469Y-72083000D01*
X82980531Y-72083000D01*
X82748854Y-72105818D01*
X82451588Y-72195993D01*
X82177627Y-72342428D01*
X81937497Y-72539497D01*
X81740428Y-72779627D01*
X81593993Y-73053588D01*
X81503818Y-73350854D01*
X81473370Y-73660000D01*
X81242118Y-73660000D01*
X81220690Y-73552276D01*
X81135734Y-73347175D01*
X81012398Y-73162589D01*
X80855421Y-73005612D01*
X80670835Y-72882276D01*
X80465734Y-72797320D01*
X80248000Y-72754010D01*
X80026000Y-72754010D01*
X79808266Y-72797320D01*
X79603165Y-72882276D01*
X79418579Y-73005612D01*
X79261602Y-73162589D01*
X79138266Y-73347175D01*
X79053310Y-73552276D01*
X79010000Y-73770010D01*
X56508633Y-73770010D01*
X56339824Y-73517370D01*
X56029630Y-73207176D01*
X55664880Y-72963458D01*
X55259592Y-72795582D01*
X54829340Y-72710000D01*
X54390660Y-72710000D01*
X53960408Y-72795582D01*
X53555120Y-72963458D01*
X53190370Y-73207176D01*
X52880176Y-73517370D01*
X52636458Y-73882120D01*
X52468582Y-74287408D01*
X52383000Y-74717660D01*
X48920000Y-74717660D01*
X48920000Y-68577000D01*
X60734483Y-68577000D01*
X60734483Y-71377000D01*
X60748520Y-71519517D01*
X60790090Y-71656557D01*
X60857597Y-71782853D01*
X60948446Y-71893554D01*
X61059147Y-71984403D01*
X61185443Y-72051910D01*
X61322483Y-72093480D01*
X61465000Y-72107517D01*
X64265000Y-72107517D01*
X64407517Y-72093480D01*
X64544557Y-72051910D01*
X64670853Y-71984403D01*
X64781554Y-71893554D01*
X64872403Y-71782853D01*
X64939910Y-71656557D01*
X64981480Y-71519517D01*
X64995517Y-71377000D01*
X64995517Y-68704000D01*
X66449483Y-68704000D01*
X66449483Y-71504000D01*
X66463520Y-71646517D01*
X66505090Y-71783557D01*
X66572597Y-71909853D01*
X66663446Y-72020554D01*
X66774147Y-72111403D01*
X66900443Y-72178910D01*
X67037483Y-72220480D01*
X67180000Y-72234517D01*
X69980000Y-72234517D01*
X70122517Y-72220480D01*
X70259557Y-72178910D01*
X70385853Y-72111403D01*
X70496554Y-72020554D01*
X70587403Y-71909853D01*
X70654910Y-71783557D01*
X70696480Y-71646517D01*
X70710517Y-71504000D01*
X70710517Y-69469000D01*
X84140370Y-69469000D01*
X84170818Y-69778146D01*
X84260993Y-70075412D01*
X84407428Y-70349373D01*
X84604497Y-70589503D01*
X84844627Y-70786572D01*
X85118588Y-70933007D01*
X85415854Y-71023182D01*
X85647531Y-71046000D01*
X85802469Y-71046000D01*
X86034146Y-71023182D01*
X86331412Y-70933007D01*
X86605373Y-70786572D01*
X86845503Y-70589503D01*
X86995000Y-70407340D01*
X87144497Y-70589503D01*
X87384627Y-70786572D01*
X87658588Y-70933007D01*
X87955854Y-71023182D01*
X88187531Y-71046000D01*
X88342469Y-71046000D01*
X88574146Y-71023182D01*
X88871412Y-70933007D01*
X89145373Y-70786572D01*
X89308868Y-70652396D01*
X89347597Y-70724853D01*
X89438446Y-70835554D01*
X89549147Y-70926403D01*
X89675443Y-70993910D01*
X89812483Y-71035480D01*
X89955000Y-71049517D01*
X91655000Y-71049517D01*
X91797517Y-71035480D01*
X91934557Y-70993910D01*
X92060853Y-70926403D01*
X92171554Y-70835554D01*
X92262403Y-70724853D01*
X92329910Y-70598557D01*
X92371480Y-70461517D01*
X92385517Y-70319000D01*
X92385517Y-68619000D01*
X92371480Y-68476483D01*
X92329910Y-68339443D01*
X92262403Y-68213147D01*
X92171554Y-68102446D01*
X92060853Y-68011597D01*
X91934557Y-67944090D01*
X91797517Y-67902520D01*
X91655000Y-67888483D01*
X89955000Y-67888483D01*
X89812483Y-67902520D01*
X89675443Y-67944090D01*
X89549147Y-68011597D01*
X89438446Y-68102446D01*
X89347597Y-68213147D01*
X89308868Y-68285604D01*
X89145373Y-68151428D01*
X88871412Y-68004993D01*
X88574146Y-67914818D01*
X88342469Y-67892000D01*
X88187531Y-67892000D01*
X87955854Y-67914818D01*
X87658588Y-68004993D01*
X87384627Y-68151428D01*
X87144497Y-68348497D01*
X86995000Y-68530660D01*
X86845503Y-68348497D01*
X86605373Y-68151428D01*
X86331412Y-68004993D01*
X86034146Y-67914818D01*
X85802469Y-67892000D01*
X85647531Y-67892000D01*
X85415854Y-67914818D01*
X85118588Y-68004993D01*
X84844627Y-68151428D01*
X84604497Y-68348497D01*
X84407428Y-68588627D01*
X84260993Y-68862588D01*
X84170818Y-69159854D01*
X84140370Y-69469000D01*
X70710517Y-69469000D01*
X70710517Y-68704000D01*
X70696480Y-68561483D01*
X70654910Y-68424443D01*
X70587403Y-68298147D01*
X70496554Y-68187446D01*
X70385853Y-68096597D01*
X70259557Y-68029090D01*
X70122517Y-67987520D01*
X69980000Y-67973483D01*
X67180000Y-67973483D01*
X67037483Y-67987520D01*
X66900443Y-68029090D01*
X66774147Y-68096597D01*
X66663446Y-68187446D01*
X66572597Y-68298147D01*
X66505090Y-68424443D01*
X66463520Y-68561483D01*
X66449483Y-68704000D01*
X64995517Y-68704000D01*
X64995517Y-68577000D01*
X64981480Y-68434483D01*
X64939910Y-68297443D01*
X64872403Y-68171147D01*
X64781554Y-68060446D01*
X64670853Y-67969597D01*
X64544557Y-67902090D01*
X64407517Y-67860520D01*
X64265000Y-67846483D01*
X61465000Y-67846483D01*
X61322483Y-67860520D01*
X61185443Y-67902090D01*
X61059147Y-67969597D01*
X60948446Y-68060446D01*
X60857597Y-68171147D01*
X60790090Y-68297443D01*
X60748520Y-68434483D01*
X60734483Y-68577000D01*
X48920000Y-68577000D01*
X48920000Y-59717660D01*
X52383000Y-59717660D01*
X52383000Y-60156340D01*
X52468582Y-60586592D01*
X52636458Y-60991880D01*
X52880176Y-61356630D01*
X53190370Y-61666824D01*
X53555120Y-61910542D01*
X53960408Y-62078418D01*
X54390660Y-62164000D01*
X54829340Y-62164000D01*
X55259592Y-62078418D01*
X55664880Y-61910542D01*
X56029630Y-61666824D01*
X56339824Y-61356630D01*
X56583542Y-60991880D01*
X56751418Y-60586592D01*
X56837000Y-60156340D01*
X56837000Y-59817000D01*
X60727709Y-59817000D01*
X60768776Y-60233965D01*
X60890401Y-60634906D01*
X61087907Y-61004415D01*
X61353707Y-61328293D01*
X61677585Y-61594093D01*
X62047094Y-61791599D01*
X62448035Y-61913224D01*
X62760513Y-61944000D01*
X62969487Y-61944000D01*
X63281965Y-61913224D01*
X63682906Y-61791599D01*
X64052415Y-61594093D01*
X64376293Y-61328293D01*
X64642093Y-61004415D01*
X64839599Y-60634906D01*
X64914752Y-60387161D01*
X66593836Y-60387161D01*
X66718456Y-60766127D01*
X66914614Y-61113499D01*
X67174772Y-61415928D01*
X67488932Y-61661792D01*
X67845021Y-61841642D01*
X68136840Y-61930160D01*
X68453000Y-61815947D01*
X68453000Y-60071000D01*
X68707000Y-60071000D01*
X68707000Y-61815947D01*
X69023160Y-61930160D01*
X69314979Y-61841642D01*
X69671068Y-61661792D01*
X69985228Y-61415928D01*
X70245386Y-61113499D01*
X70441544Y-60766127D01*
X70566164Y-60387161D01*
X70452287Y-60071000D01*
X68707000Y-60071000D01*
X68453000Y-60071000D01*
X66707713Y-60071000D01*
X66593836Y-60387161D01*
X64914752Y-60387161D01*
X64961224Y-60233965D01*
X65002291Y-59817000D01*
X64971153Y-59500839D01*
X66593836Y-59500839D01*
X66707713Y-59817000D01*
X68453000Y-59817000D01*
X68453000Y-58072053D01*
X68707000Y-58072053D01*
X68707000Y-59817000D01*
X70452287Y-59817000D01*
X70566164Y-59500839D01*
X70441544Y-59121873D01*
X70245386Y-58774501D01*
X69985228Y-58472072D01*
X69671068Y-58226208D01*
X69314979Y-58046358D01*
X69023160Y-57957840D01*
X68707000Y-58072053D01*
X68453000Y-58072053D01*
X68136840Y-57957840D01*
X67845021Y-58046358D01*
X67488932Y-58226208D01*
X67174772Y-58472072D01*
X66914614Y-58774501D01*
X66718456Y-59121873D01*
X66593836Y-59500839D01*
X64971153Y-59500839D01*
X64961224Y-59400035D01*
X64839599Y-58999094D01*
X64642093Y-58629585D01*
X64376293Y-58305707D01*
X64052415Y-58039907D01*
X63682906Y-57842401D01*
X63281965Y-57720776D01*
X62969487Y-57690000D01*
X62760513Y-57690000D01*
X62448035Y-57720776D01*
X62047094Y-57842401D01*
X61677585Y-58039907D01*
X61353707Y-58305707D01*
X61087907Y-58629585D01*
X60890401Y-58999094D01*
X60768776Y-59400035D01*
X60727709Y-59817000D01*
X56837000Y-59817000D01*
X56837000Y-59717660D01*
X56751418Y-59287408D01*
X56583542Y-58882120D01*
X56339824Y-58517370D01*
X56029630Y-58207176D01*
X55664880Y-57963458D01*
X55259592Y-57795582D01*
X54829340Y-57710000D01*
X54390660Y-57710000D01*
X53960408Y-57795582D01*
X53555120Y-57963458D01*
X53190370Y-58207176D01*
X52880176Y-58517370D01*
X52636458Y-58882120D01*
X52468582Y-59287408D01*
X52383000Y-59717660D01*
X48920000Y-59717660D01*
X48920000Y-55880000D01*
X61330612Y-55880000D01*
X61360095Y-56179344D01*
X61447410Y-56467185D01*
X61589203Y-56732460D01*
X61780024Y-56964976D01*
X62012540Y-57155797D01*
X62277815Y-57297590D01*
X62565656Y-57384905D01*
X62789989Y-57407000D01*
X62940011Y-57407000D01*
X63164344Y-57384905D01*
X63452185Y-57297590D01*
X63717460Y-57155797D01*
X63949976Y-56964976D01*
X64140797Y-56732460D01*
X64282590Y-56467185D01*
X64369905Y-56179344D01*
X64399388Y-55880000D01*
X64384576Y-55729604D01*
X71498000Y-55729604D01*
X71498000Y-56030396D01*
X71556681Y-56325410D01*
X71671790Y-56603306D01*
X71838901Y-56853406D01*
X72051594Y-57066099D01*
X72301694Y-57233210D01*
X72579590Y-57348319D01*
X72874604Y-57407000D01*
X73175396Y-57407000D01*
X73470410Y-57348319D01*
X73748306Y-57233210D01*
X73998406Y-57066099D01*
X74211099Y-56853406D01*
X74378210Y-56603306D01*
X74493319Y-56325410D01*
X74552000Y-56030396D01*
X74552000Y-55729604D01*
X74493319Y-55434590D01*
X74378210Y-55156694D01*
X74211099Y-54906594D01*
X73998406Y-54693901D01*
X73748306Y-54526790D01*
X73470410Y-54411681D01*
X73175396Y-54353000D01*
X72874604Y-54353000D01*
X72579590Y-54411681D01*
X72301694Y-54526790D01*
X72051594Y-54693901D01*
X71838901Y-54906594D01*
X71671790Y-55156694D01*
X71556681Y-55434590D01*
X71498000Y-55729604D01*
X64384576Y-55729604D01*
X64369905Y-55580656D01*
X64282590Y-55292815D01*
X64140797Y-55027540D01*
X63949976Y-54795024D01*
X63717460Y-54604203D01*
X63452185Y-54462410D01*
X63164344Y-54375095D01*
X62940011Y-54353000D01*
X62789989Y-54353000D01*
X62565656Y-54375095D01*
X62277815Y-54462410D01*
X62012540Y-54604203D01*
X61780024Y-54795024D01*
X61589203Y-55027540D01*
X61447410Y-55292815D01*
X61360095Y-55580656D01*
X61330612Y-55880000D01*
X48920000Y-55880000D01*
X48920000Y-49657000D01*
X61811000Y-49657000D01*
X61811000Y-50107000D01*
X61863350Y-50384514D01*
X61968834Y-50646483D01*
X62123399Y-50882839D01*
X62321105Y-51084500D01*
X62554354Y-51243715D01*
X62814182Y-51354367D01*
X62896961Y-51371904D01*
X63119000Y-51249915D01*
X63119000Y-49657000D01*
X61811000Y-49657000D01*
X48920000Y-49657000D01*
X48920000Y-48953000D01*
X61811000Y-48953000D01*
X61811000Y-49403000D01*
X63119000Y-49403000D01*
X63119000Y-47810085D01*
X63373000Y-47810085D01*
X63373000Y-49403000D01*
X63393000Y-49403000D01*
X63393000Y-49657000D01*
X63373000Y-49657000D01*
X63373000Y-51249915D01*
X63595039Y-51371904D01*
X63677818Y-51354367D01*
X63937646Y-51243715D01*
X64170895Y-51084500D01*
X64368601Y-50882839D01*
X64461334Y-50741034D01*
X64510203Y-50832460D01*
X64701025Y-51064976D01*
X64933541Y-51255797D01*
X65198816Y-51397590D01*
X65486657Y-51484905D01*
X65786000Y-51514388D01*
X66085344Y-51484905D01*
X66373185Y-51397590D01*
X66638460Y-51255797D01*
X66870976Y-51064976D01*
X67061797Y-50832460D01*
X67203590Y-50567185D01*
X67290905Y-50279344D01*
X67313000Y-50055010D01*
X67313000Y-49004989D01*
X67290905Y-48780656D01*
X67203590Y-48492815D01*
X67061797Y-48227540D01*
X66870976Y-47995024D01*
X66638459Y-47804203D01*
X66373184Y-47662410D01*
X66085343Y-47575095D01*
X65786000Y-47545612D01*
X65486656Y-47575095D01*
X65198815Y-47662410D01*
X64933540Y-47804203D01*
X64701024Y-47995024D01*
X64510203Y-48227541D01*
X64461335Y-48318967D01*
X64368601Y-48177161D01*
X64170895Y-47975500D01*
X63937646Y-47816285D01*
X63677818Y-47705633D01*
X63595039Y-47688096D01*
X63373000Y-47810085D01*
X63119000Y-47810085D01*
X62896961Y-47688096D01*
X62814182Y-47705633D01*
X62554354Y-47816285D01*
X62321105Y-47975500D01*
X62123399Y-48177161D01*
X61968834Y-48413517D01*
X61863350Y-48675486D01*
X61811000Y-48953000D01*
X48920000Y-48953000D01*
X48920000Y-44577000D01*
X58321000Y-44577000D01*
X58321000Y-46327000D01*
X58391604Y-46789850D01*
X58551148Y-47230032D01*
X58793502Y-47630631D01*
X59109352Y-47976252D01*
X59486561Y-48253612D01*
X59910632Y-48452053D01*
X60207997Y-48532427D01*
X60579000Y-48422625D01*
X60579000Y-44577000D01*
X60833000Y-44577000D01*
X60833000Y-48422625D01*
X61204003Y-48532427D01*
X61501368Y-48452053D01*
X61925439Y-48253612D01*
X62302648Y-47976252D01*
X62618498Y-47630631D01*
X62860852Y-47230032D01*
X63020396Y-46789850D01*
X63091000Y-46327000D01*
X63091000Y-44577000D01*
X68481000Y-44577000D01*
X68481000Y-46327000D01*
X68551604Y-46789850D01*
X68711148Y-47230032D01*
X68953502Y-47630631D01*
X69269352Y-47976252D01*
X69646561Y-48253612D01*
X70070632Y-48452053D01*
X70367997Y-48532427D01*
X70739000Y-48422625D01*
X70739000Y-44577000D01*
X70993000Y-44577000D01*
X70993000Y-48422625D01*
X71364003Y-48532427D01*
X71661368Y-48452053D01*
X72085439Y-48253612D01*
X72462648Y-47976252D01*
X72778498Y-47630631D01*
X73020852Y-47230032D01*
X73180396Y-46789850D01*
X73251000Y-46327000D01*
X73251000Y-44577000D01*
X70993000Y-44577000D01*
X70739000Y-44577000D01*
X68481000Y-44577000D01*
X63091000Y-44577000D01*
X60833000Y-44577000D01*
X60579000Y-44577000D01*
X58321000Y-44577000D01*
X48920000Y-44577000D01*
X48920000Y-41118640D01*
X49955000Y-41118640D01*
X49955000Y-41685360D01*
X50065561Y-42241190D01*
X50282435Y-42764771D01*
X50597288Y-43235981D01*
X50998019Y-43636712D01*
X51469229Y-43951565D01*
X51992810Y-44168439D01*
X52548640Y-44279000D01*
X53115360Y-44279000D01*
X53671190Y-44168439D01*
X54194771Y-43951565D01*
X54665981Y-43636712D01*
X55066712Y-43235981D01*
X55381565Y-42764771D01*
X55460999Y-42573000D01*
X58321000Y-42573000D01*
X58321000Y-44323000D01*
X60579000Y-44323000D01*
X60579000Y-40477375D01*
X60833000Y-40477375D01*
X60833000Y-44323000D01*
X63091000Y-44323000D01*
X63091000Y-42573000D01*
X68481000Y-42573000D01*
X68481000Y-44323000D01*
X70739000Y-44323000D01*
X70739000Y-40477375D01*
X70993000Y-40477375D01*
X70993000Y-44323000D01*
X73251000Y-44323000D01*
X73251000Y-44180483D01*
X76785000Y-44180483D01*
X76785000Y-44465517D01*
X76840608Y-44745074D01*
X76949686Y-45008411D01*
X77108042Y-45245408D01*
X77309592Y-45446958D01*
X77546589Y-45605314D01*
X77809926Y-45714392D01*
X78089483Y-45770000D01*
X78374517Y-45770000D01*
X78654074Y-45714392D01*
X78917411Y-45605314D01*
X79154408Y-45446958D01*
X79355958Y-45245408D01*
X79514314Y-45008411D01*
X79623392Y-44745074D01*
X79679000Y-44465517D01*
X79679000Y-44180483D01*
X79623392Y-43900926D01*
X79514314Y-43637589D01*
X79355958Y-43400592D01*
X79154408Y-43199042D01*
X78917411Y-43040686D01*
X78831306Y-43005020D01*
X78926068Y-42954368D01*
X78987955Y-42718560D01*
X78847710Y-42578315D01*
X83121000Y-42578315D01*
X83121000Y-46321686D01*
X83156841Y-46685577D01*
X83298479Y-47152493D01*
X83528486Y-47582806D01*
X83838023Y-47959978D01*
X84215195Y-48269515D01*
X84645508Y-48499522D01*
X85112424Y-48641160D01*
X85598000Y-48688985D01*
X86083577Y-48641160D01*
X86550493Y-48499522D01*
X86783355Y-48375055D01*
X86720410Y-48492816D01*
X86633095Y-48780657D01*
X86611000Y-49004990D01*
X86611000Y-50055011D01*
X86633095Y-50279344D01*
X86720410Y-50567185D01*
X86862203Y-50832460D01*
X87053025Y-51064976D01*
X87285541Y-51255797D01*
X87550816Y-51397590D01*
X87838657Y-51484905D01*
X88138000Y-51514388D01*
X88437344Y-51484905D01*
X88725185Y-51397590D01*
X88990460Y-51255797D01*
X89222976Y-51064976D01*
X89408000Y-50839524D01*
X89593025Y-51064976D01*
X89825541Y-51255797D01*
X90090816Y-51397590D01*
X90378657Y-51484905D01*
X90678000Y-51514388D01*
X90977344Y-51484905D01*
X91265185Y-51397590D01*
X91530460Y-51255797D01*
X91762976Y-51064976D01*
X91953797Y-50832460D01*
X92095590Y-50567185D01*
X92182905Y-50279344D01*
X92205000Y-50055010D01*
X92205000Y-49004989D01*
X92182905Y-48780656D01*
X92095590Y-48492815D01*
X91953797Y-48227540D01*
X91762976Y-47995024D01*
X91530459Y-47804203D01*
X91265184Y-47662410D01*
X90977343Y-47575095D01*
X90678000Y-47545612D01*
X90378656Y-47575095D01*
X90090815Y-47662410D01*
X89825540Y-47804203D01*
X89593024Y-47995024D01*
X89408000Y-48220477D01*
X89222976Y-47995024D01*
X88990459Y-47804203D01*
X88725184Y-47662410D01*
X88437343Y-47575095D01*
X88138000Y-47545612D01*
X87838656Y-47575095D01*
X87619213Y-47641662D01*
X87667515Y-47582806D01*
X87897522Y-47152493D01*
X88039160Y-46685577D01*
X88075000Y-46321686D01*
X88075000Y-42578315D01*
X93281000Y-42578315D01*
X93281000Y-46321686D01*
X93316841Y-46685577D01*
X93458479Y-47152493D01*
X93688486Y-47582806D01*
X93998023Y-47959978D01*
X94375195Y-48269515D01*
X94805508Y-48499522D01*
X95272424Y-48641160D01*
X95758000Y-48688985D01*
X96243577Y-48641160D01*
X96710493Y-48499522D01*
X97140806Y-48269515D01*
X97517978Y-47959978D01*
X97827515Y-47582806D01*
X98057522Y-47152493D01*
X98199160Y-46685577D01*
X98235000Y-46321686D01*
X98235000Y-42578314D01*
X98199160Y-42214423D01*
X98057522Y-41747507D01*
X97827515Y-41317194D01*
X97664566Y-41118640D01*
X100755000Y-41118640D01*
X100755000Y-41685360D01*
X100865561Y-42241190D01*
X101082435Y-42764771D01*
X101397288Y-43235981D01*
X101798019Y-43636712D01*
X102269229Y-43951565D01*
X102792810Y-44168439D01*
X103348640Y-44279000D01*
X103915360Y-44279000D01*
X104471190Y-44168439D01*
X104994771Y-43951565D01*
X105465981Y-43636712D01*
X105866712Y-43235981D01*
X106181565Y-42764771D01*
X106398439Y-42241190D01*
X106509000Y-41685360D01*
X106509000Y-41118640D01*
X106398439Y-40562810D01*
X106181565Y-40039229D01*
X105866712Y-39568019D01*
X105465981Y-39167288D01*
X104994771Y-38852435D01*
X104471190Y-38635561D01*
X103915360Y-38525000D01*
X103348640Y-38525000D01*
X102792810Y-38635561D01*
X102269229Y-38852435D01*
X101798019Y-39167288D01*
X101397288Y-39568019D01*
X101082435Y-40039229D01*
X100865561Y-40562810D01*
X100755000Y-41118640D01*
X97664566Y-41118640D01*
X97517978Y-40940022D01*
X97140805Y-40630485D01*
X96710492Y-40400478D01*
X96243576Y-40258840D01*
X95758000Y-40211015D01*
X95272423Y-40258840D01*
X94805507Y-40400478D01*
X94375194Y-40630485D01*
X93998022Y-40940022D01*
X93688485Y-41317195D01*
X93458478Y-41747508D01*
X93316840Y-42214424D01*
X93281000Y-42578315D01*
X88075000Y-42578315D01*
X88075000Y-42578314D01*
X88039160Y-42214423D01*
X87897522Y-41747507D01*
X87667515Y-41317194D01*
X87357978Y-40940022D01*
X86980805Y-40630485D01*
X86550492Y-40400478D01*
X86083576Y-40258840D01*
X85598000Y-40211015D01*
X85112423Y-40258840D01*
X84645507Y-40400478D01*
X84215194Y-40630485D01*
X83838022Y-40940022D01*
X83528485Y-41317195D01*
X83298478Y-41747508D01*
X83156840Y-42214424D01*
X83121000Y-42578315D01*
X78847710Y-42578315D01*
X78232000Y-41962605D01*
X77476045Y-42718560D01*
X77537932Y-42954368D01*
X77639978Y-43002003D01*
X77546589Y-43040686D01*
X77309592Y-43199042D01*
X77108042Y-43400592D01*
X76949686Y-43637589D01*
X76840608Y-43900926D01*
X76785000Y-44180483D01*
X73251000Y-44180483D01*
X73251000Y-42573000D01*
X73180396Y-42110150D01*
X73088526Y-41856680D01*
X76872439Y-41856680D01*
X76912937Y-42120501D01*
X77004125Y-42371353D01*
X77060632Y-42477068D01*
X77296440Y-42538955D01*
X78052395Y-41783000D01*
X78411605Y-41783000D01*
X79167560Y-42538955D01*
X79403368Y-42477068D01*
X79516266Y-42235210D01*
X79579811Y-41975973D01*
X79591561Y-41709320D01*
X79551063Y-41445499D01*
X79459875Y-41194647D01*
X79403368Y-41088932D01*
X79167560Y-41027045D01*
X78411605Y-41783000D01*
X78052395Y-41783000D01*
X77296440Y-41027045D01*
X77060632Y-41088932D01*
X76947734Y-41330790D01*
X76884189Y-41590027D01*
X76872439Y-41856680D01*
X73088526Y-41856680D01*
X73020852Y-41669968D01*
X72778498Y-41269369D01*
X72462648Y-40923748D01*
X72085439Y-40646388D01*
X71661368Y-40447947D01*
X71364003Y-40367573D01*
X70993000Y-40477375D01*
X70739000Y-40477375D01*
X70367997Y-40367573D01*
X70070632Y-40447947D01*
X69646561Y-40646388D01*
X69269352Y-40923748D01*
X68953502Y-41269369D01*
X68711148Y-41669968D01*
X68551604Y-42110150D01*
X68481000Y-42573000D01*
X63091000Y-42573000D01*
X63020396Y-42110150D01*
X62860852Y-41669968D01*
X62618498Y-41269369D01*
X62302648Y-40923748D01*
X61925439Y-40646388D01*
X61501368Y-40447947D01*
X61204003Y-40367573D01*
X60833000Y-40477375D01*
X60579000Y-40477375D01*
X60207997Y-40367573D01*
X59910632Y-40447947D01*
X59486561Y-40646388D01*
X59109352Y-40923748D01*
X58793502Y-41269369D01*
X58551148Y-41669968D01*
X58391604Y-42110150D01*
X58321000Y-42573000D01*
X55460999Y-42573000D01*
X55598439Y-42241190D01*
X55709000Y-41685360D01*
X55709000Y-41118640D01*
X55598439Y-40562810D01*
X55381565Y-40039229D01*
X55066712Y-39568019D01*
X54665981Y-39167288D01*
X54566001Y-39100483D01*
X76785000Y-39100483D01*
X76785000Y-39385517D01*
X76840608Y-39665074D01*
X76949686Y-39928411D01*
X77108042Y-40165408D01*
X77309592Y-40366958D01*
X77546589Y-40525314D01*
X77632694Y-40560980D01*
X77537932Y-40611632D01*
X77476045Y-40847440D01*
X78232000Y-41603395D01*
X78987955Y-40847440D01*
X78926068Y-40611632D01*
X78824022Y-40563997D01*
X78917411Y-40525314D01*
X79154408Y-40366958D01*
X79355958Y-40165408D01*
X79514314Y-39928411D01*
X79623392Y-39665074D01*
X79679000Y-39385517D01*
X79679000Y-39100483D01*
X79623392Y-38820926D01*
X79514314Y-38557589D01*
X79355958Y-38320592D01*
X79154408Y-38119042D01*
X78917411Y-37960686D01*
X78654074Y-37851608D01*
X78374517Y-37796000D01*
X78089483Y-37796000D01*
X77809926Y-37851608D01*
X77546589Y-37960686D01*
X77309592Y-38119042D01*
X77108042Y-38320592D01*
X76949686Y-38557589D01*
X76840608Y-38820926D01*
X76785000Y-39100483D01*
X54566001Y-39100483D01*
X54194771Y-38852435D01*
X53671190Y-38635561D01*
X53115360Y-38525000D01*
X52548640Y-38525000D01*
X51992810Y-38635561D01*
X51469229Y-38852435D01*
X50998019Y-39167288D01*
X50597288Y-39568019D01*
X50282435Y-40039229D01*
X50065561Y-40562810D01*
X49955000Y-41118640D01*
X48920000Y-41118640D01*
X48920000Y-37490000D01*
X107544000Y-37490000D01*
X107544001Y-112370000D01*
X107544001Y-112370000D01*
G37*
X107544001Y-112370000D02*
X48920000Y-112370000D01*
X48920000Y-108174640D01*
X49955000Y-108174640D01*
X49955000Y-108741360D01*
X50065561Y-109297190D01*
X50282435Y-109820771D01*
X50597288Y-110291981D01*
X50998019Y-110692712D01*
X51469229Y-111007565D01*
X51992810Y-111224439D01*
X52548640Y-111335000D01*
X53115360Y-111335000D01*
X53671190Y-111224439D01*
X54194771Y-111007565D01*
X54665981Y-110692712D01*
X55066712Y-110291981D01*
X55381565Y-109820771D01*
X55598439Y-109297190D01*
X55709000Y-108741360D01*
X55709000Y-108649207D01*
X58271000Y-108649207D01*
X58271000Y-109028793D01*
X58345053Y-109401085D01*
X58490315Y-109751777D01*
X58701201Y-110067391D01*
X58969609Y-110335799D01*
X59285223Y-110546685D01*
X59635915Y-110691947D01*
X60008207Y-110766000D01*
X60387793Y-110766000D01*
X60760085Y-110691947D01*
X61110777Y-110546685D01*
X61426391Y-110335799D01*
X61694799Y-110067391D01*
X61905685Y-109751777D01*
X62050947Y-109401085D01*
X62125000Y-109028793D01*
X62125000Y-108649207D01*
X64748000Y-108649207D01*
X64748000Y-109028793D01*
X64822053Y-109401085D01*
X64967315Y-109751777D01*
X65178201Y-110067391D01*
X65446609Y-110335799D01*
X65762223Y-110546685D01*
X66112915Y-110691947D01*
X66485207Y-110766000D01*
X66864793Y-110766000D01*
X67237085Y-110691947D01*
X67587777Y-110546685D01*
X67903391Y-110335799D01*
X68171799Y-110067391D01*
X68382685Y-109751777D01*
X68527947Y-109401085D01*
X68602000Y-109028793D01*
X68602000Y-108649207D01*
X71225000Y-108649207D01*
X71225000Y-109028793D01*
X71299053Y-109401085D01*
X71444315Y-109751777D01*
X71655201Y-110067391D01*
X71923609Y-110335799D01*
X72239223Y-110546685D01*
X72589915Y-110691947D01*
X72962207Y-110766000D01*
X73341793Y-110766000D01*
X73714085Y-110691947D01*
X74064777Y-110546685D01*
X74380391Y-110335799D01*
X74648799Y-110067391D01*
X74859685Y-109751777D01*
X75004947Y-109401085D01*
X75079000Y-109028793D01*
X75079000Y-108649207D01*
X77702000Y-108649207D01*
X77702000Y-109028793D01*
X77776053Y-109401085D01*
X77921315Y-109751777D01*
X78132201Y-110067391D01*
X78400609Y-110335799D01*
X78716223Y-110546685D01*
X79066915Y-110691947D01*
X79439207Y-110766000D01*
X79818793Y-110766000D01*
X80191085Y-110691947D01*
X80541777Y-110546685D01*
X80857391Y-110335799D01*
X81125799Y-110067391D01*
X81336685Y-109751777D01*
X81481947Y-109401085D01*
X81556000Y-109028793D01*
X81556000Y-108649207D01*
X81481947Y-108276915D01*
X81336685Y-107926223D01*
X81125799Y-107610609D01*
X80857391Y-107342201D01*
X80852601Y-107339000D01*
X83621483Y-107339000D01*
X83621483Y-110339000D01*
X83635520Y-110481517D01*
X83677090Y-110618557D01*
X83744597Y-110744853D01*
X83835446Y-110855554D01*
X83946147Y-110946403D01*
X84072443Y-111013910D01*
X84209483Y-111055480D01*
X84352000Y-111069517D01*
X87352000Y-111069517D01*
X87494517Y-111055480D01*
X87631557Y-111013910D01*
X87757853Y-110946403D01*
X87868554Y-110855554D01*
X87959403Y-110744853D01*
X88026910Y-110618557D01*
X88068480Y-110481517D01*
X88082517Y-110339000D01*
X88082517Y-108619660D01*
X88705000Y-108619660D01*
X88705000Y-109058340D01*
X88790582Y-109488592D01*
X88958458Y-109893880D01*
X89202176Y-110258630D01*
X89512370Y-110568824D01*
X89877120Y-110812542D01*
X90282408Y-110980418D01*
X90712660Y-111066000D01*
X91151340Y-111066000D01*
X91581592Y-110980418D01*
X91986880Y-110812542D01*
X92351630Y-110568824D01*
X92589801Y-110330653D01*
X94699952Y-110330653D01*
X94855962Y-110646214D01*
X95230745Y-110837020D01*
X95635551Y-110951044D01*
X96054824Y-110983902D01*
X96472451Y-110934334D01*
X96872383Y-110804243D01*
X97168038Y-110646214D01*
X97324048Y-110330653D01*
X96012000Y-109018605D01*
X94699952Y-110330653D01*
X92589801Y-110330653D01*
X92661824Y-110258630D01*
X92905542Y-109893880D01*
X93073418Y-109488592D01*
X93159000Y-109058340D01*
X93159000Y-108881824D01*
X93867098Y-108881824D01*
X93916666Y-109299451D01*
X94046757Y-109699383D01*
X94204786Y-109995038D01*
X94520347Y-110151048D01*
X95832395Y-108839000D01*
X96191605Y-108839000D01*
X97503653Y-110151048D01*
X97819214Y-109995038D01*
X98010020Y-109620255D01*
X98124044Y-109215449D01*
X98156902Y-108796176D01*
X98107334Y-108378549D01*
X98041006Y-108174640D01*
X100755000Y-108174640D01*
X100755000Y-108741360D01*
X100865561Y-109297190D01*
X101082435Y-109820771D01*
X101397288Y-110291981D01*
X101798019Y-110692712D01*
X102269229Y-111007565D01*
X102792810Y-111224439D01*
X103348640Y-111335000D01*
X103915360Y-111335000D01*
X104471190Y-111224439D01*
X104994771Y-111007565D01*
X105465981Y-110692712D01*
X105866712Y-110291981D01*
X106181565Y-109820771D01*
X106398439Y-109297190D01*
X106509000Y-108741360D01*
X106509000Y-108174640D01*
X106398439Y-107618810D01*
X106181565Y-107095229D01*
X105866712Y-106624019D01*
X105465981Y-106223288D01*
X104994771Y-105908435D01*
X104471190Y-105691561D01*
X103915360Y-105581000D01*
X103348640Y-105581000D01*
X102792810Y-105691561D01*
X102269229Y-105908435D01*
X101798019Y-106223288D01*
X101397288Y-106624019D01*
X101082435Y-107095229D01*
X100865561Y-107618810D01*
X100755000Y-108174640D01*
X98041006Y-108174640D01*
X97977243Y-107978617D01*
X97819214Y-107682962D01*
X97503653Y-107526952D01*
X96191605Y-108839000D01*
X95832395Y-108839000D01*
X94520347Y-107526952D01*
X94204786Y-107682962D01*
X94013980Y-108057745D01*
X93899956Y-108462551D01*
X93867098Y-108881824D01*
X93159000Y-108881824D01*
X93159000Y-108619660D01*
X93073418Y-108189408D01*
X92905542Y-107784120D01*
X92661824Y-107419370D01*
X92589801Y-107347347D01*
X94699952Y-107347347D01*
X96012000Y-108659395D01*
X97324048Y-107347347D01*
X97168038Y-107031786D01*
X96793255Y-106840980D01*
X96388449Y-106726956D01*
X95969176Y-106694098D01*
X95551549Y-106743666D01*
X95151617Y-106873757D01*
X94855962Y-107031786D01*
X94699952Y-107347347D01*
X92589801Y-107347347D01*
X92351630Y-107109176D01*
X91986880Y-106865458D01*
X91581592Y-106697582D01*
X91151340Y-106612000D01*
X90712660Y-106612000D01*
X90282408Y-106697582D01*
X89877120Y-106865458D01*
X89512370Y-107109176D01*
X89202176Y-107419370D01*
X88958458Y-107784120D01*
X88790582Y-108189408D01*
X88705000Y-108619660D01*
X88082517Y-108619660D01*
X88082517Y-107339000D01*
X88068480Y-107196483D01*
X88026910Y-107059443D01*
X87959403Y-106933147D01*
X87868554Y-106822446D01*
X87757853Y-106731597D01*
X87631557Y-106664090D01*
X87494517Y-106622520D01*
X87352000Y-106608483D01*
X84352000Y-106608483D01*
X84209483Y-106622520D01*
X84072443Y-106664090D01*
X83946147Y-106731597D01*
X83835446Y-106822446D01*
X83744597Y-106933147D01*
X83677090Y-107059443D01*
X83635520Y-107196483D01*
X83621483Y-107339000D01*
X80852601Y-107339000D01*
X80541777Y-107131315D01*
X80191085Y-106986053D01*
X79818793Y-106912000D01*
X79439207Y-106912000D01*
X79066915Y-106986053D01*
X78716223Y-107131315D01*
X78400609Y-107342201D01*
X78132201Y-107610609D01*
X77921315Y-107926223D01*
X77776053Y-108276915D01*
X77702000Y-108649207D01*
X75079000Y-108649207D01*
X75004947Y-108276915D01*
X74859685Y-107926223D01*
X74648799Y-107610609D01*
X74380391Y-107342201D01*
X74064777Y-107131315D01*
X73714085Y-106986053D01*
X73341793Y-106912000D01*
X72962207Y-106912000D01*
X72589915Y-106986053D01*
X72239223Y-107131315D01*
X71923609Y-107342201D01*
X71655201Y-107610609D01*
X71444315Y-107926223D01*
X71299053Y-108276915D01*
X71225000Y-108649207D01*
X68602000Y-108649207D01*
X68527947Y-108276915D01*
X68382685Y-107926223D01*
X68171799Y-107610609D01*
X67903391Y-107342201D01*
X67587777Y-107131315D01*
X67237085Y-106986053D01*
X66864793Y-106912000D01*
X66485207Y-106912000D01*
X66112915Y-106986053D01*
X65762223Y-107131315D01*
X65446609Y-107342201D01*
X65178201Y-107610609D01*
X64967315Y-107926223D01*
X64822053Y-108276915D01*
X64748000Y-108649207D01*
X62125000Y-108649207D01*
X62050947Y-108276915D01*
X61905685Y-107926223D01*
X61694799Y-107610609D01*
X61426391Y-107342201D01*
X61110777Y-107131315D01*
X60760085Y-106986053D01*
X60387793Y-106912000D01*
X60008207Y-106912000D01*
X59635915Y-106986053D01*
X59285223Y-107131315D01*
X58969609Y-107342201D01*
X58701201Y-107610609D01*
X58490315Y-107926223D01*
X58345053Y-108276915D01*
X58271000Y-108649207D01*
X55709000Y-108649207D01*
X55709000Y-108174640D01*
X55598439Y-107618810D01*
X55381565Y-107095229D01*
X55066712Y-106624019D01*
X54665981Y-106223288D01*
X54194771Y-105908435D01*
X53671190Y-105691561D01*
X53115360Y-105581000D01*
X52548640Y-105581000D01*
X51992810Y-105691561D01*
X51469229Y-105908435D01*
X50998019Y-106223288D01*
X50597288Y-106624019D01*
X50282435Y-107095229D01*
X50065561Y-107618810D01*
X49955000Y-108174640D01*
X48920000Y-108174640D01*
X48920000Y-101187040D01*
X53472091Y-101187040D01*
X53566930Y-101451881D01*
X53711615Y-101693131D01*
X53900586Y-101901519D01*
X54126580Y-102069037D01*
X54380913Y-102189246D01*
X54514961Y-102229904D01*
X54737000Y-102107915D01*
X54737000Y-100965000D01*
X54991000Y-100965000D01*
X54991000Y-102107915D01*
X55213039Y-102229904D01*
X55347087Y-102189246D01*
X55601420Y-102069037D01*
X55827414Y-101901519D01*
X56016385Y-101693131D01*
X56161070Y-101451881D01*
X56255909Y-101187040D01*
X56134624Y-100965000D01*
X54991000Y-100965000D01*
X54737000Y-100965000D01*
X53593376Y-100965000D01*
X53472091Y-101187040D01*
X48920000Y-101187040D01*
X48920000Y-100488960D01*
X53472091Y-100488960D01*
X53593376Y-100711000D01*
X54737000Y-100711000D01*
X54737000Y-99568085D01*
X54991000Y-99568085D01*
X54991000Y-100711000D01*
X56134624Y-100711000D01*
X56255909Y-100488960D01*
X56161070Y-100224119D01*
X56016385Y-99982869D01*
X55827414Y-99774481D01*
X55601420Y-99606963D01*
X55347087Y-99486754D01*
X55213039Y-99446096D01*
X54991000Y-99568085D01*
X54737000Y-99568085D01*
X54514961Y-99446096D01*
X54380913Y-99486754D01*
X54126580Y-99606963D01*
X53900586Y-99774481D01*
X53711615Y-99982869D01*
X53566930Y-100224119D01*
X53472091Y-100488960D01*
X48920000Y-100488960D01*
X48920000Y-94234000D01*
X49043709Y-94234000D01*
X49084776Y-94650965D01*
X49206401Y-95051906D01*
X49403907Y-95421415D01*
X49669707Y-95745293D01*
X49993585Y-96011093D01*
X50363094Y-96208599D01*
X50764035Y-96330224D01*
X51076513Y-96361000D01*
X51285487Y-96361000D01*
X51597965Y-96330224D01*
X51998906Y-96208599D01*
X52368415Y-96011093D01*
X52692293Y-95745293D01*
X52958093Y-95421415D01*
X53155599Y-95051906D01*
X53277224Y-94650965D01*
X53318291Y-94234000D01*
X53277224Y-93817035D01*
X53211084Y-93599000D01*
X58261677Y-93599000D01*
X58298883Y-93976758D01*
X58409071Y-94339999D01*
X58588006Y-94674763D01*
X58828813Y-94968187D01*
X59122237Y-95208994D01*
X59457001Y-95387929D01*
X59820242Y-95498117D01*
X60103342Y-95526000D01*
X60292658Y-95526000D01*
X60575758Y-95498117D01*
X60938999Y-95387929D01*
X61273763Y-95208994D01*
X61567187Y-94968187D01*
X61807994Y-94674763D01*
X61986929Y-94339999D01*
X62097117Y-93976758D01*
X62134323Y-93599000D01*
X64738677Y-93599000D01*
X64775883Y-93976758D01*
X64886071Y-94339999D01*
X65065006Y-94674763D01*
X65305813Y-94968187D01*
X65599237Y-95208994D01*
X65934001Y-95387929D01*
X66297242Y-95498117D01*
X66580342Y-95526000D01*
X66769658Y-95526000D01*
X67052758Y-95498117D01*
X67415999Y-95387929D01*
X67750763Y-95208994D01*
X68044187Y-94968187D01*
X68284994Y-94674763D01*
X68463929Y-94339999D01*
X68574117Y-93976758D01*
X68611323Y-93599000D01*
X71215677Y-93599000D01*
X71252883Y-93976758D01*
X71363071Y-94339999D01*
X71542006Y-94674763D01*
X71782813Y-94968187D01*
X72076237Y-95208994D01*
X72411001Y-95387929D01*
X72774242Y-95498117D01*
X73057342Y-95526000D01*
X73246658Y-95526000D01*
X73529758Y-95498117D01*
X73892999Y-95387929D01*
X74227763Y-95208994D01*
X74521187Y-94968187D01*
X74761994Y-94674763D01*
X74940929Y-94339999D01*
X75051117Y-93976758D01*
X75088323Y-93599000D01*
X77692677Y-93599000D01*
X77729883Y-93976758D01*
X77840071Y-94339999D01*
X78019006Y-94674763D01*
X78259813Y-94968187D01*
X78553237Y-95208994D01*
X78888001Y-95387929D01*
X79251242Y-95498117D01*
X79534342Y-95526000D01*
X79723658Y-95526000D01*
X80006758Y-95498117D01*
X80369999Y-95387929D01*
X80704763Y-95208994D01*
X80998187Y-94968187D01*
X81238994Y-94674763D01*
X81417929Y-94339999D01*
X81528117Y-93976758D01*
X81538730Y-93869000D01*
X90979483Y-93869000D01*
X90979483Y-95869000D01*
X90993520Y-96011517D01*
X91035090Y-96148557D01*
X91102597Y-96274853D01*
X91193446Y-96385554D01*
X91304147Y-96476403D01*
X91430443Y-96543910D01*
X91567483Y-96585480D01*
X91710000Y-96599517D01*
X93710000Y-96599517D01*
X93852517Y-96585480D01*
X93989557Y-96543910D01*
X94115853Y-96476403D01*
X94226554Y-96385554D01*
X94317403Y-96274853D01*
X94384910Y-96148557D01*
X94426480Y-96011517D01*
X94427179Y-96004413D01*
X96754192Y-96004413D01*
X96849956Y-96268814D01*
X97139571Y-96409704D01*
X97451108Y-96491384D01*
X97772595Y-96510718D01*
X98091675Y-96466961D01*
X98396088Y-96361795D01*
X98570044Y-96268814D01*
X98665808Y-96004413D01*
X97710000Y-95048605D01*
X96754192Y-96004413D01*
X94427179Y-96004413D01*
X94440517Y-95869000D01*
X94440517Y-94931595D01*
X96068282Y-94931595D01*
X96112039Y-95250675D01*
X96217205Y-95555088D01*
X96310186Y-95729044D01*
X96574587Y-95824808D01*
X97530395Y-94869000D01*
X97889605Y-94869000D01*
X98845413Y-95824808D01*
X99109814Y-95729044D01*
X99250704Y-95439429D01*
X99332384Y-95127892D01*
X99351718Y-94806405D01*
X99307961Y-94487325D01*
X99202795Y-94182912D01*
X99109814Y-94008956D01*
X98845413Y-93913192D01*
X97889605Y-94869000D01*
X97530395Y-94869000D01*
X96574587Y-93913192D01*
X96310186Y-94008956D01*
X96169296Y-94298571D01*
X96087616Y-94610108D01*
X96068282Y-94931595D01*
X94440517Y-94931595D01*
X94440517Y-93869000D01*
X94427180Y-93733587D01*
X96754192Y-93733587D01*
X97710000Y-94689395D01*
X98665808Y-93733587D01*
X98570044Y-93469186D01*
X98280429Y-93328296D01*
X97968892Y-93246616D01*
X97647405Y-93227282D01*
X97328325Y-93271039D01*
X97023912Y-93376205D01*
X96849956Y-93469186D01*
X96754192Y-93733587D01*
X94427180Y-93733587D01*
X94426480Y-93726483D01*
X94384910Y-93589443D01*
X94317403Y-93463147D01*
X94226554Y-93352446D01*
X94115853Y-93261597D01*
X93989557Y-93194090D01*
X93852517Y-93152520D01*
X93710000Y-93138483D01*
X91710000Y-93138483D01*
X91567483Y-93152520D01*
X91430443Y-93194090D01*
X91304147Y-93261597D01*
X91193446Y-93352446D01*
X91102597Y-93463147D01*
X91035090Y-93589443D01*
X90993520Y-93726483D01*
X90979483Y-93869000D01*
X81538730Y-93869000D01*
X81565323Y-93599000D01*
X81528117Y-93221242D01*
X81417929Y-92858001D01*
X81238994Y-92523237D01*
X80998187Y-92229813D01*
X80704763Y-91989006D01*
X80369999Y-91810071D01*
X80006758Y-91699883D01*
X79723658Y-91672000D01*
X79534342Y-91672000D01*
X79251242Y-91699883D01*
X78888001Y-91810071D01*
X78553237Y-91989006D01*
X78259813Y-92229813D01*
X78019006Y-92523237D01*
X77840071Y-92858001D01*
X77729883Y-93221242D01*
X77692677Y-93599000D01*
X75088323Y-93599000D01*
X75051117Y-93221242D01*
X74940929Y-92858001D01*
X74761994Y-92523237D01*
X74521187Y-92229813D01*
X74227763Y-91989006D01*
X73892999Y-91810071D01*
X73529758Y-91699883D01*
X73246658Y-91672000D01*
X73057342Y-91672000D01*
X72774242Y-91699883D01*
X72411001Y-91810071D01*
X72076237Y-91989006D01*
X71782813Y-92229813D01*
X71542006Y-92523237D01*
X71363071Y-92858001D01*
X71252883Y-93221242D01*
X71215677Y-93599000D01*
X68611323Y-93599000D01*
X68574117Y-93221242D01*
X68463929Y-92858001D01*
X68284994Y-92523237D01*
X68044187Y-92229813D01*
X67750763Y-91989006D01*
X67415999Y-91810071D01*
X67052758Y-91699883D01*
X66769658Y-91672000D01*
X66580342Y-91672000D01*
X66297242Y-91699883D01*
X65934001Y-91810071D01*
X65599237Y-91989006D01*
X65305813Y-92229813D01*
X65065006Y-92523237D01*
X64886071Y-92858001D01*
X64775883Y-93221242D01*
X64738677Y-93599000D01*
X62134323Y-93599000D01*
X62097117Y-93221242D01*
X61986929Y-92858001D01*
X61807994Y-92523237D01*
X61567187Y-92229813D01*
X61273763Y-91989006D01*
X60938999Y-91810071D01*
X60575758Y-91699883D01*
X60292658Y-91672000D01*
X60103342Y-91672000D01*
X59820242Y-91699883D01*
X59457001Y-91810071D01*
X59122237Y-91989006D01*
X58828813Y-92229813D01*
X58588006Y-92523237D01*
X58409071Y-92858001D01*
X58298883Y-93221242D01*
X58261677Y-93599000D01*
X53211084Y-93599000D01*
X53155599Y-93416094D01*
X52958093Y-93046585D01*
X52692293Y-92722707D01*
X52368415Y-92456907D01*
X51998906Y-92259401D01*
X51597965Y-92137776D01*
X51285487Y-92107000D01*
X51076513Y-92107000D01*
X50764035Y-92137776D01*
X50363094Y-92259401D01*
X49993585Y-92456907D01*
X49669707Y-92722707D01*
X49403907Y-93046585D01*
X49206401Y-93416094D01*
X49084776Y-93817035D01*
X49043709Y-94234000D01*
X48920000Y-94234000D01*
X48920000Y-90527604D01*
X53337000Y-90527604D01*
X53337000Y-90828396D01*
X53395681Y-91123410D01*
X53510790Y-91401306D01*
X53677901Y-91651406D01*
X53890594Y-91864099D01*
X54140694Y-92031210D01*
X54418590Y-92146319D01*
X54713604Y-92205000D01*
X55014396Y-92205000D01*
X55309410Y-92146319D01*
X55587306Y-92031210D01*
X55837406Y-91864099D01*
X56050099Y-91651406D01*
X56217210Y-91401306D01*
X56332319Y-91123410D01*
X56391000Y-90828396D01*
X56391000Y-90527604D01*
X56332319Y-90232590D01*
X56217210Y-89954694D01*
X56050099Y-89704594D01*
X55837406Y-89491901D01*
X55587306Y-89324790D01*
X55309410Y-89209681D01*
X55014396Y-89151000D01*
X54713604Y-89151000D01*
X54418590Y-89209681D01*
X54140694Y-89324790D01*
X53890594Y-89491901D01*
X53677901Y-89704594D01*
X53510790Y-89954694D01*
X53395681Y-90232590D01*
X53337000Y-90527604D01*
X48920000Y-90527604D01*
X48920000Y-82674000D01*
X49050483Y-82674000D01*
X49050483Y-85474000D01*
X49064520Y-85616517D01*
X49106090Y-85753557D01*
X49173597Y-85879853D01*
X49264446Y-85990554D01*
X49375147Y-86081403D01*
X49501443Y-86148910D01*
X49638483Y-86190480D01*
X49781000Y-86204517D01*
X52581000Y-86204517D01*
X52723517Y-86190480D01*
X52860557Y-86148910D01*
X52986853Y-86081403D01*
X53097554Y-85990554D01*
X53188403Y-85879853D01*
X53255910Y-85753557D01*
X53297480Y-85616517D01*
X53311517Y-85474000D01*
X53311517Y-82674000D01*
X53297480Y-82531483D01*
X53255910Y-82394443D01*
X53188403Y-82268147D01*
X53097554Y-82157446D01*
X52986853Y-82066597D01*
X52860557Y-81999090D01*
X52723517Y-81957520D01*
X52581000Y-81943483D01*
X49781000Y-81943483D01*
X49638483Y-81957520D01*
X49501443Y-81999090D01*
X49375147Y-82066597D01*
X49264446Y-82157446D01*
X49173597Y-82268147D01*
X49106090Y-82394443D01*
X49064520Y-82531483D01*
X49050483Y-82674000D01*
X48920000Y-82674000D01*
X48920000Y-81931000D01*
X90979483Y-81931000D01*
X90979483Y-83931000D01*
X90993520Y-84073517D01*
X91035090Y-84210557D01*
X91102597Y-84336853D01*
X91193446Y-84447554D01*
X91304147Y-84538403D01*
X91430443Y-84605910D01*
X91567483Y-84647480D01*
X91710000Y-84661517D01*
X93710000Y-84661517D01*
X93852517Y-84647480D01*
X93989557Y-84605910D01*
X94115853Y-84538403D01*
X94226554Y-84447554D01*
X94317403Y-84336853D01*
X94384910Y-84210557D01*
X94426480Y-84073517D01*
X94427179Y-84066413D01*
X96754192Y-84066413D01*
X96849956Y-84330814D01*
X97139571Y-84471704D01*
X97451108Y-84553384D01*
X97772595Y-84572718D01*
X98091675Y-84528961D01*
X98396088Y-84423795D01*
X98570044Y-84330814D01*
X98665808Y-84066413D01*
X97710000Y-83110605D01*
X96754192Y-84066413D01*
X94427179Y-84066413D01*
X94440517Y-83931000D01*
X94440517Y-82993595D01*
X96068282Y-82993595D01*
X96112039Y-83312675D01*
X96217205Y-83617088D01*
X96310186Y-83791044D01*
X96574587Y-83886808D01*
X97530395Y-82931000D01*
X97889605Y-82931000D01*
X98845413Y-83886808D01*
X99109814Y-83791044D01*
X99250704Y-83501429D01*
X99332384Y-83189892D01*
X99351718Y-82868405D01*
X99307961Y-82549325D01*
X99202795Y-82244912D01*
X99109814Y-82070956D01*
X98845413Y-81975192D01*
X97889605Y-82931000D01*
X97530395Y-82931000D01*
X96574587Y-81975192D01*
X96310186Y-82070956D01*
X96169296Y-82360571D01*
X96087616Y-82672108D01*
X96068282Y-82993595D01*
X94440517Y-82993595D01*
X94440517Y-81931000D01*
X94427180Y-81795587D01*
X96754192Y-81795587D01*
X97710000Y-82751395D01*
X98665808Y-81795587D01*
X98570044Y-81531186D01*
X98280429Y-81390296D01*
X97968892Y-81308616D01*
X97647405Y-81289282D01*
X97328325Y-81333039D01*
X97023912Y-81438205D01*
X96849956Y-81531186D01*
X96754192Y-81795587D01*
X94427180Y-81795587D01*
X94426480Y-81788483D01*
X94384910Y-81651443D01*
X94317403Y-81525147D01*
X94226554Y-81414446D01*
X94115853Y-81323597D01*
X93989557Y-81256090D01*
X93852517Y-81214520D01*
X93710000Y-81200483D01*
X91710000Y-81200483D01*
X91567483Y-81214520D01*
X91430443Y-81256090D01*
X91304147Y-81323597D01*
X91193446Y-81414446D01*
X91102597Y-81525147D01*
X91035090Y-81651443D01*
X90993520Y-81788483D01*
X90979483Y-81931000D01*
X48920000Y-81931000D01*
X48920000Y-74717660D01*
X52383000Y-74717660D01*
X52383000Y-75156340D01*
X52468582Y-75586592D01*
X52636458Y-75991880D01*
X52880176Y-76356630D01*
X53190370Y-76666824D01*
X53555120Y-76910542D01*
X53960408Y-77078418D01*
X54390660Y-77164000D01*
X54829340Y-77164000D01*
X55259592Y-77078418D01*
X55664880Y-76910542D01*
X56029630Y-76666824D01*
X56339824Y-76356630D01*
X56583542Y-75991880D01*
X56751418Y-75586592D01*
X56837000Y-75156340D01*
X56837000Y-74717660D01*
X56751418Y-74287408D01*
X56583542Y-73882120D01*
X56508633Y-73770010D01*
X79010000Y-73770010D01*
X79010000Y-73992010D01*
X79053310Y-74209744D01*
X79138266Y-74414845D01*
X79261602Y-74599431D01*
X79285000Y-74622829D01*
X79285001Y-77109180D01*
X79261602Y-77132579D01*
X79138266Y-77317165D01*
X79053310Y-77522266D01*
X79010000Y-77740000D01*
X79010000Y-77962000D01*
X79053310Y-78179734D01*
X79138266Y-78384835D01*
X79261602Y-78569421D01*
X79418579Y-78726398D01*
X79603165Y-78849734D01*
X79808266Y-78934690D01*
X80026000Y-78978000D01*
X80248000Y-78978000D01*
X80465734Y-78934690D01*
X80670835Y-78849734D01*
X80855421Y-78726398D01*
X81012398Y-78569421D01*
X81135734Y-78384835D01*
X81220690Y-78179734D01*
X81264000Y-77962000D01*
X81264000Y-77740000D01*
X81220690Y-77522266D01*
X81135734Y-77317165D01*
X81012398Y-77132579D01*
X80989000Y-77109181D01*
X80989000Y-74622829D01*
X81012398Y-74599431D01*
X81135734Y-74414845D01*
X81220690Y-74209744D01*
X81264000Y-73992010D01*
X81264000Y-73770010D01*
X81242118Y-73660000D01*
X81473370Y-73660000D01*
X81503818Y-73969146D01*
X81593993Y-74266412D01*
X81740428Y-74540373D01*
X81937497Y-74780503D01*
X82177627Y-74977572D01*
X82451588Y-75124007D01*
X82748854Y-75214182D01*
X82980531Y-75237000D01*
X83135469Y-75237000D01*
X83367146Y-75214182D01*
X83664412Y-75124007D01*
X83938373Y-74977572D01*
X84101868Y-74843396D01*
X84140597Y-74915853D01*
X84231446Y-75026554D01*
X84342147Y-75117403D01*
X84468443Y-75184910D01*
X84605483Y-75226480D01*
X84748000Y-75240517D01*
X86448000Y-75240517D01*
X86590517Y-75226480D01*
X86727557Y-75184910D01*
X86853853Y-75117403D01*
X86964554Y-75026554D01*
X87055403Y-74915853D01*
X87122910Y-74789557D01*
X87164480Y-74652517D01*
X87178517Y-74510000D01*
X87178517Y-72810000D01*
X87164480Y-72667483D01*
X87122910Y-72530443D01*
X87055403Y-72404147D01*
X86964554Y-72293446D01*
X86853853Y-72202597D01*
X86727557Y-72135090D01*
X86590517Y-72093520D01*
X86448000Y-72079483D01*
X84748000Y-72079483D01*
X84605483Y-72093520D01*
X84468443Y-72135090D01*
X84342147Y-72202597D01*
X84231446Y-72293446D01*
X84140597Y-72404147D01*
X84101868Y-72476604D01*
X83938373Y-72342428D01*
X83664412Y-72195993D01*
X83367146Y-72105818D01*
X83135469Y-72083000D01*
X82980531Y-72083000D01*
X82748854Y-72105818D01*
X82451588Y-72195993D01*
X82177627Y-72342428D01*
X81937497Y-72539497D01*
X81740428Y-72779627D01*
X81593993Y-73053588D01*
X81503818Y-73350854D01*
X81473370Y-73660000D01*
X81242118Y-73660000D01*
X81220690Y-73552276D01*
X81135734Y-73347175D01*
X81012398Y-73162589D01*
X80855421Y-73005612D01*
X80670835Y-72882276D01*
X80465734Y-72797320D01*
X80248000Y-72754010D01*
X80026000Y-72754010D01*
X79808266Y-72797320D01*
X79603165Y-72882276D01*
X79418579Y-73005612D01*
X79261602Y-73162589D01*
X79138266Y-73347175D01*
X79053310Y-73552276D01*
X79010000Y-73770010D01*
X56508633Y-73770010D01*
X56339824Y-73517370D01*
X56029630Y-73207176D01*
X55664880Y-72963458D01*
X55259592Y-72795582D01*
X54829340Y-72710000D01*
X54390660Y-72710000D01*
X53960408Y-72795582D01*
X53555120Y-72963458D01*
X53190370Y-73207176D01*
X52880176Y-73517370D01*
X52636458Y-73882120D01*
X52468582Y-74287408D01*
X52383000Y-74717660D01*
X48920000Y-74717660D01*
X48920000Y-68577000D01*
X60734483Y-68577000D01*
X60734483Y-71377000D01*
X60748520Y-71519517D01*
X60790090Y-71656557D01*
X60857597Y-71782853D01*
X60948446Y-71893554D01*
X61059147Y-71984403D01*
X61185443Y-72051910D01*
X61322483Y-72093480D01*
X61465000Y-72107517D01*
X64265000Y-72107517D01*
X64407517Y-72093480D01*
X64544557Y-72051910D01*
X64670853Y-71984403D01*
X64781554Y-71893554D01*
X64872403Y-71782853D01*
X64939910Y-71656557D01*
X64981480Y-71519517D01*
X64995517Y-71377000D01*
X64995517Y-68704000D01*
X66449483Y-68704000D01*
X66449483Y-71504000D01*
X66463520Y-71646517D01*
X66505090Y-71783557D01*
X66572597Y-71909853D01*
X66663446Y-72020554D01*
X66774147Y-72111403D01*
X66900443Y-72178910D01*
X67037483Y-72220480D01*
X67180000Y-72234517D01*
X69980000Y-72234517D01*
X70122517Y-72220480D01*
X70259557Y-72178910D01*
X70385853Y-72111403D01*
X70496554Y-72020554D01*
X70587403Y-71909853D01*
X70654910Y-71783557D01*
X70696480Y-71646517D01*
X70710517Y-71504000D01*
X70710517Y-69469000D01*
X84140370Y-69469000D01*
X84170818Y-69778146D01*
X84260993Y-70075412D01*
X84407428Y-70349373D01*
X84604497Y-70589503D01*
X84844627Y-70786572D01*
X85118588Y-70933007D01*
X85415854Y-71023182D01*
X85647531Y-71046000D01*
X85802469Y-71046000D01*
X86034146Y-71023182D01*
X86331412Y-70933007D01*
X86605373Y-70786572D01*
X86845503Y-70589503D01*
X86995000Y-70407340D01*
X87144497Y-70589503D01*
X87384627Y-70786572D01*
X87658588Y-70933007D01*
X87955854Y-71023182D01*
X88187531Y-71046000D01*
X88342469Y-71046000D01*
X88574146Y-71023182D01*
X88871412Y-70933007D01*
X89145373Y-70786572D01*
X89308868Y-70652396D01*
X89347597Y-70724853D01*
X89438446Y-70835554D01*
X89549147Y-70926403D01*
X89675443Y-70993910D01*
X89812483Y-71035480D01*
X89955000Y-71049517D01*
X91655000Y-71049517D01*
X91797517Y-71035480D01*
X91934557Y-70993910D01*
X92060853Y-70926403D01*
X92171554Y-70835554D01*
X92262403Y-70724853D01*
X92329910Y-70598557D01*
X92371480Y-70461517D01*
X92385517Y-70319000D01*
X92385517Y-68619000D01*
X92371480Y-68476483D01*
X92329910Y-68339443D01*
X92262403Y-68213147D01*
X92171554Y-68102446D01*
X92060853Y-68011597D01*
X91934557Y-67944090D01*
X91797517Y-67902520D01*
X91655000Y-67888483D01*
X89955000Y-67888483D01*
X89812483Y-67902520D01*
X89675443Y-67944090D01*
X89549147Y-68011597D01*
X89438446Y-68102446D01*
X89347597Y-68213147D01*
X89308868Y-68285604D01*
X89145373Y-68151428D01*
X88871412Y-68004993D01*
X88574146Y-67914818D01*
X88342469Y-67892000D01*
X88187531Y-67892000D01*
X87955854Y-67914818D01*
X87658588Y-68004993D01*
X87384627Y-68151428D01*
X87144497Y-68348497D01*
X86995000Y-68530660D01*
X86845503Y-68348497D01*
X86605373Y-68151428D01*
X86331412Y-68004993D01*
X86034146Y-67914818D01*
X85802469Y-67892000D01*
X85647531Y-67892000D01*
X85415854Y-67914818D01*
X85118588Y-68004993D01*
X84844627Y-68151428D01*
X84604497Y-68348497D01*
X84407428Y-68588627D01*
X84260993Y-68862588D01*
X84170818Y-69159854D01*
X84140370Y-69469000D01*
X70710517Y-69469000D01*
X70710517Y-68704000D01*
X70696480Y-68561483D01*
X70654910Y-68424443D01*
X70587403Y-68298147D01*
X70496554Y-68187446D01*
X70385853Y-68096597D01*
X70259557Y-68029090D01*
X70122517Y-67987520D01*
X69980000Y-67973483D01*
X67180000Y-67973483D01*
X67037483Y-67987520D01*
X66900443Y-68029090D01*
X66774147Y-68096597D01*
X66663446Y-68187446D01*
X66572597Y-68298147D01*
X66505090Y-68424443D01*
X66463520Y-68561483D01*
X66449483Y-68704000D01*
X64995517Y-68704000D01*
X64995517Y-68577000D01*
X64981480Y-68434483D01*
X64939910Y-68297443D01*
X64872403Y-68171147D01*
X64781554Y-68060446D01*
X64670853Y-67969597D01*
X64544557Y-67902090D01*
X64407517Y-67860520D01*
X64265000Y-67846483D01*
X61465000Y-67846483D01*
X61322483Y-67860520D01*
X61185443Y-67902090D01*
X61059147Y-67969597D01*
X60948446Y-68060446D01*
X60857597Y-68171147D01*
X60790090Y-68297443D01*
X60748520Y-68434483D01*
X60734483Y-68577000D01*
X48920000Y-68577000D01*
X48920000Y-59717660D01*
X52383000Y-59717660D01*
X52383000Y-60156340D01*
X52468582Y-60586592D01*
X52636458Y-60991880D01*
X52880176Y-61356630D01*
X53190370Y-61666824D01*
X53555120Y-61910542D01*
X53960408Y-62078418D01*
X54390660Y-62164000D01*
X54829340Y-62164000D01*
X55259592Y-62078418D01*
X55664880Y-61910542D01*
X56029630Y-61666824D01*
X56339824Y-61356630D01*
X56583542Y-60991880D01*
X56751418Y-60586592D01*
X56837000Y-60156340D01*
X56837000Y-59817000D01*
X60727709Y-59817000D01*
X60768776Y-60233965D01*
X60890401Y-60634906D01*
X61087907Y-61004415D01*
X61353707Y-61328293D01*
X61677585Y-61594093D01*
X62047094Y-61791599D01*
X62448035Y-61913224D01*
X62760513Y-61944000D01*
X62969487Y-61944000D01*
X63281965Y-61913224D01*
X63682906Y-61791599D01*
X64052415Y-61594093D01*
X64376293Y-61328293D01*
X64642093Y-61004415D01*
X64839599Y-60634906D01*
X64914752Y-60387161D01*
X66593836Y-60387161D01*
X66718456Y-60766127D01*
X66914614Y-61113499D01*
X67174772Y-61415928D01*
X67488932Y-61661792D01*
X67845021Y-61841642D01*
X68136840Y-61930160D01*
X68453000Y-61815947D01*
X68453000Y-60071000D01*
X68707000Y-60071000D01*
X68707000Y-61815947D01*
X69023160Y-61930160D01*
X69314979Y-61841642D01*
X69671068Y-61661792D01*
X69985228Y-61415928D01*
X70245386Y-61113499D01*
X70441544Y-60766127D01*
X70566164Y-60387161D01*
X70452287Y-60071000D01*
X68707000Y-60071000D01*
X68453000Y-60071000D01*
X66707713Y-60071000D01*
X66593836Y-60387161D01*
X64914752Y-60387161D01*
X64961224Y-60233965D01*
X65002291Y-59817000D01*
X64971153Y-59500839D01*
X66593836Y-59500839D01*
X66707713Y-59817000D01*
X68453000Y-59817000D01*
X68453000Y-58072053D01*
X68707000Y-58072053D01*
X68707000Y-59817000D01*
X70452287Y-59817000D01*
X70566164Y-59500839D01*
X70441544Y-59121873D01*
X70245386Y-58774501D01*
X69985228Y-58472072D01*
X69671068Y-58226208D01*
X69314979Y-58046358D01*
X69023160Y-57957840D01*
X68707000Y-58072053D01*
X68453000Y-58072053D01*
X68136840Y-57957840D01*
X67845021Y-58046358D01*
X67488932Y-58226208D01*
X67174772Y-58472072D01*
X66914614Y-58774501D01*
X66718456Y-59121873D01*
X66593836Y-59500839D01*
X64971153Y-59500839D01*
X64961224Y-59400035D01*
X64839599Y-58999094D01*
X64642093Y-58629585D01*
X64376293Y-58305707D01*
X64052415Y-58039907D01*
X63682906Y-57842401D01*
X63281965Y-57720776D01*
X62969487Y-57690000D01*
X62760513Y-57690000D01*
X62448035Y-57720776D01*
X62047094Y-57842401D01*
X61677585Y-58039907D01*
X61353707Y-58305707D01*
X61087907Y-58629585D01*
X60890401Y-58999094D01*
X60768776Y-59400035D01*
X60727709Y-59817000D01*
X56837000Y-59817000D01*
X56837000Y-59717660D01*
X56751418Y-59287408D01*
X56583542Y-58882120D01*
X56339824Y-58517370D01*
X56029630Y-58207176D01*
X55664880Y-57963458D01*
X55259592Y-57795582D01*
X54829340Y-57710000D01*
X54390660Y-57710000D01*
X53960408Y-57795582D01*
X53555120Y-57963458D01*
X53190370Y-58207176D01*
X52880176Y-58517370D01*
X52636458Y-58882120D01*
X52468582Y-59287408D01*
X52383000Y-59717660D01*
X48920000Y-59717660D01*
X48920000Y-55880000D01*
X61330612Y-55880000D01*
X61360095Y-56179344D01*
X61447410Y-56467185D01*
X61589203Y-56732460D01*
X61780024Y-56964976D01*
X62012540Y-57155797D01*
X62277815Y-57297590D01*
X62565656Y-57384905D01*
X62789989Y-57407000D01*
X62940011Y-57407000D01*
X63164344Y-57384905D01*
X63452185Y-57297590D01*
X63717460Y-57155797D01*
X63949976Y-56964976D01*
X64140797Y-56732460D01*
X64282590Y-56467185D01*
X64369905Y-56179344D01*
X64399388Y-55880000D01*
X64384576Y-55729604D01*
X71498000Y-55729604D01*
X71498000Y-56030396D01*
X71556681Y-56325410D01*
X71671790Y-56603306D01*
X71838901Y-56853406D01*
X72051594Y-57066099D01*
X72301694Y-57233210D01*
X72579590Y-57348319D01*
X72874604Y-57407000D01*
X73175396Y-57407000D01*
X73470410Y-57348319D01*
X73748306Y-57233210D01*
X73998406Y-57066099D01*
X74211099Y-56853406D01*
X74378210Y-56603306D01*
X74493319Y-56325410D01*
X74552000Y-56030396D01*
X74552000Y-55729604D01*
X74493319Y-55434590D01*
X74378210Y-55156694D01*
X74211099Y-54906594D01*
X73998406Y-54693901D01*
X73748306Y-54526790D01*
X73470410Y-54411681D01*
X73175396Y-54353000D01*
X72874604Y-54353000D01*
X72579590Y-54411681D01*
X72301694Y-54526790D01*
X72051594Y-54693901D01*
X71838901Y-54906594D01*
X71671790Y-55156694D01*
X71556681Y-55434590D01*
X71498000Y-55729604D01*
X64384576Y-55729604D01*
X64369905Y-55580656D01*
X64282590Y-55292815D01*
X64140797Y-55027540D01*
X63949976Y-54795024D01*
X63717460Y-54604203D01*
X63452185Y-54462410D01*
X63164344Y-54375095D01*
X62940011Y-54353000D01*
X62789989Y-54353000D01*
X62565656Y-54375095D01*
X62277815Y-54462410D01*
X62012540Y-54604203D01*
X61780024Y-54795024D01*
X61589203Y-55027540D01*
X61447410Y-55292815D01*
X61360095Y-55580656D01*
X61330612Y-55880000D01*
X48920000Y-55880000D01*
X48920000Y-49657000D01*
X61811000Y-49657000D01*
X61811000Y-50107000D01*
X61863350Y-50384514D01*
X61968834Y-50646483D01*
X62123399Y-50882839D01*
X62321105Y-51084500D01*
X62554354Y-51243715D01*
X62814182Y-51354367D01*
X62896961Y-51371904D01*
X63119000Y-51249915D01*
X63119000Y-49657000D01*
X61811000Y-49657000D01*
X48920000Y-49657000D01*
X48920000Y-48953000D01*
X61811000Y-48953000D01*
X61811000Y-49403000D01*
X63119000Y-49403000D01*
X63119000Y-47810085D01*
X63373000Y-47810085D01*
X63373000Y-49403000D01*
X63393000Y-49403000D01*
X63393000Y-49657000D01*
X63373000Y-49657000D01*
X63373000Y-51249915D01*
X63595039Y-51371904D01*
X63677818Y-51354367D01*
X63937646Y-51243715D01*
X64170895Y-51084500D01*
X64368601Y-50882839D01*
X64461334Y-50741034D01*
X64510203Y-50832460D01*
X64701025Y-51064976D01*
X64933541Y-51255797D01*
X65198816Y-51397590D01*
X65486657Y-51484905D01*
X65786000Y-51514388D01*
X66085344Y-51484905D01*
X66373185Y-51397590D01*
X66638460Y-51255797D01*
X66870976Y-51064976D01*
X67061797Y-50832460D01*
X67203590Y-50567185D01*
X67290905Y-50279344D01*
X67313000Y-50055010D01*
X67313000Y-49004989D01*
X67290905Y-48780656D01*
X67203590Y-48492815D01*
X67061797Y-48227540D01*
X66870976Y-47995024D01*
X66638459Y-47804203D01*
X66373184Y-47662410D01*
X66085343Y-47575095D01*
X65786000Y-47545612D01*
X65486656Y-47575095D01*
X65198815Y-47662410D01*
X64933540Y-47804203D01*
X64701024Y-47995024D01*
X64510203Y-48227541D01*
X64461335Y-48318967D01*
X64368601Y-48177161D01*
X64170895Y-47975500D01*
X63937646Y-47816285D01*
X63677818Y-47705633D01*
X63595039Y-47688096D01*
X63373000Y-47810085D01*
X63119000Y-47810085D01*
X62896961Y-47688096D01*
X62814182Y-47705633D01*
X62554354Y-47816285D01*
X62321105Y-47975500D01*
X62123399Y-48177161D01*
X61968834Y-48413517D01*
X61863350Y-48675486D01*
X61811000Y-48953000D01*
X48920000Y-48953000D01*
X48920000Y-44577000D01*
X58321000Y-44577000D01*
X58321000Y-46327000D01*
X58391604Y-46789850D01*
X58551148Y-47230032D01*
X58793502Y-47630631D01*
X59109352Y-47976252D01*
X59486561Y-48253612D01*
X59910632Y-48452053D01*
X60207997Y-48532427D01*
X60579000Y-48422625D01*
X60579000Y-44577000D01*
X60833000Y-44577000D01*
X60833000Y-48422625D01*
X61204003Y-48532427D01*
X61501368Y-48452053D01*
X61925439Y-48253612D01*
X62302648Y-47976252D01*
X62618498Y-47630631D01*
X62860852Y-47230032D01*
X63020396Y-46789850D01*
X63091000Y-46327000D01*
X63091000Y-44577000D01*
X68481000Y-44577000D01*
X68481000Y-46327000D01*
X68551604Y-46789850D01*
X68711148Y-47230032D01*
X68953502Y-47630631D01*
X69269352Y-47976252D01*
X69646561Y-48253612D01*
X70070632Y-48452053D01*
X70367997Y-48532427D01*
X70739000Y-48422625D01*
X70739000Y-44577000D01*
X70993000Y-44577000D01*
X70993000Y-48422625D01*
X71364003Y-48532427D01*
X71661368Y-48452053D01*
X72085439Y-48253612D01*
X72462648Y-47976252D01*
X72778498Y-47630631D01*
X73020852Y-47230032D01*
X73180396Y-46789850D01*
X73251000Y-46327000D01*
X73251000Y-44577000D01*
X70993000Y-44577000D01*
X70739000Y-44577000D01*
X68481000Y-44577000D01*
X63091000Y-44577000D01*
X60833000Y-44577000D01*
X60579000Y-44577000D01*
X58321000Y-44577000D01*
X48920000Y-44577000D01*
X48920000Y-41118640D01*
X49955000Y-41118640D01*
X49955000Y-41685360D01*
X50065561Y-42241190D01*
X50282435Y-42764771D01*
X50597288Y-43235981D01*
X50998019Y-43636712D01*
X51469229Y-43951565D01*
X51992810Y-44168439D01*
X52548640Y-44279000D01*
X53115360Y-44279000D01*
X53671190Y-44168439D01*
X54194771Y-43951565D01*
X54665981Y-43636712D01*
X55066712Y-43235981D01*
X55381565Y-42764771D01*
X55460999Y-42573000D01*
X58321000Y-42573000D01*
X58321000Y-44323000D01*
X60579000Y-44323000D01*
X60579000Y-40477375D01*
X60833000Y-40477375D01*
X60833000Y-44323000D01*
X63091000Y-44323000D01*
X63091000Y-42573000D01*
X68481000Y-42573000D01*
X68481000Y-44323000D01*
X70739000Y-44323000D01*
X70739000Y-40477375D01*
X70993000Y-40477375D01*
X70993000Y-44323000D01*
X73251000Y-44323000D01*
X73251000Y-44180483D01*
X76785000Y-44180483D01*
X76785000Y-44465517D01*
X76840608Y-44745074D01*
X76949686Y-45008411D01*
X77108042Y-45245408D01*
X77309592Y-45446958D01*
X77546589Y-45605314D01*
X77809926Y-45714392D01*
X78089483Y-45770000D01*
X78374517Y-45770000D01*
X78654074Y-45714392D01*
X78917411Y-45605314D01*
X79154408Y-45446958D01*
X79355958Y-45245408D01*
X79514314Y-45008411D01*
X79623392Y-44745074D01*
X79679000Y-44465517D01*
X79679000Y-44180483D01*
X79623392Y-43900926D01*
X79514314Y-43637589D01*
X79355958Y-43400592D01*
X79154408Y-43199042D01*
X78917411Y-43040686D01*
X78831306Y-43005020D01*
X78926068Y-42954368D01*
X78987955Y-42718560D01*
X78847710Y-42578315D01*
X83121000Y-42578315D01*
X83121000Y-46321686D01*
X83156841Y-46685577D01*
X83298479Y-47152493D01*
X83528486Y-47582806D01*
X83838023Y-47959978D01*
X84215195Y-48269515D01*
X84645508Y-48499522D01*
X85112424Y-48641160D01*
X85598000Y-48688985D01*
X86083577Y-48641160D01*
X86550493Y-48499522D01*
X86783355Y-48375055D01*
X86720410Y-48492816D01*
X86633095Y-48780657D01*
X86611000Y-49004990D01*
X86611000Y-50055011D01*
X86633095Y-50279344D01*
X86720410Y-50567185D01*
X86862203Y-50832460D01*
X87053025Y-51064976D01*
X87285541Y-51255797D01*
X87550816Y-51397590D01*
X87838657Y-51484905D01*
X88138000Y-51514388D01*
X88437344Y-51484905D01*
X88725185Y-51397590D01*
X88990460Y-51255797D01*
X89222976Y-51064976D01*
X89408000Y-50839524D01*
X89593025Y-51064976D01*
X89825541Y-51255797D01*
X90090816Y-51397590D01*
X90378657Y-51484905D01*
X90678000Y-51514388D01*
X90977344Y-51484905D01*
X91265185Y-51397590D01*
X91530460Y-51255797D01*
X91762976Y-51064976D01*
X91953797Y-50832460D01*
X92095590Y-50567185D01*
X92182905Y-50279344D01*
X92205000Y-50055010D01*
X92205000Y-49004989D01*
X92182905Y-48780656D01*
X92095590Y-48492815D01*
X91953797Y-48227540D01*
X91762976Y-47995024D01*
X91530459Y-47804203D01*
X91265184Y-47662410D01*
X90977343Y-47575095D01*
X90678000Y-47545612D01*
X90378656Y-47575095D01*
X90090815Y-47662410D01*
X89825540Y-47804203D01*
X89593024Y-47995024D01*
X89408000Y-48220477D01*
X89222976Y-47995024D01*
X88990459Y-47804203D01*
X88725184Y-47662410D01*
X88437343Y-47575095D01*
X88138000Y-47545612D01*
X87838656Y-47575095D01*
X87619213Y-47641662D01*
X87667515Y-47582806D01*
X87897522Y-47152493D01*
X88039160Y-46685577D01*
X88075000Y-46321686D01*
X88075000Y-42578315D01*
X93281000Y-42578315D01*
X93281000Y-46321686D01*
X93316841Y-46685577D01*
X93458479Y-47152493D01*
X93688486Y-47582806D01*
X93998023Y-47959978D01*
X94375195Y-48269515D01*
X94805508Y-48499522D01*
X95272424Y-48641160D01*
X95758000Y-48688985D01*
X96243577Y-48641160D01*
X96710493Y-48499522D01*
X97140806Y-48269515D01*
X97517978Y-47959978D01*
X97827515Y-47582806D01*
X98057522Y-47152493D01*
X98199160Y-46685577D01*
X98235000Y-46321686D01*
X98235000Y-42578314D01*
X98199160Y-42214423D01*
X98057522Y-41747507D01*
X97827515Y-41317194D01*
X97664566Y-41118640D01*
X100755000Y-41118640D01*
X100755000Y-41685360D01*
X100865561Y-42241190D01*
X101082435Y-42764771D01*
X101397288Y-43235981D01*
X101798019Y-43636712D01*
X102269229Y-43951565D01*
X102792810Y-44168439D01*
X103348640Y-44279000D01*
X103915360Y-44279000D01*
X104471190Y-44168439D01*
X104994771Y-43951565D01*
X105465981Y-43636712D01*
X105866712Y-43235981D01*
X106181565Y-42764771D01*
X106398439Y-42241190D01*
X106509000Y-41685360D01*
X106509000Y-41118640D01*
X106398439Y-40562810D01*
X106181565Y-40039229D01*
X105866712Y-39568019D01*
X105465981Y-39167288D01*
X104994771Y-38852435D01*
X104471190Y-38635561D01*
X103915360Y-38525000D01*
X103348640Y-38525000D01*
X102792810Y-38635561D01*
X102269229Y-38852435D01*
X101798019Y-39167288D01*
X101397288Y-39568019D01*
X101082435Y-40039229D01*
X100865561Y-40562810D01*
X100755000Y-41118640D01*
X97664566Y-41118640D01*
X97517978Y-40940022D01*
X97140805Y-40630485D01*
X96710492Y-40400478D01*
X96243576Y-40258840D01*
X95758000Y-40211015D01*
X95272423Y-40258840D01*
X94805507Y-40400478D01*
X94375194Y-40630485D01*
X93998022Y-40940022D01*
X93688485Y-41317195D01*
X93458478Y-41747508D01*
X93316840Y-42214424D01*
X93281000Y-42578315D01*
X88075000Y-42578315D01*
X88075000Y-42578314D01*
X88039160Y-42214423D01*
X87897522Y-41747507D01*
X87667515Y-41317194D01*
X87357978Y-40940022D01*
X86980805Y-40630485D01*
X86550492Y-40400478D01*
X86083576Y-40258840D01*
X85598000Y-40211015D01*
X85112423Y-40258840D01*
X84645507Y-40400478D01*
X84215194Y-40630485D01*
X83838022Y-40940022D01*
X83528485Y-41317195D01*
X83298478Y-41747508D01*
X83156840Y-42214424D01*
X83121000Y-42578315D01*
X78847710Y-42578315D01*
X78232000Y-41962605D01*
X77476045Y-42718560D01*
X77537932Y-42954368D01*
X77639978Y-43002003D01*
X77546589Y-43040686D01*
X77309592Y-43199042D01*
X77108042Y-43400592D01*
X76949686Y-43637589D01*
X76840608Y-43900926D01*
X76785000Y-44180483D01*
X73251000Y-44180483D01*
X73251000Y-42573000D01*
X73180396Y-42110150D01*
X73088526Y-41856680D01*
X76872439Y-41856680D01*
X76912937Y-42120501D01*
X77004125Y-42371353D01*
X77060632Y-42477068D01*
X77296440Y-42538955D01*
X78052395Y-41783000D01*
X78411605Y-41783000D01*
X79167560Y-42538955D01*
X79403368Y-42477068D01*
X79516266Y-42235210D01*
X79579811Y-41975973D01*
X79591561Y-41709320D01*
X79551063Y-41445499D01*
X79459875Y-41194647D01*
X79403368Y-41088932D01*
X79167560Y-41027045D01*
X78411605Y-41783000D01*
X78052395Y-41783000D01*
X77296440Y-41027045D01*
X77060632Y-41088932D01*
X76947734Y-41330790D01*
X76884189Y-41590027D01*
X76872439Y-41856680D01*
X73088526Y-41856680D01*
X73020852Y-41669968D01*
X72778498Y-41269369D01*
X72462648Y-40923748D01*
X72085439Y-40646388D01*
X71661368Y-40447947D01*
X71364003Y-40367573D01*
X70993000Y-40477375D01*
X70739000Y-40477375D01*
X70367997Y-40367573D01*
X70070632Y-40447947D01*
X69646561Y-40646388D01*
X69269352Y-40923748D01*
X68953502Y-41269369D01*
X68711148Y-41669968D01*
X68551604Y-42110150D01*
X68481000Y-42573000D01*
X63091000Y-42573000D01*
X63020396Y-42110150D01*
X62860852Y-41669968D01*
X62618498Y-41269369D01*
X62302648Y-40923748D01*
X61925439Y-40646388D01*
X61501368Y-40447947D01*
X61204003Y-40367573D01*
X60833000Y-40477375D01*
X60579000Y-40477375D01*
X60207997Y-40367573D01*
X59910632Y-40447947D01*
X59486561Y-40646388D01*
X59109352Y-40923748D01*
X58793502Y-41269369D01*
X58551148Y-41669968D01*
X58391604Y-42110150D01*
X58321000Y-42573000D01*
X55460999Y-42573000D01*
X55598439Y-42241190D01*
X55709000Y-41685360D01*
X55709000Y-41118640D01*
X55598439Y-40562810D01*
X55381565Y-40039229D01*
X55066712Y-39568019D01*
X54665981Y-39167288D01*
X54566001Y-39100483D01*
X76785000Y-39100483D01*
X76785000Y-39385517D01*
X76840608Y-39665074D01*
X76949686Y-39928411D01*
X77108042Y-40165408D01*
X77309592Y-40366958D01*
X77546589Y-40525314D01*
X77632694Y-40560980D01*
X77537932Y-40611632D01*
X77476045Y-40847440D01*
X78232000Y-41603395D01*
X78987955Y-40847440D01*
X78926068Y-40611632D01*
X78824022Y-40563997D01*
X78917411Y-40525314D01*
X79154408Y-40366958D01*
X79355958Y-40165408D01*
X79514314Y-39928411D01*
X79623392Y-39665074D01*
X79679000Y-39385517D01*
X79679000Y-39100483D01*
X79623392Y-38820926D01*
X79514314Y-38557589D01*
X79355958Y-38320592D01*
X79154408Y-38119042D01*
X78917411Y-37960686D01*
X78654074Y-37851608D01*
X78374517Y-37796000D01*
X78089483Y-37796000D01*
X77809926Y-37851608D01*
X77546589Y-37960686D01*
X77309592Y-38119042D01*
X77108042Y-38320592D01*
X76949686Y-38557589D01*
X76840608Y-38820926D01*
X76785000Y-39100483D01*
X54566001Y-39100483D01*
X54194771Y-38852435D01*
X53671190Y-38635561D01*
X53115360Y-38525000D01*
X52548640Y-38525000D01*
X51992810Y-38635561D01*
X51469229Y-38852435D01*
X50998019Y-39167288D01*
X50597288Y-39568019D01*
X50282435Y-40039229D01*
X50065561Y-40562810D01*
X49955000Y-41118640D01*
X48920000Y-41118640D01*
X48920000Y-37490000D01*
X107544000Y-37490000D01*
X107544001Y-112370000D01*
M02*
